<svg width="88" height="110" viewBox="0 0 88 110" fill="none" xmlns="http://www.w3.org/2000/svg">
<mask id="mask0_8_694" style="mask-type:luminance" maskUnits="userSpaceOnUse" x="0" y="0" width="88" height="110">
<rect width="88" height="110" fill="url(#paint0_linear_8_694)"/>
</mask>
<g mask="url(#mask0_8_694)">
<path d="M5.3 110V97.4C5.3 90.1 6.5 84.05 8.9 79.25C11.3 74.35 14.75 70.35 19.25 67.25C23.85 64.05 29.45 61.45 36.05 59.45L46.1 56.3C49.8 55.1 52.9 53.65 55.4 51.95C57.9 50.15 59.8 48 61.1 45.5C62.5 43 63.2 40.15 63.2 36.95V36.35C63.2 31.35 61.5 27.4 58.1 24.5C54.7 21.5 50.05 20 44.15 20C38.35 20 33.65 21.6 30.05 24.8C26.55 27.9 24.8 32.4 24.8 38.3V41H5.6V38.6C5.6 31 7.3 24.55 10.7 19.25C14.1 13.95 18.7 9.89999 24.5 7.09999C30.4 4.29999 36.95 2.89999 44.15 2.89999C51.35 2.89999 57.85 4.29999 63.65 7.09999C69.45 9.79999 74 13.65 77.3 18.65C80.7 23.55 82.4 29.35 82.4 36.05V37.55C82.4 44.25 81 49.95 78.2 54.65C75.5 59.25 71.8 63.05 67.1 66.05C62.4 68.95 57.05 71.35 51.05 73.25L41.45 76.25C37.15 77.55 33.8 79 31.4 80.6C29 82.1 27.3 83.8 26.3 85.7C25.4 87.5 24.95 89.7 24.95 92.3V92.9H81.5V110H5.3Z" fill="white"/>
</g>
<defs>
<linearGradient id="paint0_linear_8_694" x1="44" y1="55.5238" x2="44" y2="110" gradientUnits="userSpaceOnUse">
<stop stop-color="#D9D9D9"/>
<stop offset="1"/>
</linearGradient>
</defs>
</svg>
