<svg width="290" height="192" viewBox="0 0 290 192" fill="none" xmlns="http://www.w3.org/2000/svg">
<path d="M3.95569 188.921C3.95702 188.985 3.97286 189.049 4.0023 189.108C4.03175 189.167 4.07422 189.221 4.12729 189.266C4.18035 189.31 4.24297 189.346 4.31156 189.369C4.38015 189.393 4.45336 189.404 4.527 189.403H289.428C289.502 189.406 289.577 189.395 289.646 189.372C289.715 189.349 289.779 189.314 289.832 189.269C289.886 189.224 289.929 189.17 289.958 189.11C289.987 189.05 290.002 188.986 290.002 188.921C290.002 188.856 289.987 188.791 289.958 188.732C289.929 188.672 289.886 188.618 289.832 188.573C289.779 188.528 289.715 188.493 289.646 188.47C289.577 188.447 289.502 188.436 289.428 188.439H4.527C4.45339 188.438 4.38021 188.449 4.31164 188.473C4.24307 188.496 4.18046 188.531 4.1274 188.576C4.07434 188.621 4.03186 188.674 4.0024 188.733C3.97293 188.792 3.95706 188.856 3.95569 188.921Z" fill="#CCCCCC"/>
<path d="M149.138 141.359C148.766 143.331 147.608 145.123 145.869 146.416C144.13 147.709 141.924 148.419 139.644 148.419C137.364 148.419 135.158 147.709 133.42 146.416C131.681 145.123 130.523 143.331 130.151 141.359H105.862V187.502H173.426V141.359H149.138Z" fill="#D6D6E3"/>
<path d="M113.719 187.331H107.041V188.364H113.719V187.331Z" fill="#B6B3C5"/>
<path d="M172.837 187.503H166.159V188.536H172.837V187.503Z" fill="#B6B3C5"/>
<path d="M173.623 183.848H106.059V185.454H173.623V183.848Z" fill="#090814"/>
<path d="M275.522 142.564H3.76658C2.76797 142.563 1.81059 142.215 1.10446 141.596C0.398333 140.977 0.00113365 140.138 0 139.262L0 3.30227C0.00104645 2.42678 0.398207 1.58742 1.10434 0.968327C1.81048 0.349239 2.76792 0.000993954 3.76658 0H275.522C276.521 0.000993813 277.478 0.349199 278.185 0.968225C278.891 1.58725 279.288 2.42654 279.289 3.30198V139.262C279.288 140.138 278.891 140.977 278.184 141.596C277.478 142.215 276.521 142.563 275.522 142.564Z" fill="#090814"/>
<path d="M272.611 5.50989H6.67719V137.055H272.611V5.50989Z" fill="white"/>
<path d="M139.894 71.0096L111.38 52.287L83.2563 70.7537L82.6122 70.001L111.38 51.1111L139.758 69.7448L167.958 42.6913L168.071 42.6508L196.517 32.6036L196.919 33.4765L168.586 43.4838L139.894 71.0096Z" fill="#D6D6E3"/>
<path d="M225.591 105.666H54.0913C53.9489 105.666 53.8124 105.616 53.7118 105.528C53.6111 105.44 53.5546 105.32 53.5546 105.195V33.1347C53.5546 33.0099 53.6111 32.8902 53.7118 32.802C53.8124 32.7138 53.9489 32.6642 54.0913 32.6642C54.2336 32.6642 54.3701 32.7138 54.4708 32.802C54.5715 32.8902 54.628 33.0099 54.628 33.1347V104.725H225.591C225.733 104.725 225.87 104.774 225.971 104.862C226.071 104.951 226.128 105.07 226.128 105.195C226.128 105.32 226.071 105.44 225.971 105.528C225.87 105.616 225.733 105.666 225.591 105.666Z" fill="#3F3D56"/>
<path d="M90.7338 100.49H75.135C74.7126 100.49 74.3076 100.342 74.0089 100.081C73.7102 99.8187 73.5422 99.4638 73.5417 99.0935V80.2428C73.5422 79.8725 73.7102 79.5176 74.0089 79.2558C74.3076 78.9939 74.7126 78.8467 75.135 78.8463H90.7334C91.1558 78.8467 91.5608 78.9939 91.8595 79.2558C92.1582 79.5176 92.3263 79.8725 92.3268 80.2428V99.0938C92.3262 99.4639 92.1581 99.8188 91.8595 100.081C91.5609 100.342 91.1561 100.49 90.7338 100.49Z" fill="#6C63FF"/>
<path d="M119.18 100.49H103.581C103.159 100.489 102.754 100.342 102.455 100.08C102.156 99.8185 101.988 99.4635 101.988 99.0932V62.3633C101.988 61.993 102.156 61.638 102.455 61.3762C102.754 61.1144 103.159 60.9672 103.581 60.9668H119.18C119.602 60.9672 120.007 61.1144 120.306 61.3762C120.604 61.638 120.772 61.993 120.773 62.3633V99.0932C120.772 99.4635 120.604 99.8185 120.306 100.08C120.007 100.342 119.602 100.489 119.18 100.49H119.18Z" fill="#6C63FF"/>
<path d="M147.626 100.49H132.027C131.604 100.49 131.199 100.342 130.901 100.081C130.602 99.8187 130.434 99.4638 130.433 99.0935V80.2428C130.434 79.8725 130.602 79.5176 130.901 79.2558C131.199 78.9939 131.604 78.8467 132.027 78.8463H147.625C148.048 78.8467 148.453 78.9939 148.751 79.2558C149.05 79.5176 149.218 79.8725 149.219 80.2428V99.0938C149.218 99.4639 149.05 99.8188 148.751 100.081C148.453 100.342 148.048 100.49 147.626 100.49Z" fill="#6C63FF"/>
<path d="M176.071 100.49H160.473C160.06 100.498 159.66 100.362 159.362 100.112C159.063 99.862 158.89 99.5185 158.879 99.1567V55.2426C158.889 54.8807 159.063 54.5371 159.362 54.2871C159.66 54.0371 160.06 53.9012 160.473 53.909H176.071C176.484 53.9012 176.883 54.0371 177.182 54.287C177.481 54.5369 177.654 54.8804 177.664 55.2423V99.1564C177.654 99.5182 177.481 99.8618 177.182 100.112C176.884 100.362 176.484 100.498 176.071 100.49Z" fill="#6C63FF"/>
<path d="M204.517 100.49H188.919C188.496 100.49 188.091 100.342 187.793 100.081C187.494 99.8187 187.326 99.4638 187.325 99.0935V42.602C187.326 42.2317 187.494 41.8767 187.793 41.6149C188.091 41.3531 188.496 41.2058 188.919 41.2054H204.517C204.94 41.2058 205.344 41.3531 205.643 41.6149C205.942 41.8767 206.11 42.2317 206.11 42.602V99.0935C206.11 99.4638 205.942 99.8187 205.643 100.081C205.344 100.342 204.94 100.49 204.517 100.49Z" fill="#6C63FF"/>
<path d="M82.8668 73.0653C84.6878 73.0653 86.1639 71.8521 86.1639 70.3557C86.1639 68.8592 84.6878 67.6461 82.8668 67.6461C81.0459 67.6461 79.5698 68.8592 79.5698 70.3557C79.5698 71.8521 81.0459 73.0653 82.8668 73.0653Z" fill="#3F3D56"/>
<path d="M111.303 55.0014C113.124 55.0014 114.6 53.7073 114.6 52.111C114.6 50.5147 113.124 49.2206 111.303 49.2206C109.482 49.2206 108.006 50.5147 108.006 52.111C108.006 53.7073 109.482 55.0014 111.303 55.0014Z" fill="#3F3D56"/>
<path d="M139.739 73.0653C141.56 73.0653 143.036 71.8521 143.036 70.3557C143.036 68.8592 141.56 67.6461 139.739 67.6461C137.918 67.6461 136.442 68.8592 136.442 70.3557C136.442 71.8521 137.918 73.0653 139.739 73.0653Z" fill="#3F3D56"/>
<path d="M168.175 45.9692C169.996 45.9692 171.473 44.6752 171.473 43.0789C171.473 41.4825 169.996 40.1885 168.175 40.1885C166.355 40.1885 164.878 41.4825 164.878 43.0789C164.878 44.6752 166.355 45.9692 168.175 45.9692Z" fill="#3F3D56"/>
<path d="M196.612 35.8544C198.433 35.8544 199.909 34.5601 199.909 32.9635C199.909 31.3668 198.433 30.0725 196.612 30.0725C194.791 30.0725 193.315 31.3668 193.315 32.9635C193.315 34.5601 194.791 35.8544 196.612 35.8544Z" fill="#3F3D56"/>
<path d="M225.554 83.1344C225.554 83.1344 220.67 82.3962 213.429 76.6388C207.7 72.085 199.972 72.9804 196.992 73.5546C196.891 73.5737 196.798 73.6197 196.727 73.6864C196.656 73.753 196.61 73.8371 196.596 73.9273C196.581 74.0175 196.598 74.1095 196.645 74.1909C196.691 74.2723 196.765 74.3393 196.857 74.3827C198.061 74.9604 199.928 75.8043 200.803 75.9005C200.803 75.9005 198.998 77.5374 200.917 78.4134C201.146 78.5123 201.403 78.5533 201.658 78.5318C201.912 78.5102 202.155 78.4271 202.359 78.2915C203.282 77.7011 205.844 79.0425 209.56 79.7389C209.56 79.7389 224.042 92.8775 227.41 90.6502L225.554 83.1344Z" fill="#FFB9B9"/>
<path d="M250.488 65.272C250.488 65.272 251.835 70.2911 250.488 73.8342L256.55 74.5722L261.939 72.2101V69.1103C261.939 69.1103 259.413 64.3864 260.086 58.9242L250.488 65.272Z" fill="#FFB9B9"/>
<path d="M267.653 174.065C267.653 174.065 272.046 181.594 271.358 186.614C270.67 191.633 277.083 187.204 276.41 184.251C276.267 187.826 278.295 171.735 279.243 167.968C279.346 167.561 279.273 167.135 279.037 166.772C278.802 166.41 278.421 166.137 277.969 166.007C275.945 165.423 272.555 164.707 270.853 165.801C268.338 167.422 267.653 174.065 267.653 174.065Z" fill="#090814"/>
<path d="M250.993 182.332C250.993 182.332 245.268 188.828 243.752 188.975C242.237 189.123 241.226 191.19 243.752 191.633C248.796 192.402 253.983 191.959 258.762 190.349C259.24 190.186 259.642 189.886 259.902 189.498C260.163 189.111 260.268 188.658 260.2 188.212L259.234 181.889L250.993 182.332Z" fill="#090814"/>
<path d="M241.563 113.394L236.071 114.036C236.825 119.658 236.803 125.34 236.005 130.958V151.177C236.005 151.177 235.899 152.958 240.116 155.547C244.539 158.243 248.801 161.135 252.885 164.213L268.166 175.818C268.166 175.818 274.228 169.322 273.386 165.484C273.386 165.484 263.282 162.679 261.935 158.103C261.163 155.484 257.245 153.289 254.039 151.909C252.022 151.051 250.402 149.614 249.446 147.836C248.491 146.059 248.257 144.049 248.785 142.139C248.972 141.476 249.262 140.838 249.645 140.243C252.34 136.109 256.213 126.809 256.213 126.809L248.803 114.428L241.563 113.394Z" fill="#090814"/>
<path d="M249.646 182.784C249.646 182.784 259.582 184.261 259.918 185.146C260.255 186.032 259.918 183.965 259.918 183.965C259.918 183.965 265.645 168.761 264.311 155.33C262.977 141.899 265.995 133.038 265.995 133.038C265.995 133.038 269.532 123 267.511 117.242C265.49 111.485 244.272 113.995 244.272 113.995C244.272 113.995 251.682 129.2 251.513 136.434C251.513 136.434 252.355 158.282 253.871 160.792C253.856 160.779 251.499 182.185 249.646 182.784Z" fill="#090814"/>
<path d="M250.814 69.1102C250.814 69.1102 251.824 74.5661 261.928 72.2103L255.207 117.085C255.207 117.085 235.672 117.675 235.841 115.609L239.868 88.449L250.814 69.1102Z" fill="white"/>
<path d="M251.078 68.9624C249.573 69.9944 247.773 70.6439 245.875 70.8398C244.199 70.9525 242.569 71.3769 241.094 72.085C239.363 72.9353 237.434 74.171 236.848 75.6761C235.669 78.6286 228.26 83.5001 224.892 82.4669L226.071 91.3244C226.071 91.3244 235.669 90.8816 237.353 87.6337L234.494 119.24H237.02C237.02 119.24 238.367 110.678 239.377 108.906C240.387 107.135 242.408 97.3917 242.577 95.0296C242.745 92.6675 245.271 79.0858 247.46 76.737L251.081 69.8725L251.078 68.9624Z" fill="#D6D6E3"/>
<path opacity="0.1" d="M259.665 63.2789C259.446 61.8798 259.885 61.0067 260.086 59.3669L250.488 65.7147C250.488 65.7147 250.718 66.5717 250.894 67.8264C251.378 67.895 251.868 67.9294 252.358 67.9292C255.69 67.9292 258.087 65.6474 259.665 63.2789Z" fill="black"/>
<path d="M252.34 67.4895C257.363 67.4895 261.434 63.9204 261.434 59.5177C261.434 55.1149 257.363 51.5458 252.34 51.5458C247.318 51.5458 243.247 55.1149 243.247 59.5177C243.247 63.9204 247.318 67.4895 252.34 67.4895Z" fill="#FFB9B9"/>
<path d="M243.201 52.7295C243.147 51.489 243.377 50.2516 243.877 49.0901C243.738 49.2729 243.679 49.4934 243.712 49.7111C243.744 49.9287 243.865 50.1288 244.052 50.2744C244.323 49.0081 245.065 47.8561 246.161 46.9984C245.563 47.085 245.256 47.7329 245.403 48.2485C245.605 48.7518 245.965 49.1953 246.44 49.528C246.39 48.7481 246.978 48.0203 247.721 47.5928C248.496 47.2028 249.342 46.9342 250.221 46.7991C249.92 46.8929 249.662 47.0717 249.489 47.3074C249.315 47.5432 249.235 47.8227 249.262 48.1023C249.264 48.1973 249.309 48.2877 249.387 48.3542C249.471 48.4016 249.57 48.4244 249.671 48.4194C250.546 48.449 251.423 48.4323 252.296 48.3692C253.369 48.2633 254.449 48.2128 255.529 48.2181C258.908 48.3426 262.304 50.3656 263.061 53.2537C263.218 53.9544 263.3 54.6663 263.308 55.3804L263.472 59.0267C263.569 60.0904 263.519 61.1604 263.324 62.2137C263.09 63.1861 262.614 64.1013 261.93 64.8939C261.246 65.6865 260.371 66.337 259.367 66.799C258.148 65.2499 258.039 63.2593 257.617 61.4139C257.55 60.9883 257.37 60.5825 257.09 60.2297C256.945 60.0552 256.742 59.9244 256.509 59.8554C256.276 59.7864 256.025 59.7827 255.789 59.8447C255.333 60.0047 255.137 60.6147 255.515 60.8874C255.177 61.2369 254.546 60.9763 254.164 60.6652C253.098 59.7785 252.364 58.6289 252.059 57.3685C251.907 56.7345 251.755 55.9532 251.046 55.7362C250.802 55.6775 250.546 55.6623 250.296 55.6918C248.816 55.7807 246.501 56.3168 245.068 55.9049C243.754 55.526 243.201 53.8227 243.201 52.7295Z" fill="#090814"/>
<path d="M224.822 82.4701C224.822 82.4701 223.475 87.9259 226.001 91.3275L227.432 91.2247L226.652 82.5596L224.822 82.4701Z" fill="#D6D6E3"/>
<path d="M261.35 67.5728L272.211 75.7659C272.211 75.7659 278.61 81.5236 275.916 90.8241C275.916 90.8241 274.737 104.406 273.39 104.996C273.39 104.996 268.675 113.263 268.338 121.087C268.338 121.087 261.686 109.351 258.82 116.142C255.954 122.933 249.642 124.485 249.642 124.485L253.347 84.3345C253.347 84.3345 262.697 70.0695 261.35 67.5728Z" fill="#D6D6E3"/>
<path d="M266.317 102.178C266.317 102.178 269.012 100.554 273.39 104.983L262.612 122.108L258.992 117.316C258.992 117.316 266.656 104.097 266.317 102.178Z" fill="#FFB9B9"/>
<path d="M263.707 102.843C263.707 102.843 269.667 108.709 271.991 107.769L274.144 103.375L266.064 100.333L263.707 102.843Z" fill="#D6D6E3"/>
<path opacity="0.1" d="M264.549 84.8322C264.549 84.8322 264.886 95.4613 263.539 99.4473L264.549 84.8322Z" fill="black"/>
<path opacity="0.1" d="M237.268 86.8988C237.268 86.8988 239.289 86.3084 239.289 84.8322L237.268 86.8988Z" fill="black"/>
</svg>
