<svg width="34" height="34" viewBox="0 0 34 34" fill="none" xmlns="http://www.w3.org/2000/svg">
<g clip-path="url(#clip0_8_811)">
<path fill-rule="evenodd" clip-rule="evenodd" d="M28.3333 4.25H5.66665C4.10831 4.25 2.83331 5.525 2.83331 7.08333V26.9167C2.83331 28.475 4.10831 29.75 5.66665 29.75H28.3333C29.8916 29.75 31.1666 28.475 31.1666 26.9167V7.08333C31.1666 5.525 29.8916 4.25 28.3333 4.25ZM28.3333 26.9167H5.66665V7.08333H28.3333V26.9167Z" fill="#323232"/>
<path fill-rule="evenodd" clip-rule="evenodd" d="M27.4975 14.7617L25.4858 12.75L20.995 17.2408L18.9975 15.2292L17 17.2267L20.995 21.25L27.4975 14.7617Z" fill="#323232"/>
<path d="M14.1666 9.91663H7.08331V12.75H14.1666V9.91663Z" fill="#323232"/>
<path d="M14.1666 15.5834H7.08331V18.4167H14.1666V15.5834Z" fill="#323232"/>
<path d="M14.1666 21.25H7.08331V24.0833H14.1666V21.25Z" fill="#323232"/>
</g>
<defs>
<clipPath id="clip0_8_811">
<rect width="34" height="34" fill="white"/>
</clipPath>
</defs>
</svg>
