<svg width="39" height="39" viewBox="0 0 39 39" fill="none" xmlns="http://www.w3.org/2000/svg">
<path d="M22.75 14.625H16.25C15.3562 14.625 14.625 15.3562 14.625 16.25V22.75C14.625 23.6437 15.3562 24.375 16.25 24.375H22.75C23.6437 24.375 24.375 23.6437 24.375 22.75V16.25C24.375 15.3562 23.6437 14.625 22.75 14.625ZM21.125 21.125H17.875V17.875H21.125V21.125ZM34.125 16.25C34.125 15.3562 33.3937 14.625 32.5 14.625H30.875V11.375C30.875 9.5875 29.4125 8.125 27.625 8.125H24.375V6.5C24.375 5.60625 23.6437 4.875 22.75 4.875C21.8563 4.875 21.125 5.60625 21.125 6.5V8.125H17.875V6.5C17.875 5.60625 17.1438 4.875 16.25 4.875C15.3562 4.875 14.625 5.60625 14.625 6.5V8.125H11.375C9.5875 8.125 8.125 9.5875 8.125 11.375V14.625H6.5C5.60625 14.625 4.875 15.3562 4.875 16.25C4.875 17.1438 5.60625 17.875 6.5 17.875H8.125V21.125H6.5C5.60625 21.125 4.875 21.8563 4.875 22.75C4.875 23.6437 5.60625 24.375 6.5 24.375H8.125V27.625C8.125 29.4125 9.5875 30.875 11.375 30.875H14.625V32.5C14.625 33.3937 15.3562 34.125 16.25 34.125C17.1438 34.125 17.875 33.3937 17.875 32.5V30.875H21.125V32.5C21.125 33.3937 21.8563 34.125 22.75 34.125C23.6437 34.125 24.375 33.3937 24.375 32.5V30.875H27.625C29.4125 30.875 30.875 29.4125 30.875 27.625V24.375H32.5C33.3937 24.375 34.125 23.6437 34.125 22.75C34.125 21.8563 33.3937 21.125 32.5 21.125H30.875V17.875H32.5C33.3937 17.875 34.125 17.1438 34.125 16.25ZM26 27.625H13C12.1062 27.625 11.375 26.8937 11.375 26V13C11.375 12.1062 12.1062 11.375 13 11.375H26C26.8937 11.375 27.625 12.1062 27.625 13V26C27.625 26.8937 26.8937 27.625 26 27.625Z" fill="#323232"/>
</svg>
