<svg width="298" height="149" viewBox="0 0 298 149" fill="none" xmlns="http://www.w3.org/2000/svg">
<g clip-path="url(#clip0_8_828)">
<path d="M239.141 26.0982L240.097 18.4509C240.265 17.1048 240.697 15.8048 241.368 14.6253C242.039 13.4457 242.937 12.4097 244.01 11.5764C245.082 10.7432 246.309 10.1289 247.619 9.76883C248.93 9.40873 250.299 9.30982 251.648 9.47776C252.996 9.64569 254.299 10.0772 255.481 10.7476C256.662 11.4179 257.7 12.3141 258.535 13.3848C259.369 14.4556 259.984 15.6799 260.345 16.9878C260.705 18.2958 260.803 19.6618 260.635 21.0078L259.679 28.6551C259.632 29.02 259.443 29.3518 259.152 29.5777C258.862 29.8035 258.493 29.905 258.127 29.8599L240.349 27.6465C239.983 27.6005 239.65 27.4117 239.424 27.1215C239.198 26.8312 239.096 26.4632 239.141 26.0982Z" fill="#2F2E41"/>
<path d="M247.657 28.3797C251.848 28.3797 255.244 24.99 255.244 20.8085C255.244 16.627 251.848 13.2372 247.657 13.2372C243.467 13.2372 240.07 16.627 240.07 20.8085C240.07 24.99 243.467 28.3797 247.657 28.3797Z" fill="#FFB8B8"/>
<path d="M237.591 18.7603C237.863 16.6114 238.977 14.6577 240.69 13.3276C242.402 11.9975 244.574 11.3997 246.728 11.6654L248.261 11.8563C250.414 12.1268 252.372 13.2387 253.705 14.948C255.037 16.6572 255.636 18.8243 255.37 20.9737L255.351 21.1267L252.112 20.7234L251.393 17.4989L250.786 20.5584L249.112 20.35L248.75 18.723L248.444 20.2667L237.572 18.9132L237.591 18.7603Z" fill="#2F2E41"/>
<path d="M210.55 47.8166C210.782 48.2709 211.11 48.669 211.513 48.9827C211.916 49.2965 212.383 49.5183 212.881 49.6326C213.379 49.7469 213.896 49.7508 214.395 49.6441C214.895 49.5374 215.365 49.3227 215.772 49.0151L222.663 53.0435L226.138 49.4616L216.326 43.9091C215.763 43.2602 214.981 42.8401 214.128 42.7283C213.275 42.6164 212.411 42.8207 211.699 43.3023C210.987 43.784 210.477 44.5096 210.265 45.3416C210.053 46.1736 210.154 47.0542 210.55 47.8166Z" fill="#FFB8B8"/>
<path d="M233.135 55.0551C228.052 55.0551 219.107 52.7844 218.612 52.6575L218.456 52.6176L219.863 45.5048L233.525 48.1976L240.947 37.7677L249.468 36.9032L249.231 37.2156C249.12 37.3611 238.136 51.7907 236.426 54.2113C235.995 54.822 234.763 55.0551 233.135 55.0551Z" fill="#3F3D56"/>
<path d="M234.498 81.751L234.294 81.6541C234.251 81.6334 229.932 79.5372 227.696 75.4449C225.469 71.372 235.891 54.0945 236.62 52.8957L236.63 47.4088L240.379 37.3082L245.16 34.6116L241.055 44.1695L234.498 81.751Z" fill="#3F3D56"/>
<path d="M229.708 140.724L225.139 140.723L222.965 123.135L229.709 123.136L229.708 140.724Z" fill="#FFB8B8"/>
<path d="M230.873 145.144L216.14 145.143V144.957C216.14 143.439 216.744 141.984 217.82 140.911C218.895 139.838 220.354 139.235 221.874 139.234H221.875L230.873 139.235L230.873 145.144Z" fill="#2F2E41"/>
<path d="M278.788 136.728L274.446 138.147L266.892 122.109L273.301 120.014L278.788 136.728Z" fill="#FFB8B8"/>
<path d="M281.274 140.566L267.273 145.144L267.215 144.967C266.742 143.525 266.862 141.954 267.549 140.6C268.236 139.246 269.434 138.219 270.879 137.747L270.88 137.747L279.431 134.951L281.274 140.566Z" fill="#2F2E41"/>
<path d="M269.941 133.852L256.915 112.151L245.919 88.9658L236.024 109.446L232.093 135.971L218.308 136.162L218.362 135.947L239.458 52.298L255.98 54.7612L255.228 65.6443L255.676 66.28C259.408 71.5711 263.267 77.0417 261.054 82.9388L267.328 101.531L281.217 132.488L269.941 133.852Z" fill="#2F2E41"/>
<path d="M240.213 70.4272C237.819 70.4272 235.087 67.6993 236.504 63.0419L236.413 62.9756L239.816 47.9692C236.846 43.7301 240.762 40.2316 241.129 39.9191L242.998 36.5613L251.246 31.3413L255.419 65.9434L255.358 66.0023C252.344 68.8801 242.221 70.4272 240.213 70.4272Z" fill="#6C63FF"/>
<path d="M257.104 78.235C256.776 78.2401 256.449 78.2056 256.13 78.1321C255.809 78.0519 255.29 77.6443 254.487 75.0369C251.297 64.6715 247.531 33.4833 250.267 30.4313L250.33 30.3614L254.823 31.1086C255.196 30.8336 257.156 29.4683 258.965 29.7057C259.337 29.7524 259.696 29.8749 260.019 30.0654C260.342 30.256 260.622 30.5106 260.843 30.8136L260.874 30.854L262.305 51.1753L267.549 75.0895L267.423 75.1464C267.118 75.285 260.57 78.235 257.104 78.235Z" fill="#3F3D56"/>
<path d="M254.083 70.2925C254.593 70.2755 255.094 70.147 255.549 69.916C256.005 69.685 256.404 69.3571 256.719 68.9555C257.034 68.5539 257.256 68.0883 257.371 67.5915C257.486 67.0947 257.491 66.5788 257.384 66.0801L263.961 61.5594L262.183 56.9006L252.985 63.415C252.157 63.649 251.444 64.1778 250.981 64.9012C250.518 65.6247 250.337 66.4925 250.473 67.3403C250.608 68.188 251.05 68.9568 251.715 69.5009C252.381 70.045 253.223 70.3267 254.083 70.2925Z" fill="#FFB8B8"/>
<path d="M261.791 65.1817L255.933 60.8943L264.168 49.6878L257.848 38.5584L260.675 30.4901L260.858 30.8376C260.943 30.9994 269.383 47.044 270.855 49.6152C272.387 52.2899 262.323 64.5374 261.894 65.0572L261.791 65.1817Z" fill="#3F3D56"/>
<path d="M204.268 89.0756L96.6183 92.7169C93.9576 92.8039 91.371 91.8341 89.4259 90.0203C87.4808 88.2065 86.3361 85.6969 86.2429 83.0419L84.4701 30.8456C84.3829 28.1904 85.3547 25.6092 87.1722 23.6681C88.9897 21.7271 91.5046 20.5848 94.1651 20.4918L201.815 16.8505C204.476 16.7635 207.062 17.7333 209.007 19.547C210.953 21.3608 212.097 23.8705 212.19 26.5254L213.963 78.7218C214.05 81.3769 213.079 83.9582 211.261 85.8992C209.444 87.8403 206.929 88.9826 204.268 89.0756Z" fill="white"/>
<path d="M213.963 78.7218L213.973 78.998C214.058 81.5344 213.131 84.001 211.394 85.8551C209.658 87.7092 207.254 88.7988 204.712 88.8844L96.5241 92.5439C93.9829 92.6296 91.5116 91.7045 89.6537 89.9721C87.7959 88.2396 86.7037 85.8417 86.6173 83.3058L86.6079 83.0296L213.963 78.7218Z" fill="#F2F2F2"/>
<path d="M107.689 36.7441C99.9366 38.9356 92.7142 33.1704 91.2996 27.6433L91.8407 27.5277C98.381 25.8512 105.897 30.3031 107.689 36.7441Z" fill="#6C63FF"/>
<path d="M184.34 74.0577C182.594 74.1168 181.187 73.6454 180.159 72.6566C177.836 70.4215 177.825 65.9624 177.817 62.3794C177.814 61.337 177.812 60.3524 177.753 59.5296L177.752 59.5171C177.705 57.9072 178.297 56.3438 179.399 55.1667C180.5 53.9896 182.023 53.2938 183.635 53.2305L198.115 52.7408C199.86 52.6818 201.265 53.1524 202.292 54.1399C204.615 56.3731 204.627 60.8311 204.637 64.4132C204.64 65.4577 204.643 66.4445 204.703 67.2687C204.752 68.881 204.161 70.4474 203.059 71.6271C201.956 72.8068 200.432 73.5044 198.817 73.568L184.34 74.0577ZM178.36 59.4923C178.42 60.3348 178.423 61.3273 178.425 62.378C178.434 65.8463 178.444 70.1629 180.582 72.2194C181.499 73.102 182.722 73.5048 184.32 73.4508L198.795 72.9612C200.247 72.9043 201.619 72.2779 202.611 71.218C203.604 70.158 204.137 68.7501 204.095 67.3001C204.034 66.4673 204.031 65.4704 204.028 64.4148C204.019 60.9473 204.007 56.6319 201.87 54.5773C200.953 53.696 199.731 53.2937 198.136 53.3477L183.657 53.8375C182.206 53.8947 180.836 54.5204 179.844 55.579C178.853 56.6376 178.319 58.0437 178.36 59.4923Z" fill="#3F3D56"/>
<path d="M104.509 37.4108C101.97 37.4813 99.4616 36.8394 97.2695 35.5579C94.0593 33.7147 91.5794 30.6726 90.7975 27.6192L90.7191 27.3132L91.5636 27.1327C98.2016 25.4334 105.927 29.9244 107.775 36.5605L107.856 36.8515L107.565 36.9339C106.57 37.2158 105.544 37.3759 104.509 37.4108ZM91.4711 27.7735C92.2967 30.5709 94.6077 33.3288 97.573 35.0315C100.442 36.7298 103.866 37.2321 107.103 36.4296C105.195 30.2533 97.9472 26.1191 91.7092 27.7225L91.4711 27.7735Z" fill="#3F3D56"/>
<path d="M97.2444 72.1828C96.3296 72.2477 95.4143 72.0627 94.5968 71.6478C93.7793 71.2329 93.0905 70.6037 92.6042 69.8276C92.0403 68.9027 91.7246 67.8484 91.6875 66.7664C91.6504 65.6843 91.8932 64.611 92.3925 63.6498C92.8342 62.8265 93.4957 62.1413 94.3037 61.6702C95.1116 61.1991 96.0345 60.9604 96.9701 60.9806L116.263 60.328C117.195 60.247 118.13 60.4242 118.967 60.8401C119.804 61.256 120.51 61.8945 121.006 62.6851C121.57 63.6102 121.885 64.6644 121.922 65.7463C121.958 66.8282 121.715 67.9013 121.216 68.8622C120.307 70.5414 118.681 71.4768 116.639 71.526L97.3455 72.1787C97.3117 72.1802 97.278 72.1816 97.2444 72.1828ZM96.8959 61.59C96.0832 61.5847 95.2844 61.8005 94.5853 62.2142C93.8862 62.6278 93.3133 63.2238 92.9281 63.938C92.4784 64.8039 92.2596 65.7709 92.2931 66.7457C92.3265 67.7205 92.611 68.6703 93.119 69.5036C93.5596 70.2019 94.1854 70.7648 94.9269 71.1299C95.6685 71.495 96.4969 71.6479 97.3203 71.5719L116.623 70.919C117.45 70.9397 118.267 70.7316 118.983 70.3177C119.699 69.9038 120.287 69.3002 120.68 68.5737C121.13 67.708 121.349 66.7413 121.316 65.7666C121.283 64.7919 120.999 63.8421 120.491 63.0087C120.05 62.3106 119.424 61.7476 118.682 61.3816C117.94 61.0157 117.112 60.8611 116.288 60.9348L96.9843 61.5877C96.9549 61.5883 96.9252 61.589 96.8959 61.59Z" fill="#3F3D56"/>
<path d="M188.829 60.2797L182.747 60.4854C182.344 60.4985 181.953 60.3515 181.658 60.0766C181.364 59.8018 181.191 59.4215 181.177 59.0194C181.163 58.6173 181.31 58.2263 181.585 57.9322C181.86 57.638 182.241 57.4649 182.644 57.4507L188.726 57.245C189.129 57.2314 189.521 57.3782 189.816 57.6531C190.111 57.928 190.284 58.3085 190.298 58.7109C190.312 59.1134 190.165 59.5047 189.889 59.7989C189.614 60.0931 189.232 60.266 188.829 60.2797Z" fill="#6C63FF"/>
<path d="M188.994 65.1351L182.912 65.3408C182.712 65.3479 182.513 65.3155 182.326 65.2457C182.138 65.1758 181.967 65.0697 181.82 64.9336C181.674 64.7975 181.556 64.6339 181.474 64.4522C181.391 64.2706 181.345 64.0744 181.338 63.875C181.331 63.6755 181.364 63.4767 181.434 63.2899C181.504 63.1031 181.611 62.9319 181.747 62.7862C181.884 62.6405 182.048 62.5231 182.23 62.4407C182.412 62.3584 182.609 62.3126 182.809 62.3062L188.891 62.1004C189.091 62.0934 189.29 62.1257 189.477 62.1956C189.665 62.2655 189.836 62.3715 189.983 62.5077C190.129 62.6438 190.247 62.8074 190.329 62.989C190.412 63.1707 190.458 63.3668 190.465 63.5663C190.472 63.7657 190.439 63.9645 190.369 64.1514C190.299 64.3382 190.192 64.5093 190.056 64.6551C189.919 64.8008 189.755 64.9182 189.573 65.0005C189.39 65.0829 189.194 65.1286 188.994 65.1351Z" fill="#6C63FF"/>
<path d="M189.159 69.9906L183.077 70.1963C182.674 70.21 182.282 70.0632 181.987 69.7883C181.692 69.5134 181.519 69.1329 181.505 68.7304C181.491 68.328 181.638 67.9367 181.914 67.6425C182.189 67.3483 182.571 67.1753 182.974 67.1617L189.056 66.9559C189.256 66.9492 189.455 66.9818 189.642 67.0518C189.829 67.1218 190 67.2279 190.146 67.364C190.292 67.5001 190.41 67.6636 190.492 67.8451C190.575 68.0266 190.621 68.2226 190.628 68.4219C190.635 68.6211 190.602 68.8198 190.532 69.0064C190.462 69.1931 190.355 69.3642 190.219 69.5098C190.083 69.6555 189.919 69.7729 189.737 69.8554C189.555 69.9379 189.359 69.9839 189.159 69.9906Z" fill="#6C63FF"/>
<path d="M199.472 59.9196L193.39 60.1253C193.191 60.1323 192.991 60.1 192.804 60.0301C192.617 59.9603 192.445 59.8542 192.299 59.7181C192.153 59.5819 192.035 59.4183 191.952 59.2367C191.869 59.055 191.823 58.8589 191.816 58.6594C191.809 58.46 191.842 58.2612 191.912 58.0744C191.983 57.8875 192.089 57.7164 192.226 57.5707C192.363 57.425 192.527 57.3076 192.709 57.2252C192.891 57.1428 193.088 57.0971 193.287 57.0906L199.369 56.8849C199.569 56.8782 199.768 56.9107 199.955 56.9807C200.142 57.0507 200.314 57.1568 200.46 57.293C200.606 57.4291 200.723 57.5926 200.806 57.7741C200.889 57.9556 200.935 58.1515 200.941 58.3508C200.948 58.5501 200.915 58.7487 200.845 58.9354C200.775 59.1221 200.669 59.2931 200.532 59.4388C200.396 59.5845 200.232 59.7019 200.05 59.7844C199.868 59.8669 199.672 59.9128 199.472 59.9196Z" fill="#6C63FF"/>
<path d="M199.637 64.7751L193.555 64.9808C193.152 64.9945 192.76 64.8477 192.465 64.5728C192.17 64.2979 191.997 63.9173 191.983 63.5149C191.97 63.1125 192.117 62.7211 192.392 62.4269C192.668 62.1327 193.049 61.9598 193.452 61.9462L199.534 61.7404C199.734 61.7334 199.933 61.7657 200.121 61.8356C200.308 61.9055 200.48 62.0115 200.626 62.1477C200.772 62.2838 200.89 62.4474 200.973 62.629C201.056 62.8107 201.102 63.0068 201.109 63.2063C201.115 63.4057 201.083 63.6045 201.012 63.7914C200.942 63.9782 200.836 64.1494 200.699 64.2951C200.562 64.4408 200.398 64.5582 200.216 64.6406C200.034 64.7229 199.837 64.7686 199.637 64.7751Z" fill="#6C63FF"/>
<path d="M199.802 69.6306L193.72 69.8363C193.521 69.8434 193.321 69.811 193.134 69.7412C192.947 69.6713 192.775 69.5652 192.629 69.4291C192.483 69.293 192.365 69.1294 192.282 68.9478C192.199 68.7661 192.153 68.57 192.146 68.3705C192.139 68.1711 192.172 67.9723 192.242 67.7854C192.313 67.5986 192.419 67.4275 192.556 67.2817C192.692 67.136 192.857 67.0186 193.039 66.9363C193.221 66.8539 193.417 66.8082 193.617 66.8017L199.699 66.596C199.899 66.5892 200.098 66.6218 200.285 66.6918C200.472 66.7618 200.643 66.8679 200.789 67.004C200.935 67.1401 201.053 67.3036 201.136 67.4851C201.218 67.6666 201.264 67.8626 201.271 68.0619C201.278 68.2611 201.245 68.4598 201.175 68.6464C201.105 68.8331 200.999 69.0042 200.862 69.1498C200.726 69.2955 200.562 69.4129 200.38 69.4954C200.198 69.5779 200.002 69.6239 199.802 69.6306Z" fill="#6C63FF"/>
<path d="M212.577 37.888L85.2216 42.1959L85.2422 42.8029L212.598 38.495L212.577 37.888Z" fill="#3F3D56"/>
<path d="M204.268 89.0756L96.6183 92.7169C93.9576 92.8039 91.371 91.8341 89.4259 90.0203C87.4808 88.2065 86.3361 85.6969 86.2429 83.0419L84.4701 30.8456C84.3829 28.1904 85.3547 25.6092 87.1722 23.6681C88.9897 21.7271 91.5046 20.5848 94.1651 20.4918L201.815 16.8505C204.476 16.7635 207.062 17.7333 209.007 19.547C210.953 21.3608 212.097 23.8705 212.19 26.5254L213.963 78.7218C214.05 81.3769 213.079 83.9582 211.261 85.8992C209.444 87.8403 206.929 88.9826 204.268 89.0756ZM94.1857 21.0987C91.6865 21.186 89.324 22.2591 87.6167 24.0825C85.9093 25.906 84.9964 28.3308 85.0783 30.825L86.8511 83.0213C86.9387 85.5154 88.014 87.8729 89.8412 89.5768C91.6684 91.2806 94.0982 92.1916 96.5977 92.1099L204.248 88.4687C206.747 88.3813 209.109 87.3082 210.817 85.4848C212.524 83.6614 213.437 81.2365 213.355 78.7423L211.582 26.546C211.495 24.052 210.419 21.6944 208.592 19.9905C206.765 18.2867 204.335 17.3757 201.836 17.4574L94.1857 21.0987Z" fill="#3F3D56"/>
<path d="M50.0298 76.1611C50.0045 75.6272 49.8621 75.1054 49.6128 74.6323C49.3635 74.1593 49.0133 73.7465 48.5869 73.4232C48.1604 73.0998 47.6681 72.8737 47.1446 72.7607C46.6211 72.6477 46.0792 72.6507 45.557 72.7694L40.7122 65.9558L35.8449 67.884L42.8222 77.4102C43.0801 78.2724 43.646 79.0104 44.4127 79.4841C45.1793 79.9578 46.0935 80.1344 46.982 79.9805C47.8704 79.8265 48.6714 79.3527 49.2331 78.6487C49.7949 77.9448 50.0783 77.0597 50.0298 76.1611Z" fill="#A0616A"/>
<path d="M40.5875 75.6562L25.9279 56.6776L31.4207 39.4503C31.8232 35.1191 34.5391 33.9097 34.6547 33.8603L34.8309 33.7848L39.6107 46.5048L36.1013 55.8441L44.7152 70.3015L40.5875 75.6562Z" fill="#3F3D56"/>
<path d="M91.4979 17.1516C90.9665 17.2181 90.4561 17.4001 90.0028 17.6847C89.5495 17.9693 89.1642 18.3496 88.8741 18.7989C88.584 19.2482 88.3961 19.7555 88.3237 20.2851C88.2513 20.8147 88.2962 21.3537 88.4551 21.8641L82.0225 27.2112L84.3252 31.9047L93.3031 24.2263C94.1446 23.903 94.8381 23.2829 95.2521 22.4835C95.6661 21.684 95.7719 20.7608 95.5493 19.8888C95.3268 19.0167 94.7915 18.2565 94.0448 17.752C93.2981 17.2475 92.3919 17.0339 91.4979 17.1516Z" fill="#A0616A"/>
<path d="M91.7235 26.5853L73.8959 42.6381L56.2599 38.505C51.9016 38.4394 50.4833 35.8307 50.425 35.7196L50.3359 35.55L62.6747 29.811L72.2766 32.5806L86.0546 22.8925L91.7235 26.5853Z" fill="#3F3D56"/>
<path d="M60.8435 140.705H65.6334L67.9119 122.268L60.8424 122.268L60.8435 140.705Z" fill="#A0616A"/>
<path d="M74.8712 145.143L59.8172 145.144L59.8169 139.339L69.7146 139.339C71.0822 139.339 72.3937 139.881 73.3607 140.846C74.3278 141.811 74.8711 143.12 74.8711 144.484L74.8712 145.143Z" fill="#2F2E41"/>
<path d="M41.6992 140.705H46.4891L48.7676 122.268L41.6981 122.268L41.6992 140.705Z" fill="#A0616A"/>
<path d="M55.7268 145.143L40.6728 145.144L40.6725 139.339L50.5703 139.339C51.2474 139.339 51.9179 139.472 52.5435 139.73C53.1691 139.989 53.7375 140.368 54.2163 140.846C54.6952 141.324 55.075 141.891 55.3342 142.515C55.5933 143.139 55.7267 143.809 55.7267 144.484L55.7268 145.143Z" fill="#2F2E41"/>
<path d="M39.9955 73.4075L40.3863 100.7L40.7767 136.57L49.3723 135.79L53.6699 86.274L59.1399 135.79H68.0138L68.9074 85.8841L65.7817 74.9669L39.9955 73.4075Z" fill="#2F2E41"/>
<path d="M56.8188 77.0723C47.4665 77.0731 38.8577 72.8489 38.7415 72.7909L38.645 72.7427L37.8601 53.9467C37.6326 53.2825 33.1511 40.1761 32.3921 36.0103C31.623 31.7898 42.7684 28.0857 44.1218 27.6525L44.4289 24.2572L56.9186 22.9142L58.5016 27.2586L62.9824 28.9352C63.4904 29.1255 63.9108 29.4951 64.1639 29.9739C64.4171 30.4528 64.4854 31.0078 64.356 31.5336L61.8657 41.64L67.9479 75.0768L66.6385 75.1334C63.5402 76.4677 60.1928 77.1287 56.8188 77.0723Z" fill="#3F3D56"/>
<path d="M51.1633 20.7643C56.1298 20.7643 60.1559 16.7464 60.1559 11.7902C60.1559 6.83398 56.1298 2.81616 51.1633 2.81616C46.1967 2.81616 42.1706 6.83398 42.1706 11.7902C42.1706 16.7464 46.1967 20.7643 51.1633 20.7643Z" fill="#A0616A"/>
<path d="M43.8792 20.4774C45.593 22.2992 48.7757 21.3212 48.999 18.8324C49.0166 18.6392 49.0153 18.4447 48.9952 18.2517C48.8799 17.1493 48.2417 16.1484 48.3946 14.9844C48.4292 14.6947 48.5374 14.4186 48.7088 14.1823C50.0745 12.3574 53.2803 14.9986 54.5692 13.3465C55.3595 12.3335 54.4305 10.7385 55.037 9.6063C55.8374 8.11195 58.2083 8.84911 59.695 8.03073C61.3493 7.12018 61.2503 4.58737 60.1614 3.04679C58.8334 1.16797 56.505 0.165443 54.2056 0.0209611C51.9062 -0.123521 49.6227 0.496769 47.476 1.33163C45.0369 2.28019 42.6182 3.59112 41.1173 5.73136C39.2919 8.33413 39.1163 11.8333 40.0292 14.8767C40.5845 16.7281 42.4797 18.9897 43.8792 20.4774Z" fill="#2F2E41"/>
<path d="M297.635 145.631H0.365196C0.26834 145.631 0.175451 145.592 0.106963 145.524C0.0384756 145.456 0 145.363 0 145.266C0 145.17 0.0384756 145.077 0.106963 145.009C0.175451 144.94 0.26834 144.902 0.365196 144.902H297.635C297.732 144.902 297.825 144.94 297.893 145.009C297.962 145.077 298 145.17 298 145.266C298 145.363 297.962 145.456 297.893 145.524C297.825 145.592 297.732 145.631 297.635 145.631Z" fill="#CACACA"/>
<path d="M167.492 111.551C167.492 111.551 171.113 121.36 170.596 125.49C170.078 129.62 174.217 158.532 173.7 161.113C173.182 163.694 174.217 176.601 173.7 178.666C173.182 180.731 175.152 183.198 174.117 185.263C173.082 187.328 171.63 191.573 171.63 191.573L164.905 191.057L163.87 185.378C163.87 185.378 160.766 184.861 161.284 181.764C161.801 178.666 158.697 158.015 158.697 158.015L149.902 129.104L137.486 155.434C137.486 155.434 136.969 174.02 135.417 176.085C133.865 178.15 136.969 183.829 135.417 185.894C133.865 187.959 132.313 191.573 132.313 191.573H124.552V187.443C124.552 187.443 119.896 184.861 124.552 177.117L127.699 130.611L130.803 109.444L167.492 111.551Z" fill="#2F2E41"/>
<path d="M148.206 46.635C153.543 46.635 157.869 42.3179 157.869 36.9924C157.869 31.6669 153.543 27.3497 148.206 27.3497C142.87 27.3497 138.543 31.6669 138.543 36.9924C138.543 42.3179 142.87 46.635 148.206 46.635Z" fill="#FFB8B8"/>
<path d="M156.429 36.3271C155.747 38.0655 155.065 39.804 154.383 41.5424C153.545 43.6795 152.585 45.966 150.62 47.1587C148.194 48.6313 144.955 47.9132 142.608 46.3181C140.498 44.8833 138.877 42.8384 137.965 40.458C137.053 38.0775 136.893 35.4756 137.506 33.0016C138.119 30.5276 139.476 28.3001 141.395 26.6183C143.314 24.9365 145.702 23.8808 148.24 23.5932L148.337 25.3388L150.483 23.5433C150.642 23.8152 150.86 24.0475 151.122 24.2231C151.384 24.3986 151.682 24.5126 151.994 24.5567C152.306 24.6007 152.624 24.5736 152.924 24.4774C153.224 24.3812 153.499 24.2183 153.727 24.0011C153.163 25.1674 153.814 26.5899 154.754 27.4834C155.908 28.5809 159.21 29.9 159.073 31.8621C158.982 33.1715 156.961 34.9702 156.429 36.3271Z" fill="#2F2E41"/>
<path d="M121.608 125.815C121.275 125.319 121.055 124.756 120.964 124.166C120.872 123.577 120.911 122.974 121.078 122.401C121.246 121.828 121.537 121.298 121.931 120.849C122.326 120.401 122.814 120.044 123.361 119.804L123.168 110.475L128.82 108.976L128.907 122.153C129.251 123.098 129.234 124.135 128.862 125.069C128.49 126.003 127.787 126.768 126.888 127.219C125.988 127.671 124.954 127.777 123.981 127.518C123.007 127.259 122.163 126.653 121.608 125.815Z" fill="#FFB8B8"/>
<path d="M141.028 52.5946C141.028 52.5946 148.516 48.8585 155.588 51.3492C162.66 53.84 166.404 56.7459 166.404 56.7459L161.828 80.8233L168.067 113.203C168.067 113.203 136.036 110.712 133.125 113.203C130.213 115.694 130.213 110.297 130.213 110.297L132.709 79.5779L128.133 60.0669L141.028 52.5946Z" fill="#3F3D56"/>
<path d="M172.632 126.367C172.172 125.985 171.803 125.506 171.549 124.966C171.295 124.425 171.163 123.836 171.163 123.239C171.162 122.642 171.292 122.052 171.545 121.511C171.797 120.97 172.165 120.49 172.623 120.106L169.813 111.208L174.816 108.185L178.607 120.807C179.202 121.618 179.479 122.618 179.384 123.619C179.289 124.619 178.83 125.55 178.094 126.236C177.357 126.921 176.394 127.313 175.388 127.337C174.381 127.361 173.4 127.016 172.632 126.367Z" fill="#FFB8B8"/>
<path d="M163.492 56.7458H166.404C166.404 56.7458 170.979 59.6517 170.979 63.803C170.979 67.9543 177.635 116.524 177.635 116.524L170.563 117.77L164.324 83.7291L159.748 74.5963L163.492 56.7458Z" fill="#3F3D56"/>
<path d="M136.036 60.0669H128.133C128.133 60.0669 125.637 62.5577 124.389 68.3694C123.141 74.1812 121.893 97.0132 121.893 97.0132L122.725 117.77H128.965L129.797 90.7863L133.957 73.351L136.036 60.0669Z" fill="#3F3D56"/>
</g>
<defs>
<clipPath id="clip0_8_828">
<rect width="298" height="149" fill="white"/>
</clipPath>
</defs>
</svg>
