<svg width="206" height="138" viewBox="0 0 206 138" fill="none" xmlns="http://www.w3.org/2000/svg">
<g clip-path="url(#clip0_98_12)">
<path d="M72.7196 12.4472C72.5302 12.4825 72.3514 12.5604 72.1965 12.6751C72.0302 12.7983 71.8864 12.9494 71.7717 13.1217C71.647 13.3068 71.5505 13.5094 71.4853 13.7228C71.4156 13.9472 71.3798 14.1807 71.379 14.4156V110.818C71.381 111.285 71.5169 111.742 71.7707 112.134C71.8858 112.313 72.0293 112.472 72.1957 112.604C72.3494 112.727 72.528 112.815 72.7191 112.862L144.077 129.347C144.362 129.416 144.659 129.424 144.949 129.371C145.209 129.322 145.454 129.213 145.664 129.052C145.872 128.891 146.038 128.683 146.149 128.444C146.27 128.181 146.331 127.894 146.328 127.605V1.9054C146.33 1.61255 146.269 1.32267 146.149 1.05548C146.038 0.809806 145.872 0.59265 145.664 0.420365C145.456 0.24813 145.211 0.124917 144.949 0.0597968C144.663 -0.00970503 144.366 -0.0184804 144.077 0.0340402L72.7196 12.4472Z" fill="#090814"/>
<path d="M74.3674 14.8924C74.1743 14.9303 73.9922 15.0113 73.8348 15.1294C73.6661 15.2554 73.5205 15.4098 73.4046 15.5858C73.2795 15.7741 73.1832 15.9801 73.119 16.1969C73.0508 16.4249 73.0173 16.6618 73.0197 16.8998V109.203C73.0166 109.677 73.1507 110.142 73.4056 110.541C73.5217 110.724 73.6671 110.887 73.8358 111.023C73.992 111.15 74.1737 111.242 74.3685 111.292L141.141 126.197C141.425 126.258 141.718 126.258 142.001 126.197C142.258 126.141 142.498 126.025 142.701 125.858C142.904 125.691 143.065 125.478 143.169 125.237C143.284 124.97 143.34 124.681 143.333 124.391V5.94335C143.339 5.64973 143.283 5.35808 143.169 5.08751C143.064 4.8391 142.905 4.61752 142.702 4.43919C142.5 4.26086 142.261 4.13035 142.001 4.05731C141.721 3.97939 141.428 3.96183 141.141 4.0058L74.3674 14.8924Z" fill="white"/>
<path d="M82.8926 27.4639C82.8026 27.4745 82.7162 27.5057 82.6401 27.555C82.5601 27.6069 82.4904 27.6731 82.4343 27.7503C82.3739 27.8327 82.3271 27.9243 82.2956 28.0215C82.2617 28.1244 82.2444 28.232 82.2441 28.3403V32.0356C82.2438 32.1408 82.2612 32.2453 82.2956 32.3447C82.3262 32.4336 82.3731 32.516 82.434 32.5876C82.4903 32.6538 82.5606 32.7066 82.6399 32.7421C82.7192 32.777 82.806 32.7911 82.8923 32.7833L127.87 28.8116C127.992 28.8001 128.111 28.7639 128.218 28.7053C128.326 28.6468 128.423 28.5694 128.504 28.4766C128.586 28.3823 128.651 28.2744 128.697 28.1577C128.743 28.0382 128.768 27.9111 128.768 27.7827V23.4183C128.769 23.2946 128.745 23.172 128.697 23.0577C128.653 22.9515 128.587 22.8558 128.504 22.7765C128.423 22.6989 128.325 22.6401 128.219 22.6039C128.107 22.566 127.987 22.5531 127.869 22.5663L82.8926 27.4639Z" fill="#FFDB00"/>
<path d="M82.6504 39.7403C82.6279 39.7418 82.606 39.7486 82.5866 39.7602C82.5666 39.7722 82.5491 39.7879 82.5352 39.8065C82.52 39.8265 82.5083 39.8489 82.5004 39.8727C82.4919 39.8982 82.4876 39.9249 82.4876 39.9518V41.3959C82.4875 41.4222 82.4917 41.4483 82.5002 41.4731C82.5079 41.4958 82.5196 41.5168 82.5349 41.5352C82.5489 41.5522 82.5665 41.566 82.5864 41.5756C82.6062 41.5852 82.6282 41.5895 82.6502 41.5883L128.431 39.1045C128.461 39.1027 128.491 39.0948 128.518 39.081C128.545 39.0673 128.569 39.0487 128.589 39.0262C128.632 38.979 128.655 38.918 128.655 38.8546V37.1522C128.655 37.1209 128.649 37.0898 128.638 37.0608C128.626 37.0337 128.61 37.0091 128.589 36.9884C128.569 36.9677 128.544 36.9516 128.516 36.9412C128.489 36.9309 128.46 36.9265 128.43 36.9284L82.6504 39.7403Z" fill="#CCCCCC"/>
<path d="M82.6504 44.4369C82.6279 44.4379 82.606 44.4444 82.5866 44.4557C82.5666 44.4674 82.5491 44.4829 82.5351 44.5013C82.52 44.521 82.5082 44.5431 82.5004 44.5667C82.492 44.5922 82.4877 44.6188 82.4878 44.6455V46.0891C82.4877 46.1154 82.492 46.1415 82.5004 46.1664C82.508 46.1896 82.5198 46.2113 82.5351 46.2303C82.5492 46.2475 82.5667 46.2615 82.5866 46.2715C82.6064 46.2813 82.6283 46.286 82.6504 46.2851L128.431 44.634C128.461 44.633 128.491 44.6257 128.518 44.6126C128.545 44.5994 128.57 44.5812 128.59 44.559C128.632 44.5125 128.655 44.4519 128.656 44.389V42.6869C128.656 42.6555 128.65 42.6243 128.638 42.5952C128.627 42.5678 128.61 42.5429 128.59 42.5218C128.569 42.5011 128.545 42.4848 128.518 42.4739C128.491 42.4627 128.461 42.4576 128.431 42.459L82.6504 44.4369Z" fill="#CCCCCC"/>
<path d="M82.6504 49.1335C82.628 49.134 82.6061 49.1401 82.5866 49.151C82.5667 49.1623 82.5492 49.1774 82.5351 49.1956C82.5199 49.2151 82.5082 49.237 82.5004 49.2605C82.492 49.2858 82.4877 49.3123 82.4878 49.339V50.7831C82.4879 50.8094 82.4922 50.8355 82.5007 50.8604C82.5083 50.8835 82.5199 50.9052 82.5351 50.9242C82.5491 50.9418 82.5667 50.9563 82.5866 50.9667C82.6063 50.9769 82.6282 50.9821 82.6504 50.9817L128.43 50.165C128.46 50.1641 128.49 50.1568 128.518 50.1436C128.544 50.1311 128.569 50.1137 128.589 50.0921C128.61 50.0696 128.626 50.0434 128.637 50.0148C128.649 49.9853 128.655 49.9538 128.655 49.9221V48.2202C128.655 48.1887 128.649 48.1575 128.637 48.1283C128.626 48.1007 128.61 48.0755 128.589 48.0541C128.569 48.0327 128.545 48.0156 128.518 48.0039C128.49 47.9925 128.46 47.9871 128.43 47.9882L82.6504 49.1335Z" fill="#CCCCCC"/>
<path d="M82.5683 58.5142C82.5461 58.5139 82.5242 58.5191 82.5045 58.5294C82.4846 58.5398 82.4671 58.5543 82.4531 58.5719C82.4381 58.591 82.4266 58.6126 82.4191 58.6357C82.4108 58.6606 82.4065 58.6867 82.4065 58.713V60.1553C82.4064 60.182 82.4107 60.2085 82.4191 60.2338C82.427 60.2569 82.4387 60.2785 82.4538 60.2977C82.4678 60.3158 82.4853 60.3308 82.5053 60.342C82.5251 60.3533 82.5474 60.3595 82.5701 60.36L128.319 61.2099C128.349 61.2105 128.379 61.2047 128.407 61.193C128.434 61.1814 128.458 61.1646 128.478 61.1435C128.499 61.1219 128.515 61.0966 128.526 61.0688C128.538 61.0396 128.544 61.0084 128.544 60.9769V59.2755C128.544 59.2437 128.538 59.2123 128.526 59.1828C128.515 59.1542 128.499 59.128 128.478 59.1055C128.458 59.0839 128.434 59.0664 128.407 59.054C128.379 59.0413 128.35 59.0346 128.319 59.0342L82.5683 58.5142Z" fill="#CCCCCC"/>
<path d="M82.5684 63.2096C82.5463 63.2088 82.5243 63.2136 82.5046 63.2235C82.4846 63.2338 82.467 63.2483 82.4531 63.266C82.4378 63.285 82.426 63.3066 82.4184 63.3298C82.4101 63.3547 82.406 63.3808 82.4063 63.4071V64.8494C82.4063 64.8762 82.4106 64.9028 82.4191 64.9282C82.427 64.9517 82.4387 64.9738 82.4539 64.9934C82.4679 65.0116 82.4854 65.0269 82.5053 65.0384C82.5248 65.0496 82.5467 65.0559 82.5691 65.0567L128.319 66.7385C128.348 66.7396 128.378 66.7344 128.406 66.7231C128.433 66.712 128.457 66.6956 128.477 66.6749C128.498 66.6537 128.514 66.6287 128.525 66.6012C128.537 66.572 128.543 66.5408 128.543 66.5093V64.8074C128.543 64.7756 128.537 64.744 128.525 64.7144C128.514 64.6859 128.498 64.6597 128.477 64.6372C128.457 64.6151 128.433 64.5971 128.406 64.5841C128.378 64.571 128.349 64.5637 128.319 64.5627L82.5684 63.2096Z" fill="#CCCCCC"/>
<path d="M82.5684 67.9044C82.5465 67.9036 82.5249 67.9083 82.5053 67.918C82.4855 67.9276 82.4679 67.9413 82.4539 67.9582C82.4386 67.9767 82.4268 67.9978 82.4191 68.0205C82.4106 68.0454 82.4062 68.0715 82.4063 68.0978V69.5401C82.4063 69.567 82.4106 69.5937 82.4191 69.6192C82.427 69.6429 82.4387 69.6652 82.4539 69.6851C82.4679 69.7035 82.4854 69.7191 82.5053 69.7309C82.5248 69.7434 82.5471 69.7508 82.5702 69.7526L128.32 72.2675C128.349 72.2693 128.378 72.2648 128.405 72.2543C128.433 72.2438 128.458 72.2276 128.478 72.2068C128.499 72.1859 128.515 72.1611 128.526 72.1339C128.538 72.1048 128.544 72.0738 128.544 72.0424V70.3405C128.544 70.2777 128.52 70.2172 128.478 70.1706C128.458 70.1482 128.434 70.1299 128.407 70.1165C128.38 70.1029 128.35 70.0951 128.32 70.0936L82.5684 67.9044Z" fill="#CCCCCC"/>
<path d="M82.5684 72.6227C82.5465 72.621 82.5245 72.625 82.5046 72.6343C82.4847 72.6436 82.4671 72.6573 82.4531 72.6742C82.4379 72.6924 82.4261 72.7133 82.4184 72.7357C82.4098 72.7606 82.4055 72.7867 82.4055 72.813V74.2553C82.4055 74.2822 82.4099 74.309 82.4184 74.3346C82.4263 74.3585 82.438 74.3809 82.4531 74.4011C82.4671 74.4198 82.4846 74.4357 82.5046 74.4479C82.5238 74.4601 82.5457 74.4674 82.5684 74.4693L128.318 77.8211C128.347 77.8233 128.377 77.8191 128.405 77.8087C128.432 77.7987 128.456 77.7832 128.476 77.7631C128.497 77.7426 128.513 77.7182 128.524 77.6913C128.536 77.6623 128.542 77.6313 128.542 77.6001V75.8979C128.542 75.866 128.536 75.8343 128.524 75.8044C128.513 75.7756 128.497 75.749 128.476 75.7259C128.456 75.7031 128.432 75.6843 128.405 75.6703C128.378 75.6562 128.348 75.6479 128.318 75.6458L82.5684 72.6227Z" fill="#CCCCCC"/>
<path d="M82.5684 77.3172C82.5466 77.3152 82.5246 77.3188 82.5046 77.3277C82.4847 77.3369 82.4671 77.3503 82.4531 77.3671C82.4379 77.3849 82.4261 77.4053 82.4184 77.4274C82.4098 77.4523 82.4054 77.4784 82.4055 77.5047V78.947C82.4056 78.974 82.4099 79.0009 82.4184 79.0265C82.4262 79.0507 82.4378 79.0734 82.4529 79.0938C82.4669 79.1128 82.4843 79.1291 82.5043 79.1417C82.5236 79.1537 82.5455 79.161 82.5681 79.163L128.317 83.3493C128.347 83.3521 128.377 83.3485 128.405 83.3387C128.431 83.3292 128.456 83.3141 128.476 83.2944C128.497 83.2742 128.513 83.25 128.524 83.2233C128.536 83.1945 128.542 83.1636 128.542 83.1324V81.4302C128.542 81.3981 128.536 81.3662 128.524 81.3362C128.513 81.3071 128.497 81.2802 128.476 81.2567C128.456 81.2335 128.432 81.2143 128.405 81.1997C128.378 81.1853 128.348 81.1766 128.317 81.174L82.5684 77.3172Z" fill="#CCCCCC"/>
<path d="M82.5684 86.7317C82.5468 86.729 82.5248 86.7318 82.5046 86.74C82.4849 86.7478 82.4673 86.7601 82.4531 86.7758C82.4377 86.7935 82.4259 86.8142 82.4184 86.8365C82.4097 86.8614 82.4054 86.8875 82.4055 86.9138V88.3561C82.4056 88.3832 82.4099 88.4101 82.4184 88.4359C82.4263 88.4604 82.438 88.4836 82.4531 88.5044C82.4671 88.524 82.4846 88.5408 82.5046 88.5541C82.5237 88.5669 82.5456 88.5751 82.5684 88.5781L128.318 94.4343C128.347 94.4382 128.377 94.4356 128.405 94.4268C128.432 94.4181 128.456 94.4036 128.476 94.3843C128.497 94.3649 128.513 94.3413 128.524 94.315C128.536 94.2864 128.542 94.2558 128.542 94.2249V92.5235C128.542 92.4912 128.536 92.4592 128.524 92.429C128.513 92.3994 128.497 92.372 128.476 92.3479C128.456 92.324 128.432 92.3039 128.405 92.2884C128.378 92.2729 128.348 92.2629 128.318 92.259L82.5684 86.7317Z" fill="#CCCCCC"/>
<path d="M82.5684 91.4266C82.5469 91.4235 82.5249 91.4259 82.5046 91.4339C82.4849 91.4417 82.4672 91.454 82.4531 91.4699C82.4378 91.4871 82.426 91.5071 82.4184 91.5289C82.4097 91.5537 82.4053 91.5799 82.4055 91.6062V93.0484C82.4055 93.0756 82.4098 93.1027 82.4181 93.1285C82.4261 93.1532 82.4378 93.1765 82.4529 93.1976C82.4668 93.2177 82.4843 93.2351 82.5043 93.2491C82.5234 93.2624 82.5452 93.2712 82.5681 93.2748L128.318 99.9644C128.347 99.9689 128.376 99.9668 128.405 99.9585C128.431 99.9505 128.456 99.9367 128.476 99.9181C128.497 99.899 128.513 99.8756 128.524 99.8496C128.536 99.8211 128.542 99.7905 128.542 99.7597V98.0567C128.542 98.0244 128.536 97.9922 128.524 97.962C128.513 97.9321 128.496 97.9043 128.476 97.8798C128.456 97.8557 128.432 97.8351 128.405 97.819C128.378 97.8031 128.348 97.7926 128.318 97.7881L82.5684 91.4266Z" fill="#CCCCCC"/>
<path d="M82.5683 96.1219C82.5469 96.1182 82.5249 96.1203 82.5045 96.1278C82.4848 96.1352 82.4671 96.1472 82.453 96.1628C82.4376 96.1798 82.4258 96.1997 82.4183 96.2213C82.4095 96.2461 82.4052 96.2722 82.4054 96.2986V97.7421C82.4055 97.7695 82.4098 97.7967 82.4183 97.8227C82.4262 97.8476 82.438 97.8712 82.453 97.8925C82.467 97.9126 82.4845 97.93 82.5045 97.944C82.5236 97.9573 82.5454 97.9661 82.5683 97.9698L128.318 105.493C128.347 105.498 128.376 105.496 128.405 105.488C128.431 105.481 128.456 105.468 128.476 105.449C128.497 105.431 128.513 105.407 128.524 105.382C128.536 105.353 128.542 105.323 128.542 105.292V103.59C128.542 103.557 128.536 103.525 128.524 103.494C128.513 103.464 128.497 103.436 128.476 103.411C128.456 103.387 128.432 103.366 128.405 103.349C128.378 103.333 128.349 103.322 128.318 103.317L82.5683 96.1219Z" fill="#CCCCCC"/>
<path d="M157.37 65.1122H176.631V64.8386H157.643V52.1216H157.37V65.1122Z" fill="#090814"/>
<path d="M161.28 89.7364H161.007V76.7458H180.268V77.0194H161.28V89.7364Z" fill="#090814"/>
<path d="M186.739 55.3824H167.478V42.3918H167.752V55.1076H186.739V55.3824Z" fill="#090814"/>
<path d="M163.646 36.928C163.542 36.928 163.443 36.9691 163.37 37.0423C163.297 37.1156 163.256 37.2149 163.256 37.3184C163.256 37.422 163.297 37.5213 163.37 37.5945C163.443 37.6677 163.542 37.7089 163.646 37.7089H171.558C171.661 37.7089 171.76 37.6677 171.833 37.5945C171.906 37.5213 171.948 37.422 171.948 37.3184C171.948 37.2149 171.906 37.1156 171.833 37.0423C171.76 36.9691 171.661 36.928 171.558 36.928H163.646Z" fill="#3F3D56"/>
<path d="M163.646 39.2283C163.542 39.2283 163.443 39.2694 163.37 39.3426C163.297 39.4159 163.256 39.5152 163.256 39.6187C163.256 39.7223 163.297 39.8216 163.37 39.8948C163.443 39.968 163.542 40.0092 163.646 40.0092H171.558C171.661 40.0092 171.76 39.968 171.833 39.8948C171.906 39.8216 171.948 39.7223 171.948 39.6187C171.948 39.5152 171.906 39.4159 171.833 39.3426C171.76 39.2694 171.661 39.2283 171.558 39.2283H163.646Z" fill="#3F3D56"/>
<path d="M153.498 50.3734C153.394 50.3734 153.295 50.3323 153.222 50.2591C153.149 50.1858 153.108 50.0865 153.108 49.983C153.108 49.8794 153.149 49.7801 153.222 49.7069C153.295 49.6337 153.394 49.5925 153.498 49.5925H161.41C161.462 49.5925 161.512 49.6026 161.56 49.6222C161.607 49.6419 161.65 49.6706 161.686 49.7069C161.722 49.7431 161.751 49.7862 161.771 49.8336C161.79 49.8809 161.8 49.9317 161.8 49.983C161.8 50.0342 161.79 50.085 161.771 50.1324C161.751 50.1798 161.722 50.2228 161.686 50.2591C161.65 50.2953 161.607 50.3241 161.56 50.3437C161.512 50.3633 161.462 50.3734 161.41 50.3734H153.498Z" fill="#2F2E41"/>
<path d="M153.498 48.0729C153.394 48.0729 153.295 48.0318 153.222 47.9585C153.149 47.8853 153.108 47.786 153.108 47.6824C153.108 47.5789 153.149 47.4796 153.222 47.4064C153.295 47.3331 153.394 47.292 153.498 47.292H161.41C161.462 47.292 161.512 47.3021 161.56 47.3217C161.607 47.3413 161.65 47.3701 161.686 47.4064C161.722 47.4426 161.751 47.4856 161.771 47.533C161.79 47.5804 161.8 47.6312 161.8 47.6824C161.8 47.7337 161.79 47.7845 161.771 47.8319C161.751 47.8792 161.722 47.9223 161.686 47.9585C161.65 47.9948 161.607 48.0235 161.56 48.0432C161.512 48.0628 161.462 48.0729 161.41 48.0729H153.498Z" fill="#2F2E41"/>
<path d="M191.384 82.8639C188.493 82.8639 185.667 82.0059 183.264 80.3985C180.861 78.7911 178.987 76.5063 177.881 73.8333C176.775 71.1602 176.485 68.2188 177.049 65.3811C177.613 62.5434 179.005 59.9368 181.049 57.8909C183.093 55.845 185.697 54.4518 188.532 53.8873C191.367 53.3228 194.306 53.6125 196.977 54.7198C199.647 55.827 201.93 57.702 203.536 60.1077C205.142 62.5134 205.999 65.3417 205.999 68.2351C205.999 72.1149 204.459 75.8358 201.718 78.5792C198.977 81.3227 195.26 82.8639 191.384 82.8639ZM191.384 53.8772C188.547 53.877 185.774 54.7189 183.415 56.2963C181.056 57.8737 179.218 60.1159 178.132 62.7392C177.046 65.3625 176.762 68.2492 177.315 71.0341C177.869 73.8191 179.235 76.3773 181.24 78.3852C183.246 80.393 185.802 81.7605 188.584 82.3145C191.367 82.8685 194.251 82.5842 196.872 81.4976C199.492 80.411 201.733 78.5709 203.309 76.21C204.885 73.849 205.726 71.0733 205.726 68.2338C205.726 64.4263 204.215 60.7747 201.525 58.0824C198.836 55.39 195.188 53.8774 191.384 53.8772Z" fill="#090814"/>
<path d="M185.51 57.0219C186.415 57.0219 187.149 56.2873 187.149 55.3811C187.149 54.4749 186.415 53.7402 185.51 53.7402C184.604 53.7402 183.87 54.4749 183.87 55.3811C183.87 56.2873 184.604 57.0219 185.51 57.0219Z" fill="#FFDB00"/>
<path d="M179.858 78.6601C180.764 78.6601 181.498 77.9255 181.498 77.0193C181.498 76.1131 180.764 75.3784 179.858 75.3784C178.953 75.3784 178.219 76.1131 178.219 77.0193C178.219 77.9255 178.953 78.6601 179.858 78.6601Z" fill="#FFDB00"/>
<path d="M177.177 66.7517C178.083 66.7517 178.816 66.017 178.816 65.1108C178.816 64.2046 178.083 63.47 177.177 63.47C176.272 63.47 175.538 64.2046 175.538 65.1108C175.538 66.017 176.272 66.7517 177.177 66.7517Z" fill="#FFDB00"/>
<path d="M157.135 91.4833C157.083 91.4819 157.031 91.491 156.983 91.5101C156.934 91.5291 156.89 91.5576 156.853 91.594C156.815 91.6304 156.786 91.6738 156.766 91.7219C156.745 91.7699 156.735 91.8215 156.735 91.8736C156.735 91.9257 156.745 91.9773 156.766 92.0253C156.786 92.0733 156.815 92.1168 156.853 92.1532C156.89 92.1896 156.934 92.2181 156.983 92.2371C157.031 92.2561 157.083 92.2652 157.135 92.2639H165.047C165.099 92.2652 165.151 92.2561 165.2 92.2371C165.248 92.2181 165.292 92.1896 165.33 92.1532C165.367 92.1168 165.397 92.0733 165.417 92.0253C165.437 91.9773 165.448 91.9257 165.448 91.8736C165.448 91.8215 165.437 91.7699 165.417 91.7219C165.397 91.6738 165.367 91.6304 165.33 91.594C165.292 91.5576 165.248 91.5291 165.2 91.5101C165.151 91.491 165.099 91.4819 165.047 91.4833H157.135Z" fill="#2F2E41"/>
<path d="M157.135 93.7837C157.032 93.7837 156.932 93.8248 156.859 93.8981C156.786 93.9713 156.745 94.0706 156.745 94.1741C156.745 94.2777 156.786 94.377 156.859 94.4502C156.932 94.5234 157.032 94.5646 157.135 94.5646H165.047C165.099 94.5659 165.151 94.5568 165.2 94.5378C165.248 94.5188 165.292 94.4903 165.33 94.4539C165.367 94.4175 165.397 94.374 165.417 94.326C165.437 94.278 165.448 94.2264 165.448 94.1743C165.448 94.1221 165.437 94.0706 165.417 94.0225C165.397 93.9745 165.367 93.931 165.33 93.8947C165.292 93.8583 165.248 93.8297 165.2 93.8107C165.151 93.7917 165.099 93.7826 165.047 93.7839L157.135 93.7837Z" fill="#2F2E41"/>
<path d="M37.9184 98.277L35.573 93.6499L32.8744 95.0206L35.2197 99.6477C35.0929 100.05 35.0473 100.473 35.0855 100.894C35.1238 101.314 35.2451 101.722 35.4426 102.094C36.1736 103.537 37.7326 104.215 38.9255 103.609C40.1184 103.004 40.4917 101.343 39.7607 99.9004C39.5768 99.5206 39.3191 99.1813 39.0028 98.9023C38.6865 98.6232 38.3179 98.41 37.9184 98.275V98.277Z" fill="#ED9DA0"/>
<path d="M21.9999 77.3588L33.8494 99.5261L38.4828 97.0457L28.1032 74.3313" fill="#FFDB00"/>
<path d="M28.4727 82.5542L31.7022 97.5676L17.6274 98.0597C17.6274 98.0597 19.4716 87.6326 18.817 85.8305L28.4727 82.5542Z" fill="#ED9DA0"/>
<path d="M8.25752 140.612L11.4158 141.532L12.6267 137.365L9.46844 136.446L8.25752 140.612Z" fill="#ED9DA0"/>
<path d="M16.1062 90.4253L30.1809 90.7534C30.1809 90.7534 38.7341 115.431 38.4068 138.857H26.6661L25.9688 111.663L23.9294 139.914L8.45642 139.022L16.1062 90.4253Z" fill="#090814"/>
<path d="M29.5688 62.8627C29.569 61.9371 29.3293 61.0272 28.8732 60.2219C28.4171 59.4167 27.7602 58.7436 26.9665 58.2684C26.1729 57.7932 25.2697 57.5321 24.3452 57.5107C23.4207 57.4893 22.5064 57.7082 21.6916 58.1461C20.8769 58.5841 20.1895 59.226 19.6967 60.0092C19.2038 60.7925 18.9223 61.6903 18.8797 62.615C18.8371 63.5397 19.0348 64.4596 19.4535 65.2849C19.8721 66.1103 20.4975 66.8129 21.2685 67.324C20.826 68.4273 20.2375 69.4662 19.5188 70.4128L24.7895 74.8082L25.8226 67.9702C26.9088 67.6286 27.8579 66.9491 28.5316 66.0304C29.2054 65.1117 29.5687 64.0019 29.5688 62.8622V62.8627Z" fill="#ED9DA0"/>
<path d="M25.8103 70.5375L19.7546 69.063L15.8731 74.0378C14.9487 75.9255 14.8027 78.1013 15.4668 80.0957L18.6854 89.7623C18.6854 89.7623 28.5056 89.5982 30.6333 83.8644L31.2434 82.5924C31.6525 81.7391 31.8229 80.7907 31.7363 79.8481C31.6497 78.9056 31.3094 78.0042 30.7516 77.2399L25.8103 70.5375Z" fill="#FFDB00"/>
<path d="M19.3645 102.492L19.4769 97.3049L16.4512 97.2393L16.3388 102.426C16.037 102.721 15.797 103.073 15.6326 103.462C15.4683 103.851 15.383 104.269 15.3816 104.691C15.3466 106.308 16.4018 107.642 17.7388 107.671C19.0758 107.7 20.1881 106.412 20.2226 104.795C20.2394 104.373 20.1722 103.953 20.0248 103.557C19.8775 103.162 19.653 102.8 19.3645 102.492Z" fill="#ED9DA0"/>
<path d="M15.1874 76.5315V101.673H20.4419L21.995 76.7437" fill="#FFDB00"/>
<path d="M21.4014 63.6543C21.4014 63.6543 25.613 62.2548 24.5758 60.668C24.5758 60.668 29.046 61.4474 29.1613 60.668C29.2766 59.8887 29.1613 54.8945 23.105 55.703C17.0488 56.5114 17.8559 61.5916 17.8559 61.5916C17.8559 61.5916 18.2985 66.5028 21.5571 67.5132C21.5563 67.5134 19.0365 62.6442 21.4014 63.6543Z" fill="#090814"/>
<path d="M20.0737 58.5724C20.0737 58.5724 18.8299 57.6733 17.3792 57.9502C16.871 58.047 16.334 58.4192 15.8497 58.8619C14.8831 59.7631 14.1403 60.8781 13.6809 62.1178C12.4126 65.4454 9.75074 73.7689 14.4075 74.7893C20.2458 76.0691 20.6086 63.7072 20.6086 63.7072L20.0737 58.5724Z" fill="#090814"/>
<path d="M46.2066 96.8878C46.247 96.9235 46.28 96.9669 46.3037 97.0154C46.3274 97.0639 46.3413 97.1167 46.3446 97.1706C46.3478 97.2244 46.3405 97.2785 46.3228 97.3295C46.3052 97.3805 46.2777 97.4276 46.2419 97.4679L45.3103 98.5243L45.3603 98.5744L44.7262 99.2905L44.6788 99.2396L41.3425 103.024C41.2283 103.153 41.0709 103.237 40.8998 103.258C40.7286 103.28 40.5554 103.239 40.4123 103.142L37.74 101.338C37.6751 101.294 37.6207 101.237 37.5804 101.169C37.5401 101.102 37.515 101.027 37.5068 100.949C37.4986 100.871 37.5076 100.792 37.533 100.718C37.5584 100.643 37.5998 100.576 37.6541 100.519L42.6397 95.3277C42.7444 95.2189 42.8829 95.1489 43.0326 95.1292C43.1822 95.1095 43.3341 95.1413 43.4634 95.2194L46.1439 96.8435C46.1662 96.8567 46.1871 96.872 46.2065 96.8891L46.2066 96.8878Z" fill="#3F3D56"/>
<path d="M43.8252 95.8646L45.2339 96.718C45.2592 96.7333 45.289 96.7399 45.3184 96.7366C45.3479 96.7333 45.3755 96.7204 45.3969 96.6999C45.4211 96.6766 45.4524 96.662 45.4859 96.6584C45.5193 96.6547 45.553 96.6622 45.5818 96.6798L45.8786 96.8595C45.9191 96.8841 45.9537 96.9172 45.98 96.9566C46.0062 96.996 46.0236 97.0407 46.0307 97.0875C46.0378 97.1343 46.0346 97.1822 46.0213 97.2276C46.0079 97.273 45.9847 97.315 45.9534 97.3505L41.1199 102.84C41.0599 102.908 40.9769 102.952 40.8867 102.962C40.7966 102.973 40.7056 102.95 40.6311 102.898L37.9938 101.056C37.9603 101.032 37.9323 101.002 37.9117 100.967C37.8911 100.931 37.8783 100.892 37.8742 100.851C37.8701 100.81 37.8749 100.769 37.8881 100.73C37.9013 100.692 37.9227 100.656 37.9508 100.626L42.8542 95.4526C42.9265 95.3766 43.0226 95.3275 43.1265 95.3136C43.2305 95.2997 43.3361 95.3217 43.4258 95.3761L43.7379 95.5649C43.712 95.6167 43.7067 95.6763 43.7229 95.7319C43.7391 95.7875 43.7756 95.8349 43.8252 95.8646Z" fill="#FFDB00"/>
<path d="M64.4873 83.3521H45.0443C44.8149 83.3524 44.595 83.4438 44.4328 83.6061C44.2706 83.7685 44.1793 83.9886 44.179 84.2182V92.0127C44.1792 92.2423 44.2705 92.4625 44.4327 92.6248C44.5949 92.7872 44.8149 92.8786 45.0443 92.8788H46.4186V95.6807H46.47C47.0233 95.6801 47.5537 95.4598 47.9449 95.0683C48.3361 94.6767 48.5562 94.1458 48.5568 93.592V92.8788H64.4878C64.7172 92.8786 64.9371 92.7872 65.0993 92.6248C65.2616 92.4625 65.3528 92.2423 65.3531 92.0127V84.2182C65.3527 83.9885 65.2614 83.7683 65.0991 83.6059C64.9368 83.4436 64.7167 83.3523 64.4873 83.3521ZM65.2507 92.0127C65.2504 92.2153 65.1699 92.4095 65.0268 92.5527C64.8837 92.696 64.6896 92.7766 64.4873 92.7768H48.4544V93.592C48.4536 94.1099 48.2512 94.6071 47.89 94.978C47.5289 95.3489 47.0374 95.5642 46.5202 95.5782V92.7768H45.0443C44.8419 92.7766 44.6479 92.696 44.5048 92.5527C44.3616 92.4095 44.2811 92.2153 44.2809 92.0127V84.2182C44.2811 84.0156 44.3616 83.8214 44.5048 83.6782C44.6479 83.5349 44.8419 83.4543 45.0443 83.454H64.487C64.6894 83.4543 64.8834 83.5349 65.0265 83.6782C65.1696 83.8214 65.2501 84.0156 65.2504 84.2182L65.2507 92.0127Z" fill="#3F3D56"/>
<path d="M60.6446 85.582H48.8874C48.7359 85.5709 48.5859 85.618 48.4679 85.7137C48.3499 85.8094 48.2727 85.9465 48.2521 86.0971C48.2516 86.1041 48.2516 86.1112 48.2521 86.1182C48.2667 86.2733 48.3415 86.4165 48.4606 86.5168C48.5796 86.6172 48.7332 86.6668 48.8884 86.6549H60.6456C60.7236 86.6682 60.8036 86.6643 60.88 86.6435C60.9564 86.6226 61.0273 86.5854 61.0878 86.5342C61.1483 86.4831 61.1969 86.4194 61.2302 86.3476C61.2636 86.2757 61.2808 86.1974 61.2808 86.1182C61.2808 86.039 61.2636 85.9607 61.2302 85.8888C61.1969 85.817 61.1483 85.7533 61.0878 85.7021C61.0273 85.651 60.9564 85.6138 60.88 85.5929C60.8036 85.5721 60.7236 85.5682 60.6456 85.5815L60.6446 85.582Z" fill="#FFDB00"/>
<path d="M60.6446 87.7214H48.8874C48.7359 87.7103 48.5859 87.7575 48.4679 87.8531C48.3499 87.9488 48.2727 88.0859 48.2521 88.2365C48.2516 88.2435 48.2516 88.2506 48.2521 88.2576C48.2667 88.4127 48.3415 88.5559 48.4606 88.6562C48.5796 88.7566 48.7332 88.8062 48.8884 88.7943H60.6456C60.7236 88.8076 60.8036 88.8037 60.88 88.7829C60.9564 88.762 61.0273 88.7248 61.0878 88.6736C61.1483 88.6225 61.1969 88.5588 61.2302 88.487C61.2636 88.4151 61.2808 88.3368 61.2808 88.2576C61.2808 88.1784 61.2636 88.1001 61.2302 88.0282C61.1969 87.9564 61.1483 87.8927 61.0878 87.8415C61.0273 87.7904 60.9564 87.7532 60.88 87.7323C60.8036 87.7115 60.7236 87.7076 60.6456 87.7209L60.6446 87.7214Z" fill="#FFDB00"/>
<path d="M60.6446 89.861H48.8874C48.7359 89.85 48.5859 89.8971 48.4679 89.9928C48.3499 90.0885 48.2727 90.2255 48.2521 90.3761C48.2516 90.3832 48.2516 90.3902 48.2521 90.3972C48.2667 90.5523 48.3415 90.6955 48.4606 90.7959C48.5796 90.8963 48.7332 90.9459 48.8884 90.934H60.6456C60.7236 90.9473 60.8036 90.9434 60.88 90.9225C60.9564 90.9017 61.0273 90.8644 61.0878 90.8133C61.1483 90.7622 61.1969 90.6985 61.2302 90.6266C61.2636 90.5548 61.2808 90.4765 61.2808 90.3972C61.2808 90.318 61.2636 90.2397 61.2302 90.1679C61.1969 90.096 61.1483 90.0323 61.0878 89.9812C61.0273 89.9301 60.9564 89.8928 60.88 89.872C60.8036 89.8511 60.7236 89.8472 60.6456 89.8605L60.6446 89.861Z" fill="#FFDB00"/>
<path d="M191.855 77.3174C196.931 77.3174 201.046 73.1983 201.046 68.1172C201.046 63.0361 196.931 58.917 191.855 58.917C186.778 58.917 182.663 63.0361 182.663 68.1172C182.663 73.1983 186.778 77.3174 191.855 77.3174Z" fill="#E6E6E6"/>
<path d="M187.201 70.0529C186.219 69.9409 185.458 68.999 185.374 68.044C185.275 66.9072 185.936 65.8273 186.844 65.1893C187.821 64.5559 188.955 64.2073 190.119 64.1823C192.351 64.0711 194.544 64.7947 196.273 66.2123C197.13 66.9249 197.93 67.8328 198.234 68.9292C198.379 69.4009 198.389 69.904 198.263 70.3811C198.136 70.8582 197.878 71.2901 197.518 71.6273C197.328 71.7907 197.107 71.9131 196.868 71.9868C196.629 72.0604 196.378 72.0837 196.129 72.0551C195.538 71.9599 194.981 71.712 194.514 71.3358C193.591 70.6646 192.834 69.7294 191.709 69.3784C190.886 69.1208 189.816 69.3475 189.312 70.0933C189.198 70.264 189.124 70.4585 189.096 70.662C189.085 70.7054 189.092 70.7512 189.114 70.79C189.136 70.8288 189.172 70.8578 189.214 70.8711C189.258 70.8828 189.304 70.877 189.343 70.8547C189.382 70.8325 189.411 70.7957 189.423 70.7524C189.556 69.8131 190.71 69.4623 191.519 69.6769C192.7 69.9898 193.493 71.0442 194.461 71.7143C194.963 72.0886 195.554 72.3246 196.175 72.3989C196.713 72.4412 197.248 72.2768 197.67 71.9392C198.064 71.6019 198.361 71.1652 198.53 70.6742C198.699 70.1833 198.734 69.656 198.631 69.1471C198.419 67.9742 197.63 66.9687 196.765 66.1904C195.01 64.6292 192.733 63.787 190.386 63.8315C189.167 63.8252 187.968 64.1383 186.908 64.7396C186.397 65.0343 185.961 65.4441 185.636 65.9365C185.311 66.4289 185.104 66.9904 185.033 67.5765C184.988 68.106 185.1 68.6371 185.357 69.1023C185.614 69.5674 186.003 69.9456 186.476 70.1886C186.704 70.2968 186.948 70.3659 187.199 70.3931C187.418 70.4176 187.416 70.0774 187.201 70.0529Z" fill="#3F3D56"/>
</g>
<defs>
<clipPath id="clip0_98_12">
<rect width="206" height="138" fill="white"/>
</clipPath>
</defs>
</svg>
