<svg width="39" height="39" viewBox="0 0 39 39" fill="none" xmlns="http://www.w3.org/2000/svg">
<g clip-path="url(#clip0_8_968)">
<path d="M14.625 34.125C14.625 35.0187 15.3562 35.75 16.25 35.75H22.75C23.6438 35.75 24.375 35.0187 24.375 34.125V32.5H14.625V34.125ZM19.5 3.25C13.2275 3.25 8.125 8.3525 8.125 14.625C8.125 18.4925 10.0588 21.8888 13 23.9525V27.625C13 28.5187 13.7312 29.25 14.625 29.25H24.375C25.2687 29.25 26 28.5187 26 27.625V23.9525C28.9412 21.8888 30.875 18.4925 30.875 14.625C30.875 8.3525 25.7725 3.25 19.5 3.25ZM24.1313 21.2875L22.75 22.2625V26H16.25V22.2625L14.8687 21.2875C12.675 19.76 11.375 17.2738 11.375 14.625C11.375 10.14 15.015 6.5 19.5 6.5C23.985 6.5 27.625 10.14 27.625 14.625C27.625 17.2738 26.325 19.76 24.1313 21.2875Z" fill="#323232"/>
</g>
<defs>
<clipPath id="clip0_8_968">
<rect width="39" height="39" fill="white"/>
</clipPath>
</defs>
</svg>
