<svg width="359" height="195" viewBox="0 0 359 195" fill="none" xmlns="http://www.w3.org/2000/svg">
<g clip-path="url(#clip0_8_711)">
<path d="M333.065 0H5.77102C4.22831 0.0150732 2.75456 0.642074 1.67298 1.74348C0.591408 2.84488 -0.00968903 4.33076 0.00155887 5.87523V228.489C-0.00717863 230.031 0.595124 231.514 1.67652 232.613C2.75791 233.712 4.23024 234.337 5.77102 234.351H333.066C334.607 234.337 336.079 233.712 337.16 232.614C338.241 231.515 338.844 230.033 338.836 228.49V5.87703C338.847 4.33264 338.246 2.84682 337.164 1.74543C336.083 0.644041 334.609 0.0169883 333.067 0.00179682L333.065 0Z" fill="#090814"/>
<path d="M323.392 1.16411H6.11333C4.62855 1.16673 3.20546 1.75902 2.15644 2.81098C1.10742 3.86294 0.518183 5.28861 0.518066 6.77506V219.352C0.520086 220.837 1.11024 222.261 2.15913 223.311C3.20802 224.361 4.63004 224.951 6.11333 224.953H323.39C324.874 224.951 326.296 224.361 327.345 223.311C328.393 222.26 328.984 220.837 328.985 219.352V6.77416C328.985 5.28822 328.397 3.86296 327.348 2.81106C326.3 1.75917 324.878 1.16654 323.393 1.16321L323.392 1.16411Z" fill="white"/>
<path d="M41.5849 167.647V79.148L33.5846 77.3628V175.658L93.9495 175.04L93.7457 167.115L41.5849 167.647Z" fill="#F2F2F2"/>
<path d="M101.223 183.048H28.4935V65.824H101.223V183.048ZM29.949 181.592H99.7687V67.2802H29.949V181.592Z" fill="#3F3D56"/>
<path d="M46.82 73.1042H35.04V74.5605H46.82V73.1042Z" fill="#3F3D56"/>
<path d="M46.82 76.7443H35.04V78.2005H46.82V76.7443Z" fill="#3F3D56"/>
<path d="M46.82 80.3857H35.04V81.842H46.82V80.3857Z" fill="#3F3D56"/>
<path d="M91.1844 143.001H40.8585V144.457H91.1844V143.001Z" fill="#3F3D56"/>
<path d="M91.1844 151.011H40.8585V152.467H91.1844V151.011Z" fill="#3F3D56"/>
<path d="M91.1844 159.02H40.8585V160.476H91.1844V159.02Z" fill="#3F3D56"/>
<path d="M90.3134 82.5697C89.3065 82.5697 88.3222 82.2707 87.485 81.7107C86.6478 81.1507 85.9952 80.3547 85.6099 79.4233C85.2246 78.492 85.1237 77.4672 85.3202 76.4786C85.5166 75.4899 86.0015 74.5817 86.7135 73.8689C87.4255 73.1561 88.3327 72.6707 89.3202 72.474C90.3078 72.2774 91.3314 72.3783 92.2617 72.7641C93.192 73.1498 93.9871 73.8031 94.5465 74.6413C95.1059 75.4794 95.4045 76.4648 95.4045 77.4729C95.4045 78.8246 94.8682 80.121 93.9134 81.0769C92.9586 82.0327 91.6637 82.5697 90.3134 82.5697ZM90.3134 73.8323C89.5942 73.8323 88.8911 74.0458 88.2931 74.4459C87.6951 74.8459 87.229 75.4145 86.9538 76.0797C86.6785 76.7449 86.6065 77.4769 86.7468 78.1831C86.8871 78.8893 87.2335 79.538 87.7421 80.0471C88.2506 80.5563 88.8986 80.903 89.604 81.0435C90.3094 81.184 91.0406 81.1119 91.7051 80.8363C92.3696 80.5608 92.9375 80.0942 93.3371 79.4955C93.7367 78.8968 93.9499 78.1929 93.9499 77.4729C93.9499 76.5074 93.5668 75.5814 92.8848 74.8986C92.2029 74.2159 91.2779 73.8323 90.3134 73.8323Z" fill="#3F3D56"/>
<path d="M91.7685 126.255H40.1312V92.7632H91.7685V126.255ZM41.5858 124.799H90.3139V94.2194H41.5858V124.799Z" fill="#3F3D56"/>
<path d="M41.2499 92.8774L40.4678 94.1052L90.6506 126.142L91.4327 124.914L41.2499 92.8774Z" fill="#3F3D56"/>
<path d="M90.6488 92.8751L40.4661 124.912L41.2482 126.139L91.4309 94.1029L90.6488 92.8751Z" fill="#3F3D56"/>
<path d="M235.348 167.647V79.148L227.347 77.3628V175.658L287.712 175.04L287.508 167.115L235.348 167.647Z" fill="#F2F2F2"/>
<path d="M294.986 183.048H222.256V65.824H294.986V183.048ZM223.712 181.592H293.531V67.2802H223.712V181.592Z" fill="#3F3D56"/>
<path d="M240.583 73.1042H228.803V74.5605H240.583V73.1042Z" fill="#3F3D56"/>
<path d="M240.583 76.7443H228.803V78.2005H240.583V76.7443Z" fill="#3F3D56"/>
<path d="M240.583 80.3857H228.803V81.842H240.583V80.3857Z" fill="#3F3D56"/>
<path d="M284.947 143.001H234.621V144.457H284.947V143.001Z" fill="#3F3D56"/>
<path d="M284.947 151.011H234.621V152.467H284.947V151.011Z" fill="#3F3D56"/>
<path d="M284.947 159.02H234.621V160.476H284.947V159.02Z" fill="#3F3D56"/>
<path d="M284.076 82.5697C283.069 82.5697 282.085 82.2707 281.248 81.7107C280.411 81.1507 279.758 80.3547 279.373 79.4233C278.987 78.492 278.886 77.4672 279.083 76.4786C279.279 75.4899 279.764 74.5817 280.476 73.8689C281.188 73.1561 282.095 72.6707 283.083 72.474C284.071 72.2774 285.094 72.3783 286.024 72.7641C286.955 73.1498 287.75 73.8031 288.309 74.6413C288.869 75.4794 289.167 76.4648 289.167 77.4729C289.167 78.8246 288.631 80.121 287.676 81.0769C286.721 82.0327 285.426 82.5697 284.076 82.5697ZM284.076 73.8323C283.357 73.8323 282.654 74.0458 282.056 74.4459C281.458 74.8459 280.992 75.4145 280.717 76.0797C280.441 76.7449 280.369 77.4769 280.51 78.1831C280.65 78.8893 280.996 79.538 281.505 80.0471C282.013 80.5563 282.661 80.903 283.367 81.0435C284.072 81.184 284.803 81.1119 285.468 80.8363C286.132 80.5608 286.7 80.0942 287.1 79.4955C287.499 78.8968 287.713 78.1929 287.713 77.4729C287.713 76.5074 287.33 75.5814 286.648 74.8986C285.966 74.2159 285.041 73.8323 284.076 73.8323Z" fill="#3F3D56"/>
<path d="M285.531 126.255H233.894V92.7632H285.531V126.255ZM235.349 124.799H284.077V94.2194H235.349V124.799Z" fill="#3F3D56"/>
<path d="M235.013 92.8774L234.231 94.1052L284.413 126.142L285.195 124.914L235.013 92.8774Z" fill="#3F3D56"/>
<path d="M284.412 92.8751L234.229 124.912L235.011 126.139L285.194 94.1029L284.412 92.8751Z" fill="#3F3D56"/>
<path d="M138.466 167.647V79.148L130.466 77.3628V175.658L190.831 175.04L190.627 167.115L138.466 167.647Z" fill="#F2F2F2"/>
<path d="M198.105 183.048H125.375V65.824H198.105V183.048ZM126.831 181.592H196.65V67.2802H126.831V181.592Z" fill="#3F3D56"/>
<path d="M143.702 73.1042H131.922V74.5605H143.702V73.1042Z" fill="#3F3D56"/>
<path d="M143.702 76.7443H131.922V78.2005H143.702V76.7443Z" fill="#3F3D56"/>
<path d="M143.702 80.3857H131.922V81.842H143.702V80.3857Z" fill="#3F3D56"/>
<path d="M188.066 143.001H137.74V144.457H188.066V143.001Z" fill="#3F3D56"/>
<path d="M188.066 151.011H137.74V152.467H188.066V151.011Z" fill="#3F3D56"/>
<path d="M188.066 159.02H137.74V160.476H188.066V159.02Z" fill="#3F3D56"/>
<path d="M187.195 82.5697C186.188 82.5697 185.204 82.2707 184.367 81.7107C183.529 81.1507 182.877 80.3547 182.491 79.4233C182.106 78.492 182.005 77.4672 182.202 76.4786C182.398 75.4899 182.883 74.5817 183.595 73.8689C184.307 73.1561 185.214 72.6707 186.202 72.474C187.189 72.2774 188.213 72.3783 189.143 72.7641C190.074 73.1498 190.869 73.8031 191.428 74.6413C191.987 75.4794 192.286 76.4648 192.286 77.4729C192.286 78.8246 191.75 80.121 190.795 81.0769C189.84 82.0327 188.545 82.5697 187.195 82.5697ZM187.195 73.8323C186.476 73.8323 185.773 74.0458 185.175 74.4459C184.577 74.8459 184.111 75.4145 183.835 76.0797C183.56 76.7449 183.488 77.4769 183.628 78.1831C183.769 78.8893 184.115 79.538 184.624 80.0471C185.132 80.5563 185.78 80.903 186.486 81.0435C187.191 81.184 187.922 81.1119 188.587 80.8363C189.251 80.5608 189.819 80.0942 190.219 79.4955C190.618 78.8968 190.831 78.1929 190.831 77.4729C190.831 76.5074 190.448 75.5814 189.766 74.8986C189.084 74.2159 188.159 73.8323 187.195 73.8323Z" fill="#3F3D56"/>
<path d="M188.65 126.255H137.013V92.7632H188.65V126.255ZM138.467 124.799H187.195V94.2194H138.467V124.799Z" fill="#3F3D56"/>
<path d="M138.132 92.8774L137.349 94.1052L187.532 126.142L188.314 124.914L138.132 92.8774Z" fill="#3F3D56"/>
<path d="M187.53 92.8751L137.348 124.912L138.13 126.139L188.313 94.1029L187.53 92.8751Z" fill="#3F3D56"/>
<path d="M328.987 255C345.563 255 359 241.548 359 224.953C359 208.359 345.563 194.906 328.987 194.906C312.411 194.906 298.974 208.359 298.974 224.953C298.974 241.548 312.411 255 328.987 255Z" fill="#6C63FF"/>
<path d="M293.958 37.2609H29.5225C29.2377 37.2211 28.9769 37.0795 28.7881 36.8623C28.5993 36.6451 28.4954 36.3669 28.4954 36.0791C28.4954 35.7912 28.5993 35.513 28.7881 35.2958C28.9769 35.0786 29.2377 34.937 29.5225 34.8972H293.958C294.242 34.937 294.503 35.0786 294.692 35.2958C294.881 35.513 294.985 35.7912 294.985 36.0791C294.985 36.3669 294.881 36.6451 294.692 36.8623C294.503 37.0795 294.242 37.2211 293.958 37.2609Z" fill="#CACACA"/>
<path d="M35.4132 28.8624C39.2343 28.8624 42.3319 25.6921 42.3319 21.7813C42.3319 17.8705 39.2343 14.7002 35.4132 14.7002C31.592 14.7002 28.4944 17.8705 28.4944 21.7813C28.4944 25.6921 31.592 28.8624 35.4132 28.8624Z" fill="#6C63FF"/>
<path d="M59.3148 28.8624C63.136 28.8624 66.2336 25.6921 66.2336 21.7813C66.2336 17.8705 63.136 14.7002 59.3148 14.7002C55.4937 14.7002 52.3961 17.8705 52.3961 21.7813C52.3961 25.6921 55.4937 28.8624 59.3148 28.8624Z" fill="#6C63FF"/>
<path d="M83.2155 28.8624C87.0366 28.8624 90.1343 25.6921 90.1343 21.7813C90.1343 17.8705 87.0366 14.7002 83.2155 14.7002C79.3944 14.7002 76.2968 17.8705 76.2968 21.7813C76.2968 25.6921 79.3944 28.8624 83.2155 28.8624Z" fill="#6C63FF"/>
<path d="M288.067 28.8624C291.888 28.8624 294.986 25.6921 294.986 21.7813C294.986 17.8705 291.888 14.7002 288.067 14.7002C284.246 14.7002 281.149 17.8705 281.149 21.7813C281.149 25.6921 284.246 28.8624 288.067 28.8624Z" fill="#E6E6E6"/>
</g>
<defs>
<clipPath id="clip0_8_711">
<rect width="359" height="195" fill="white"/>
</clipPath>
</defs>
</svg>
