<svg width="39" height="39" viewBox="0 0 39 39" fill="none" xmlns="http://www.w3.org/2000/svg">
<g clip-path="url(#clip0_8_762)">
<path d="M19.5 35.75C10.5462 35.75 3.25 28.4538 3.25 19.5C3.25 10.5462 10.5462 3.25 19.5 3.25C28.4538 3.25 35.75 9.815 35.75 17.875C35.75 23.2537 31.3787 27.625 26 27.625H23.1237C22.6687 27.625 22.3112 27.9825 22.3112 28.4375C22.3112 28.6325 22.3925 28.8113 22.5225 28.9737C23.1887 29.7375 23.5625 30.6963 23.5625 31.6875C23.5625 33.93 21.7425 35.75 19.5 35.75ZM19.5 6.5C12.3337 6.5 6.5 12.3337 6.5 19.5C6.5 26.6663 12.3337 32.5 19.5 32.5C19.955 32.5 20.3125 32.1425 20.3125 31.6875C20.3125 31.4275 20.1825 31.2325 20.085 31.1187C19.4187 30.3713 19.0612 29.4125 19.0612 28.4375C19.0612 26.195 20.8812 24.375 23.1237 24.375H26C29.5912 24.375 32.5 21.4662 32.5 17.875C32.5 11.6025 26.6663 6.5 19.5 6.5Z" fill="#323232"/>
<path d="M10.5625 21.125C11.9087 21.125 13 20.0337 13 18.6875C13 17.3413 11.9087 16.25 10.5625 16.25C9.21631 16.25 8.125 17.3413 8.125 18.6875C8.125 20.0337 9.21631 21.125 10.5625 21.125Z" fill="#323232"/>
<path d="M15.4375 14.625C16.7837 14.625 17.875 13.5337 17.875 12.1875C17.875 10.8413 16.7837 9.75 15.4375 9.75C14.0913 9.75 13 10.8413 13 12.1875C13 13.5337 14.0913 14.625 15.4375 14.625Z" fill="#323232"/>
<path d="M23.5625 14.625C24.9087 14.625 26 13.5337 26 12.1875C26 10.8413 24.9087 9.75 23.5625 9.75C22.2163 9.75 21.125 10.8413 21.125 12.1875C21.125 13.5337 22.2163 14.625 23.5625 14.625Z" fill="#323232"/>
<path d="M28.4375 21.125C29.7837 21.125 30.875 20.0337 30.875 18.6875C30.875 17.3413 29.7837 16.25 28.4375 16.25C27.0913 16.25 26 17.3413 26 18.6875C26 20.0337 27.0913 21.125 28.4375 21.125Z" fill="#323232"/>
</g>
<defs>
<clipPath id="clip0_8_762">
<rect width="39" height="39" fill="white"/>
</clipPath>
</defs>
</svg>
