<svg width="39" height="39" viewBox="0 0 39 39" fill="none" xmlns="http://www.w3.org/2000/svg">
<g clip-path="url(#clip0_8_965)">
<path d="M30.0625 6.5C31.4112 6.5 32.5 7.58875 32.5 8.9375V30.0625C32.5 31.4112 31.4112 32.5 30.0625 32.5C28.7138 32.5 27.625 31.4112 27.625 30.0625V8.9375C27.625 7.58875 28.7138 6.5 30.0625 6.5ZM10.5625 22.75C11.9112 22.75 13 23.8388 13 25.1875V30.0625C13 31.4112 11.9112 32.5 10.5625 32.5C9.21375 32.5 8.125 31.4112 8.125 30.0625V25.1875C8.125 23.8388 9.21375 22.75 10.5625 22.75ZM20.3125 14.625C21.6613 14.625 22.75 15.7137 22.75 17.0625V30.0625C22.75 31.4112 21.6613 32.5 20.3125 32.5C18.9637 32.5 17.875 31.4112 17.875 30.0625V17.0625C17.875 15.7137 18.9637 14.625 20.3125 14.625Z" fill="#323232"/>
</g>
<defs>
<clipPath id="clip0_8_965">
<rect width="39" height="39" fill="white"/>
</clipPath>
</defs>
</svg>
