<svg width="216" height="117" viewBox="0 0 216 117" fill="none" xmlns="http://www.w3.org/2000/svg">
<g clip-path="url(#clip0_8_971)">
<path d="M89.8546 19.0108C90.6102 17.4872 91.8204 16.2224 92.5598 14.6907C93.2992 13.159 93.4433 11.1087 92.2111 9.93627C91.165 8.94086 89.5259 8.92682 88.2749 8.20563C85.0872 6.36865 85.0908 0.533537 81.4479 0.0293514C79.6758 -0.215724 78.0724 1.1133 77.0013 2.54677C75.9303 3.98024 75.0768 5.65232 73.5913 6.64935C71.9096 7.7781 69.7358 7.82722 67.8684 8.6113C64.2884 10.1144 62.4114 13.9797 60.842 17.5323C59.8309 19.8205 58.7968 22.2888 59.2658 24.7463C58.2461 25.3809 58.7005 27.0878 59.7183 27.7253C60.7362 28.3628 62.0142 28.3488 63.1829 28.6249C65.6384 29.2052 67.6504 31.162 68.604 33.4986C69.3472 35.3204 69.4991 37.3207 69.6427 39.2829L70.3891 49.4984C70.4997 51.0134 70.6449 52.6233 71.5669 53.8304C72.489 55.0374 74.4853 55.5432 75.5215 54.4331C76.5118 53.3721 76.0658 51.6922 76.0458 50.2406C76.0259 48.7891 77.3376 46.9818 78.5745 47.741L79.0109 46.751C81.8362 45.7392 84.3101 43.9344 86.1366 41.5527C87.9631 39.1711 89.0646 36.3134 89.3095 33.3218C89.6244 28.5023 87.7069 23.3355 89.8546 19.0108Z" fill="#C7C7C7"/>
<path d="M92.7411 49.5666C93.0141 49.3093 93.2078 48.9794 93.2994 48.6156C93.391 48.2518 93.3766 47.8694 93.2581 47.5136C93.1395 47.1577 92.9216 46.8431 92.6302 46.6071C92.3387 46.371 91.9858 46.2232 91.6131 46.1812L91.6177 46.3447C91.086 46.6553 90.4795 46.8147 89.8637 46.8057C89.2502 46.796 88.6396 46.8927 88.059 47.0915C87.7704 47.1965 87.5204 47.3864 87.3417 47.6363C87.1631 47.8861 87.0642 48.1842 87.0582 48.4913C87.0919 48.7267 87.1819 48.9505 87.3206 49.1437C87.4592 49.3369 87.6425 49.4937 87.8547 49.6009C88.2808 49.8108 88.7383 49.9497 89.2091 50.0122C90.4234 50.2408 91.8433 50.4136 92.7411 49.5666Z" fill="#C7C7C7"/>
<path d="M116.402 19.0915C116.91 18.7459 117.342 18.2991 117.67 17.7789C117.829 17.5158 117.904 17.2108 117.887 16.904C117.869 16.5972 117.759 16.3028 117.571 16.0596C117.189 15.7276 116.696 15.5498 116.19 15.5606C114.815 15.4579 113.433 15.6209 112.119 16.0408L116.165 19.6262L116.402 19.0915Z" fill="#C7C7C7"/>
<path d="M109.657 22.2C110.202 22.8019 110.028 23.7355 109.873 24.5328C109.717 25.3301 109.699 26.3264 110.385 26.7614C110.979 27.1393 111.814 26.8308 112.247 26.2772C112.636 25.6872 112.872 25.0104 112.937 24.3069C113.15 23.2838 113.247 22.2398 113.224 21.1949C113.198 20.1423 112.827 19.1275 112.168 18.3069C111.699 17.773 111.076 17.3991 110.385 17.2376C109.693 17.0761 108.969 17.135 108.313 17.4062L108.939 17.3752C108.484 17.9602 108.138 18.6231 107.92 19.3317C107.815 19.6877 107.808 20.0652 107.899 20.4251C107.989 20.7849 108.174 21.1139 108.435 21.3779C108.808 21.6993 109.326 21.8346 109.657 22.2Z" fill="#C7C7C7"/>
<path d="M140.402 12.1063L140.514 11.7629C140.048 12.0324 139.688 12.4539 139.496 12.9569C139.303 13.4598 139.29 14.0136 139.457 14.5254C139.815 14.2427 140.092 13.8695 140.258 13.4443C140.424 13.019 140.474 12.5572 140.402 12.1063Z" fill="#C7C7C7"/>
<path d="M134.345 17.018C134.939 16.6819 135.445 16.2114 135.824 15.6443C136.203 15.0771 136.443 14.4291 136.527 13.7521C136.591 13.3313 136.542 12.901 136.386 12.5052C136.305 12.3086 136.177 12.135 136.014 11.9997C135.85 11.8645 135.655 11.7718 135.447 11.73L135.193 12.1294C134.829 11.8161 134.218 12.1383 134.065 12.5937C133.966 13.0663 134.008 13.5575 134.183 14.0072C134.359 14.4596 134.351 14.9627 134.161 15.4093C133.957 15.672 133.727 15.9138 133.474 16.1311C133.351 16.2432 133.271 16.3947 133.247 16.5597C133.223 16.7246 133.257 16.8927 133.343 17.0353C133.581 17.3084 134.028 17.194 134.345 17.018Z" fill="#C7C7C7"/>
<path d="M131.763 14.7857C131.981 14.3949 132.084 13.9505 132.06 13.5037L131.505 13.3296C131.15 13.4734 130.835 13.701 130.588 13.993C130.512 14.0684 130.455 14.1596 130.419 14.2599C130.383 14.3602 130.37 14.4672 130.38 14.5732C130.39 14.6793 130.424 14.7817 130.478 14.8732C130.533 14.9648 130.607 15.0431 130.695 15.1026C130.784 15.1622 130.884 15.2014 130.989 15.2176C131.095 15.2338 131.202 15.2265 131.304 15.1962C131.406 15.1659 131.501 15.1134 131.58 15.0424C131.66 14.9715 131.722 14.8838 131.764 14.7857H131.763Z" fill="#C7C7C7"/>
<path d="M158.888 11.9773C158.938 12.0194 158.988 12.0626 159.038 12.105C159.082 12.0958 159.124 12.078 159.169 12.0734L158.888 11.9773Z" fill="#C7C7C7"/>
<path d="M157.998 16.8488L159.527 15.6121C159.798 15.4205 160.028 15.1779 160.206 14.8979C160.328 14.6329 160.38 14.3414 160.358 14.0507C160.337 13.7599 160.242 13.4793 160.083 13.2351C159.801 12.8021 159.448 12.4201 159.038 12.1052C158.588 12.2116 158.193 12.4795 157.927 12.858C157.661 13.2365 157.543 13.6994 157.596 14.1589C157.688 14.7436 158.055 15.3684 157.756 15.8788C157.639 16.0774 157.438 16.2127 157.304 16.3997C157.169 16.5868 157.126 16.8855 157.311 17.0224C157.516 17.1751 157.8 17.0097 157.998 16.8488Z" fill="#C7C7C7"/>
<path d="M159.113 19.3724C159.302 19.3826 159.492 19.352 159.668 19.2825C159.845 19.213 160.004 19.1063 160.136 18.9697C160.817 18.4116 161.413 17.7569 161.904 17.0264L158.467 18.1154L158.824 18.5335C158.505 18.7408 158.741 19.3009 159.113 19.3724Z" fill="#C7C7C7"/>
<path d="M162.326 21.7327C162.396 21.9115 162.522 22.0625 162.686 22.1625C162.85 22.2626 163.042 22.3063 163.233 22.2868C163.423 22.2615 163.606 22.1947 163.767 22.0912C163.929 21.9878 164.066 21.8501 164.169 21.6879C164.343 21.4309 164.446 21.1319 164.466 20.822C164.486 20.512 164.423 20.2024 164.283 19.925C164.143 19.6476 163.932 19.4127 163.671 19.2444C163.41 19.0761 163.109 18.9806 162.798 18.9678L163.115 19.4514C163.196 20.2771 162.074 20.9424 162.326 21.7327Z" fill="#C7C7C7"/>
<path d="M184.591 30.7753C184.901 31.0067 185.278 31.1313 185.664 31.1304C186.051 31.1294 186.427 31.0031 186.736 30.7702C186.936 30.599 187.099 30.3884 187.214 30.1514C187.33 29.9144 187.395 29.6561 187.405 29.3929C187.416 29.1296 187.372 28.8669 187.277 28.6213C187.181 28.3757 187.036 28.1525 186.851 27.9656L186.265 28.2924C185.94 28.0837 185.547 28.0091 185.169 28.0843C184.79 28.1595 184.455 28.3787 184.235 28.6957C184.037 29.028 183.965 29.4199 184.03 29.8011C184.095 30.1822 184.294 30.5277 184.591 30.7753Z" fill="#C7C7C7"/>
<path d="M191.399 31.5461C191.684 31.4634 191.943 31.3087 192.152 31.097C192.36 30.8854 192.511 30.6238 192.589 30.3372L191.45 30.1877C191.134 29.9485 190.765 29.7875 190.374 29.7178C190.179 29.6884 189.979 29.7273 189.808 29.8279C189.637 29.9285 189.506 30.0847 189.437 30.2703C189.413 30.4282 189.43 30.5896 189.486 30.7393C189.542 30.8889 189.635 31.0217 189.757 31.1251C189.971 31.3301 190.235 31.4765 190.523 31.5502C190.81 31.624 191.112 31.6227 191.399 31.5464V31.5461Z" fill="#C7C7C7"/>
<path d="M186.699 33.8232C186.719 34.0085 186.791 34.1842 186.907 34.3298C187.023 34.4754 187.179 34.585 187.355 34.6457C187.547 34.737 187.762 34.7684 187.973 34.7358C188.183 34.7032 188.379 34.6081 188.535 34.4629C188.604 34.3853 188.653 34.2925 188.679 34.192C188.704 34.0916 188.705 33.9865 188.682 33.8854C188.659 33.7844 188.612 33.6903 188.546 33.611C188.479 33.5317 188.394 33.4695 188.299 33.4295L187.445 33.2743C187.115 33.1021 186.693 33.4508 186.699 33.8232Z" fill="#C7C7C7"/>
<path d="M137.168 39.8257L136.508 39.2222C136.683 39.4672 136.908 39.6728 137.168 39.8257Z" fill="#C7C7C7"/>
<path d="M132.122 36.2725C132.529 38.1619 134.563 39.7004 136.41 39.1336L136.507 39.2226C135.92 38.4175 135.82 37.2253 135.957 36.1908C136.212 34.4159 136.91 32.7339 137.986 31.2999C139.062 29.8659 140.482 28.7261 142.115 27.9856C142.562 27.8459 142.962 27.5853 143.27 27.2326C143.533 26.8477 143.435 26.1872 142.982 26.0784C142.736 26.0499 142.487 26.1071 142.278 26.2404L138.845 27.93C137.112 28.7834 135.344 29.6615 133.982 31.0326C132.62 32.4037 131.715 34.3832 132.122 36.2725Z" fill="#C7C7C7"/>
<path d="M76.7161 101.24C73.5181 98.9506 70.0153 97.1196 66.3098 95.8011C64.0323 94.9913 61.5851 94.3733 59.2129 94.8332C57.9116 95.1024 56.6921 95.675 55.6536 96.5042C54.615 97.3335 53.7867 98.396 53.2358 99.6057C52.7052 100.824 52.4556 102.146 52.5057 103.474C52.5558 104.802 52.9042 106.102 53.5251 107.277C54.6193 109.328 56.5145 110.962 57.148 113.198C57.5752 114.706 57.3728 116.312 57.1672 117.866L55.907 127.392C55.5247 130.283 55.1515 133.292 56.067 136.061C56.9826 138.829 59.5934 141.27 62.4942 140.976L63.069 140.933C61.1501 139.628 60.6134 136.926 61.1836 134.677C61.7538 132.427 63.205 130.52 64.6206 128.681L77.2248 112.31C78.9248 110.102 80.7225 107.374 79.8153 104.739C79.2996 103.241 78.0038 102.163 76.7161 101.24Z" fill="#C7C7C7"/>
<path d="M48.0837 87.4461C47.6581 87.302 47.2088 87.6224 46.9587 87.9956C46.7565 88.3965 46.5189 88.7785 46.2487 89.1371C45.5943 89.8118 44.4016 89.6769 43.6957 89.0561C42.9898 88.4353 42.6841 87.4753 42.547 86.546C42.3827 85.4299 42.4536 84.1848 43.19 83.3306C43.948 82.4509 45.1942 82.215 46.3407 82.0323C47.5251 81.8434 48.8519 81.6863 49.8217 82.3913C50.4329 82.8353 50.7891 83.5519 51.3553 84.052C51.9214 84.5522 52.9285 84.7416 53.3545 84.1179C53.4661 83.8968 53.5224 83.6519 53.5189 83.4043C53.5153 83.1567 53.4519 82.9136 53.334 82.6957C53.0946 82.2618 52.9505 81.7818 52.9115 81.2877C52.9401 80.6018 53.4905 80.0569 54.054 79.6647C54.6174 79.2725 55.2534 78.9343 55.6231 78.3562C56.0778 77.6447 56.0295 76.7284 56.3115 75.9327C56.9939 74.0066 59.4301 73.15 60.1395 71.2336C60.3105 70.8305 60.3296 70.3791 60.1935 69.9629C59.8967 69.1996 59.0936 69.3494 59.0445 68.4166C58.9973 67.5243 59.7415 66.649 60.4979 66.2765C61.5406 65.7637 62.7559 65.8045 63.9179 65.7731C65.0798 65.7418 66.3314 65.5875 67.183 64.7974C67.459 64.5129 67.6718 64.1733 67.8075 63.8008C67.9432 63.4283 67.9987 63.0314 67.9705 62.636C67.9422 62.2406 67.8308 61.8556 67.6436 61.5062C67.4563 61.1568 67.1974 60.8509 66.8838 60.6085C66.2483 60.1696 65.4452 60.0168 64.827 59.5542C64.0569 58.978 63.6936 58.0179 63.0927 57.266C62.5938 56.6934 62.0229 56.1878 61.3943 55.7618L59.8505 54.616C58.9201 53.9256 57.9522 53.2176 56.8202 52.9715C55.6882 52.7253 54.34 53.0735 53.7731 54.084C53.5494 54.5344 53.4273 55.0283 53.4153 55.531C53.3636 56.7145 53.413 57.9003 53.5629 59.0754L53.8432 61.9132C53.9269 62.7613 53.837 63.8792 53.014 64.0995C51.1882 64.5877 51.8043 61.8862 51.3995 61.0603C50.7789 59.7942 47.932 59.1861 46.7145 58.6581C45.954 58.3286 45.1518 57.9647 44.6928 57.2749C44.1213 56.416 44.2386 55.2473 44.6869 54.3183C45.1351 53.3893 45.865 52.633 46.5283 51.843C47.2042 51.0379 47.82 50.1839 48.435 49.331L50.5746 46.3634C51.4894 45.0948 52.4508 43.5463 51.9314 42.0718C51.8188 41.8745 51.6505 41.7147 51.4476 41.6126C51.2446 41.5104 51.016 41.4705 50.7905 41.4977C50.5649 41.5249 50.3524 41.618 50.1796 41.7655C50.0067 41.913 49.8812 42.1081 49.8188 42.3266C49.591 43.1231 50.1984 44.1399 49.6175 44.7302C49.4183 44.8904 49.1691 44.9756 48.9135 44.9706C48.6579 44.9657 48.4122 44.871 48.2194 44.7032C47.8427 44.3556 47.5557 43.922 47.3829 43.4395C46.6788 41.874 45.9929 40.2996 45.27 38.7431C45.0414 38.251 44.8032 37.4087 44.1097 37.4915C43.5087 37.5636 43.1841 38.4397 43.2049 38.949C43.2354 39.6891 43.6442 40.3504 43.9567 41.0219C44.2691 41.6934 44.4877 42.4996 44.1455 43.1561C43.7111 43.9871 42.6104 44.1739 41.6732 44.1463C39.9067 44.0928 38.1758 43.636 36.6128 42.8108C36.572 43.6792 36.5312 44.5477 36.4903 45.4163L32.7584 43.8538L32.0336 43.5504C30.9841 43.111 29.9336 42.6713 28.8532 42.3145C28.2398 42.1121 27.6181 41.9366 26.9966 41.7614L25.8633 41.4419C25.1177 41.1776 24.3269 41.0647 23.5372 41.1099C22.7075 41.2141 21.9675 41.66 21.2001 41.993C19.4882 42.7364 17.2739 41.9884 15.4392 41.9752C14.7114 40.9126 13.7289 40.0494 12.5816 39.4646C11.4342 38.8799 10.1585 38.5921 8.87126 38.6278C7.58401 38.6635 6.32624 39.0214 5.213 39.6689C4.09975 40.3163 3.16657 41.2326 2.49878 42.3339C2.17625 42.8919 1.88902 43.4695 1.63878 44.0635L0.891851 45.7369C0.526751 46.5555 0.153555 47.4179 0.225334 48.3113C0.297112 49.2047 0.980897 50.1175 1.87786 50.1094C-0.235293 51.0662 -0.674868 54.4147 1.11933 55.8854C1.61611 56.2924 2.22569 56.5588 2.67256 57.019C3.01009 57.3676 3.23582 57.8092 3.32081 58.287C3.4058 58.7648 3.34616 59.2571 3.14956 59.7008C2.95296 60.1445 2.62835 60.5194 2.21735 60.7773C1.80635 61.0353 1.32769 61.1645 0.842741 61.1486C2.09461 61.6325 3.47354 61.6775 4.75429 61.2762C6.03504 60.875 7.1419 60.0512 7.89406 58.9394C8.66122 57.738 8.99449 56.2371 10.0382 55.2662C11.4204 53.9807 13.7033 54.0803 15.2972 55.0913C16.8912 56.1024 17.8996 57.8236 18.5934 59.5793C19.5022 61.8803 20.084 64.5094 22.0204 66.0485C22.9568 66.7926 24.1425 67.2112 24.9704 68.0746C26.1491 69.3043 26.3528 71.1605 26.3263 72.8639C26.2999 74.5672 26.1164 76.3346 26.7368 77.9211C27.3572 79.5076 29.1354 80.8126 30.7305 80.2153C30.2736 81.5713 30.2877 83.0419 30.7706 84.3889C31.2535 85.7358 32.1769 86.8803 33.3912 87.6369L32.5196 82.2294C33.9675 82.6372 34.9063 84.042 35.4482 85.4456C35.99 86.8491 36.2766 88.3673 37.0624 89.6504C38.2996 91.671 40.5402 92.5417 42.8193 92.5341C45.2813 92.5257 46.2161 91.3517 47.8384 89.6224C48.1644 89.3273 48.4118 88.9557 48.5583 88.5411C48.6245 88.332 48.6129 88.1061 48.5257 87.9049C48.4384 87.7036 48.2815 87.5407 48.0837 87.4461Z" fill="#C7C7C7"/>
<path d="M55.0554 87.3563L50.9268 86.7085L53.0912 88.01C53.6925 88.4104 54.3463 88.7255 55.0341 88.9466C55.3791 89.0551 55.7427 89.0915 56.1024 89.0536C56.4621 89.0157 56.8102 88.9043 57.1251 88.7263L56.9489 88.3895C56.672 87.6864 55.8007 87.4734 55.0554 87.3563Z" fill="#C7C7C7"/>
<path d="M54.1204 95.0075L54.1298 94.9835C54.0466 94.8454 53.924 94.7354 53.7778 94.6676C53.6315 94.5998 53.4684 94.5773 53.3092 94.6029C52.9922 94.6596 52.6681 94.6649 52.3494 94.6186C52.147 94.5394 51.9664 94.413 51.8229 94.2497C51.6793 94.0865 51.5769 93.8913 51.5242 93.6804C51.3874 93.2688 51.3469 92.8283 51.1912 92.4234C51.0787 92.1032 50.88 91.8203 50.617 91.6058C50.3541 91.3913 50.0371 91.2534 49.7009 91.2075C49.3635 91.1804 49.029 91.2872 48.7698 91.5049C48.5105 91.7225 48.3473 92.0335 48.3155 92.3705C48.3419 92.7176 48.4521 93.053 48.6366 93.3481L49.0818 94.2048C49.2073 94.4608 49.3517 94.7071 49.5136 94.9417C49.7764 95.3038 50.12 95.5997 50.517 95.8057C50.9141 96.0118 51.3538 96.1224 51.8011 96.1288C52.2484 96.1351 52.6911 96.0371 53.0939 95.8424C53.4967 95.6477 53.8485 95.3618 54.1215 95.0073L54.1204 95.0075Z" fill="#C7C7C7"/>
<path d="M46.083 21.7563C47.1309 22.3741 48.4431 22.8001 48.941 23.9102L49.2284 24.003L48.2885 25.1712C47.9013 25.6524 47.4941 26.1887 47.5032 26.8063C47.5157 27.657 48.3338 28.2986 49.1604 28.4991C50.0424 28.6806 50.9604 28.5279 51.7362 28.0705C52.5119 27.6132 53.0902 26.8838 53.3586 26.0241C53.4568 25.6654 53.4976 25.2935 53.5837 24.9321C53.8349 24.0743 54.2142 23.2593 54.7086 22.5148L63.0566 8.46748C63.403 7.88421 63.7603 7.18678 63.4996 6.56032C63.3605 6.29541 63.1453 6.07823 62.8817 5.93675C62.6181 5.79528 62.3182 5.73599 62.0206 5.76653C61.4267 5.83883 60.8538 6.0317 60.3371 6.33333C60.1075 5.92995 59.7835 5.58833 59.3929 5.3378C59.0023 5.08727 58.5567 4.93532 58.0944 4.895C57.17 4.82361 56.2401 4.90459 55.342 5.13468C53.3128 5.44095 51.3562 6.11331 49.5673 7.11903C48.5886 7.61377 47.5116 8.22565 47.2277 9.28449C46.8785 10.5876 48.0041 11.9158 49.2999 12.2904C50.5957 12.6651 51.9789 12.3504 53.2906 12.0351C53.4389 12.6711 53.3771 13.338 53.1145 13.9359C52.8519 14.5337 52.4027 15.0304 51.8341 15.3514C51.2655 15.6724 50.6083 15.8005 49.9608 15.7164C49.3134 15.6323 48.7106 15.3406 48.2429 14.8851C47.3027 13.9695 46.8424 12.3798 45.5515 12.1436C44.2648 11.908 43.2421 13.2807 42.958 14.5579C42.6802 15.9335 42.8309 17.3612 43.3897 18.6485C43.9485 19.9358 44.8885 21.0207 46.083 21.7569V21.7563Z" fill="#C7C7C7"/>
<path d="M62.2219 44.2876C61.602 42.5407 60.7874 40.8691 59.7933 39.3046C59.0405 38.0672 58.1112 36.9462 57.0347 35.9772C56.0506 35.1273 54.9194 34.4646 53.697 34.0217C52.5097 33.5926 51.1893 33.3804 49.9899 33.7718C48.7904 34.1632 47.7698 35.2787 47.7941 36.5405C47.8211 37.9357 49.0414 39.0269 50.3134 39.6002C51.5855 40.1735 53.0002 40.4228 54.1992 41.1346C55.0151 41.6295 55.697 42.3174 56.185 43.1377C56.6729 43.958 56.9519 44.8856 56.9975 45.8391L57.2997 46.3389C56.615 46.5655 55.9765 46.9129 55.4143 47.3646C55.1359 47.5944 54.9231 47.8936 54.7973 48.232C54.6716 48.5705 54.6373 48.9361 54.6981 49.292C54.9078 50.1368 55.7702 50.6215 56.5501 51.008L60.8732 53.1498C60.1395 50.9613 62.5417 48.9249 62.6747 46.6207C62.6799 45.8199 62.5257 45.0261 62.2211 44.2855L62.2219 44.2876Z" fill="#C7C7C7"/>
<path d="M25.9877 38.379C26.862 39.0581 28.2058 38.7404 29.0067 37.9763C29.8076 37.2122 30.1976 36.1247 30.5613 35.0791C30.4285 36.114 30.4411 37.1624 30.5988 38.1938C30.681 38.7096 30.8692 39.2026 31.1517 39.6418C31.4342 40.081 31.8048 40.4567 32.24 40.7453C32.6352 40.9617 33.0612 41.1164 33.5032 41.2041C35.558 41.6719 37.7054 41.5185 39.6729 40.7633L39.6904 40.0905C38.702 40.2033 37.9543 39.1188 37.8889 38.1261C37.8236 37.1334 38.1839 36.1595 38.2157 35.1649C38.2476 34.1703 37.7683 33.0084 36.7893 32.8316C36.9606 33.1758 37.0231 33.564 36.9684 33.9445C36.9137 34.3251 36.7444 34.6799 36.4831 34.9619C36.2218 35.2439 35.8808 35.4395 35.5056 35.5229C35.1304 35.6063 34.7387 35.5734 34.3826 35.4286C33.2492 34.9679 32.838 33.5871 31.9623 32.7328C31.4213 32.2515 30.75 31.9408 30.033 31.84C29.3159 31.7391 28.585 31.8526 27.9322 32.166C27.2877 32.4949 26.7223 32.9599 26.275 33.5288C25.8277 34.0977 25.5093 34.757 25.3417 35.461C25.0754 36.4837 25.1542 37.7315 25.9877 38.379Z" fill="#C7C7C7"/>
<path d="M52.9663 31.293L53.0067 31.2271C52.7639 30.5222 52.0062 30.1089 51.2679 30.0042C50.5236 29.955 49.7762 29.9797 49.0368 30.0779C48.2906 30.1744 47.5341 30.0078 46.8975 29.6066C46.3893 29.2266 46.0998 28.6288 45.6934 28.141C45.287 27.6533 44.6294 27.2525 44.0393 27.4857C43.4003 27.7381 43.2297 28.6339 43.5398 29.2471C43.9048 29.8355 44.4556 30.2854 45.1049 30.5257C47.565 31.6552 50.3331 31.9254 52.9652 31.293H52.9663Z" fill="#C7C7C7"/>
<path d="M44.5687 33.4058C44.3648 33.5557 44.2266 33.7786 44.1831 34.028C44.1396 34.2774 44.1941 34.5339 44.3352 34.7441C44.4763 34.9542 44.6931 35.1017 44.9404 35.1557C45.1876 35.2098 45.4462 35.1662 45.6621 35.0341L45.878 35.2471C46.1648 34.7343 46.2827 34.0455 45.9163 33.5858C45.7532 33.3952 45.5256 33.2714 45.277 33.2382C45.0284 33.205 44.7762 33.2648 44.5689 33.4061L44.5687 33.4058Z" fill="#C7C7C7"/>
<path d="M42.0462 35.2477C42.0493 35.0642 41.9969 34.8841 41.8958 34.731C41.7946 34.5779 41.6495 34.459 41.4795 34.39C41.3638 34.3701 41.2453 34.3739 41.131 34.4011C41.0168 34.4283 40.9093 34.4783 40.8149 34.5481C40.7206 34.618 40.6413 34.7062 40.5819 34.8075C40.5226 34.9088 40.4843 35.0211 40.4695 35.1376C40.4517 35.3749 40.4828 35.6134 40.5611 35.8382C40.6393 36.0629 40.7629 36.2692 40.9242 36.4442C41.018 36.5852 41.1406 36.7046 41.284 36.7947C41.4273 36.8848 41.5881 36.9434 41.7558 36.9668C42.0937 36.9778 42.4383 36.6245 42.3012 36.3155L41.7852 36.3055C41.9442 35.9747 42.0331 35.6145 42.0464 35.2477H42.0462Z" fill="#C7C7C7"/>
<path d="M31.958 29.9636L32.5263 30.4243C32.8544 30.7081 33.2089 30.9599 33.5849 31.1763C34.2425 31.5407 35.0159 31.6355 35.742 31.4405C36.1005 31.3383 36.4275 31.1475 36.6929 30.8856C36.9583 30.6237 37.1534 30.2992 37.2604 29.942C37.4868 29.0883 37.1174 28.2017 36.7558 27.396C36.6733 27.1654 36.5372 26.9577 36.3586 26.79C36.2672 26.7089 36.1505 26.6618 36.0284 26.6569C35.9063 26.652 35.7862 26.6895 35.6886 26.7631C35.6178 26.8512 35.5707 26.9559 35.5519 27.0674C35.533 27.1788 35.5429 27.2932 35.5806 27.3998C35.6584 27.6121 35.694 27.8375 35.6853 28.0635C35.6492 28.2864 35.4155 28.4969 35.2096 28.4046L35.1767 29.1631C34.1931 28.6651 33.6728 27.3401 32.5781 27.2095C32.3324 27.1802 32.0834 27.2189 31.8582 27.3215C31.633 27.4241 31.4403 27.5865 31.3011 27.7911C31.1619 27.9957 31.0815 28.2347 31.0688 28.4818C31.0561 28.729 31.1114 28.9749 31.2289 29.1928C31.4187 29.4949 31.6663 29.7567 31.9574 29.9631L31.958 29.9636Z" fill="#C7C7C7"/>
<path d="M29.615 26.6887C29.8425 26.5327 30.0226 26.3168 30.1353 26.0649C30.248 25.813 30.289 25.5349 30.2537 25.2612C30.2265 25.1286 30.1704 25.0037 30.0894 24.8953C30.0084 24.7869 29.9046 24.6976 29.7852 24.6339C29.6659 24.5702 29.534 24.5336 29.3989 24.5266C29.2637 24.5197 29.1288 24.5426 29.0035 24.5937C28.7225 24.804 28.5251 25.107 28.4463 25.449L27.6686 27.6434L28.1044 27.3262C28.6435 27.2102 29.1561 26.9939 29.6155 26.6887H29.615Z" fill="#C7C7C7"/>
<path d="M34.6638 22.2C34.7416 22.1019 34.797 21.9878 34.826 21.8659C34.855 21.744 34.857 21.6173 34.8317 21.4945C34.8065 21.3718 34.7547 21.2561 34.6799 21.1556C34.6052 21.055 34.5093 20.9721 34.399 20.9126L33.8542 20.8616C33.7303 20.8929 33.6155 20.9529 33.5189 21.0366C33.4224 21.1204 33.3468 21.2256 33.2983 21.3439C33.2498 21.4621 33.2296 21.5901 33.2395 21.7176C33.2494 21.845 33.289 21.9684 33.3551 22.0777C33.4213 22.1871 33.5121 22.2795 33.6204 22.3474C33.7287 22.4152 33.8514 22.4568 33.9786 22.4687C34.1059 22.4806 34.2341 22.4625 34.3531 22.4158C34.4721 22.3692 34.5785 22.2953 34.6638 22.2Z" fill="#C7C7C7"/>
<path d="M39.6769 23.0411C40.1853 23.284 40.8289 23.5161 41.2711 23.1669C41.4021 23.0483 41.4996 22.8972 41.5536 22.729C41.6077 22.5607 41.6165 22.3812 41.579 22.2084C41.4997 21.8639 41.3463 21.5407 41.1295 21.2613C40.4531 20.29 39.5936 19.46 38.5994 18.8179L38.3536 19.1374C38.0104 20.0281 37.679 21.0702 38.1577 21.8972C38.4807 22.4543 39.0959 22.7639 39.6769 23.0411Z" fill="#C7C7C7"/>
<path d="M43.4642 23.8348L44.4148 24.2651C44.3218 24.1025 44.1798 23.9733 44.0091 23.8961C43.8384 23.8189 43.6477 23.7974 43.4642 23.8348Z" fill="#C7C7C7"/>
<path d="M40.9023 26.8266L40.453 26.9748C40.0709 27.6026 40.2371 28.4053 40.4144 29.1187C40.5267 29.5697 40.769 30.1244 41.2331 30.1038C41.6849 30.0839 41.8845 29.537 41.9712 29.0925C42.1064 28.6104 42.1211 28.1025 42.0138 27.6134C41.9526 27.3713 41.807 27.1591 41.6032 27.0148C41.3995 26.8706 41.1509 26.8038 40.9023 26.8266Z" fill="#C7C7C7"/>
<path d="M33.7384 24.7136L34.0709 24.8485C34.1488 24.8376 34.221 24.8012 34.2762 24.7451C34.3314 24.6889 34.3665 24.6162 34.3762 24.538C34.3859 24.4599 34.3695 24.3807 34.3296 24.3128C34.2897 24.245 34.2286 24.1921 34.1556 24.1625C34.0827 24.1329 34.002 24.1282 33.9261 24.1491C33.8502 24.17 33.7833 24.2153 33.7358 24.2781C33.6883 24.3408 33.6628 24.4175 33.6633 24.4963C33.6637 24.575 33.6902 24.6514 33.7384 24.7136Z" fill="#C7C7C7"/>
<path d="M50.4964 50.1366C50.3354 50.1402 50.1776 50.1823 50.0361 50.2593C49.8946 50.3363 49.7736 50.446 49.6832 50.5793C49.5927 50.7125 49.5354 50.8655 49.5161 51.0254C49.4967 51.1853 49.5158 51.3476 49.5719 51.4986C49.8984 52.2003 51.0226 52.2046 51.522 51.6119C51.65 51.4436 51.7418 51.2505 51.7914 51.0449C51.841 50.8393 51.8475 50.6257 51.8105 50.4175C51.7734 50.2092 51.6936 50.0109 51.576 49.8351C51.4585 49.6593 51.3058 49.5098 51.1275 49.396L50.4964 50.1366Z" fill="#C7C7C7"/>
<path d="M66.6879 66.7916C66.5572 66.8265 66.4348 66.8872 66.328 66.9701C66.2212 67.0531 66.1322 67.1566 66.066 67.2746C65.9999 67.3926 65.9581 67.5227 65.9431 67.6571C65.9281 67.7915 65.9402 67.9276 65.9787 68.0572L66.9121 68.122L67.8603 67.6459C67.8412 67.512 67.7955 67.3833 67.7258 67.2673C67.6561 67.1514 67.5639 67.0507 67.4547 66.971C67.3454 66.8913 67.2212 66.8344 67.0896 66.8035C66.9579 66.7727 66.8214 66.7685 66.6881 66.7914L66.6879 66.7916Z" fill="#C7C7C7"/>
<path d="M62.8946 67.9462C62.6274 68.1357 62.4129 68.3903 62.2713 68.6857C62.1296 68.9812 62.0656 69.3079 62.0851 69.635C62.1155 69.9612 62.2489 70.2692 62.4659 70.5145C62.6829 70.7599 62.9724 70.9298 63.2924 70.9996C63.6154 71.0501 63.9454 70.9761 64.2159 70.7926C64.4864 70.609 64.6772 70.3295 64.7496 70.0107C64.9074 69.0452 63.8699 68.3373 63.4969 67.4333L62.8946 67.9462Z" fill="#C7C7C7"/>
<path d="M99.1434 61.5688C99.2419 62.2938 98.5889 62.9286 98.5646 63.6598C98.5357 64.5273 99.4799 65.2023 100.343 65.1173C100.772 65.043 101.178 64.8703 101.528 64.6127C101.879 64.3551 102.165 64.0197 102.364 63.6328L102.383 63.5518L101.121 62.1251C100.604 61.541 100.057 60.8762 100.077 60.0968C100.087 59.7124 100.239 59.341 100.23 58.9559C100.209 58.6794 100.148 58.4075 100.047 58.1494C99.9327 57.8093 99.7767 57.4263 99.4381 57.3127C99.0131 57.1691 98.584 57.5459 98.3811 57.9461C98.1986 58.3154 98.1099 58.7239 98.1228 59.1356C98.1358 59.5473 98.25 59.9494 98.4553 60.3065C98.7009 60.7224 99.0781 61.0892 99.1434 61.5688Z" fill="#C7C7C7"/>
<path d="M95.1781 64.1193C95.2701 64.169 95.3717 64.1983 95.476 64.205C95.5804 64.2117 95.6849 64.1957 95.7825 64.1582C96.1574 64.0944 96.5176 63.9635 96.846 63.7717C97.0086 63.6733 97.1422 63.5336 97.2332 63.3667C97.3242 63.1997 97.3693 63.0117 97.3638 62.8216C97.3071 62.5824 97.1807 62.3653 97.0006 62.198C96.8204 62.0307 96.5946 61.9206 96.3519 61.8818C96.1834 61.8225 96.0029 61.8056 95.8263 61.8325C95.6498 61.8595 95.4825 61.9296 95.3394 62.0365C95.0261 62.3307 95.0634 62.8297 95.1236 63.2551L95.0574 63.366C95.0008 63.6287 94.9622 63.9552 95.1781 64.1193Z" fill="#C7C7C7"/>
<path d="M161.385 95.0978L161.112 94.4189C160.988 94.7261 161.034 95.0405 161.385 95.0978Z" fill="#C7C7C7"/>
<path d="M216 47.4987C214.832 46.2317 214.118 45.5014 213.38 43.9308C212.979 43.0646 212.37 42.3113 211.607 41.7381C210.843 41.1649 209.95 40.7896 209.007 40.6457C206.585 40.2465 204.109 40.8787 201.658 40.7521C197.731 40.5491 194.19 38.4425 190.43 37.2935C188.325 36.7038 186.18 36.2619 184.013 35.971L180.267 35.3772C176.174 34.7294 172.055 34.0816 167.912 34.1664C166.717 34.1912 165.051 33.8319 165.148 32.6406C165.267 31.1609 167.928 31.355 168.44 29.9618C168.757 29.0999 167.999 28.1949 167.168 27.8052C166.336 27.4155 165.377 27.2983 164.622 26.775C163.868 26.2516 163.455 25.0387 164.148 24.4368L158.382 27.3933C156.784 28.2128 154.999 29.2786 154.716 31.0525C153.753 31.3069 152.911 31.8924 152.336 32.7062C151.255 32.7118 150.406 33.7499 150.227 34.8166C150.049 35.8832 150.373 36.9626 150.694 37.9953C150.301 37.2438 149.884 36.4641 149.194 35.9737C148.503 35.4832 147.45 35.3901 146.861 35.999C146.256 36.6239 146.398 37.6724 146.826 38.4298C147.253 39.1872 147.911 39.7982 148.314 40.5685C149.575 42.9745 147.29 46.3618 144.588 46.0938C144.769 43.6094 144.95 41.125 145.132 38.6406C145.246 37.8763 145.182 37.096 144.943 36.361C144.648 35.6498 143.893 35.0654 143.142 35.2336C141.791 35.5356 141.907 37.5146 142.467 38.7796C143.028 40.0447 143.589 41.8039 142.442 42.5788C141.701 43.0792 140.697 42.7702 139.898 42.3707C139.098 41.9713 138.243 41.48 137.369 41.6657C136.495 41.8514 135.945 43.1888 136.717 43.6387L132.875 42.971C132.812 43.3481 132.67 43.7076 132.459 44.0265C132.248 44.3453 131.973 44.6163 131.65 44.822C131.328 45.0276 130.966 45.1634 130.588 45.2204C130.21 45.2775 129.824 45.2546 129.456 45.1532L129.078 43.5896L128.516 43.4331C129.104 43.5969 128.184 46.0782 127.358 47.974C126.249 47.8439 124.628 47.8188 124.444 47.5008C123.558 45.9783 123.663 42.3518 122.123 41.4951C121.352 41.0656 120.56 40.6743 119.749 40.321C119.323 40.1182 118.873 39.9704 118.409 39.8811C117.465 39.7321 116.511 40.0252 115.599 40.3151C114.522 40.6573 113.419 41.0125 112.527 41.707C111.765 42.368 111.112 43.1449 110.592 44.009L105.307 51.8326C104.782 52.529 104.369 53.303 104.083 54.1268C103.948 54.5364 103.903 54.9703 103.951 55.3988C103.999 55.8273 104.139 56.2404 104.362 56.6099C104.596 56.9721 104.945 57.2449 105.354 57.3844C105.762 57.5239 106.205 57.5219 106.612 57.3789C107.123 57.1578 107.634 56.6569 108.14 56.8882C108.523 57.0633 108.619 57.5673 108.579 57.9867C108.481 58.3975 108.474 58.8245 108.556 59.2385C108.787 59.8917 109.673 60.1187 110.305 59.8361C110.92 59.5005 111.38 58.9392 111.589 58.2706C112.198 56.7084 112.136 54.9797 112.288 53.3095C112.44 51.6393 112.896 49.8533 114.212 48.8147C114.606 48.5038 115.185 48.2798 115.591 48.5753C115.743 48.7133 115.848 48.8953 115.891 49.0959C115.935 49.2966 115.915 49.5058 115.834 49.6944C115.664 50.0674 115.443 50.4148 115.177 50.7265C114.727 51.3594 114.412 52.0781 114.252 52.8379C114.092 53.5977 114.09 54.3823 114.246 55.143L114.516 55.3095C115.541 55.0431 116.916 55.52 118.279 55.9772C117.29 56.2714 116.419 56.8706 115.79 57.6893C114.215 59.8998 113.075 61.9916 109.959 61.9654C109.22 61.9592 108.487 61.8129 107.748 61.8113C107.002 61.7651 106.266 62.01 105.697 62.4944C105.136 63.0434 104.963 63.879 104.483 64.4998C103.852 65.3163 102.799 65.6483 101.836 66.0188C101.133 66.2888 100.392 66.6553 100.068 67.3363C99.8655 67.8948 99.8189 68.4981 99.9336 69.0812C100.042 70.1125 100.234 71.2855 101.108 71.8421C101.436 72.0128 101.793 72.1167 102.161 72.1478C102.529 72.1789 102.899 72.1365 103.25 72.0232C104.16 71.8019 105.05 71.3849 105.984 71.4472C107.451 71.5449 108.659 72.9536 108.674 74.424C108.682 75.1684 108.464 76.0221 108.958 76.5798C109.421 77.1036 110.341 77.0103 110.82 76.5017C111.043 76.2313 111.196 75.9104 111.267 75.5669C111.337 75.2235 111.323 74.8679 111.224 74.5314C111.02 73.8609 110.707 73.2289 110.296 72.661C110.784 72.5344 111.301 72.5809 111.759 72.7924C112.217 73.004 112.587 73.3677 112.807 73.8216C113.133 74.5457 113.028 75.3811 113.131 76.1698C113.234 76.9584 113.714 77.8318 114.507 77.8775C114.767 77.8847 115.02 77.801 115.224 77.6409C115.428 77.4808 115.569 77.2543 115.624 77.0008C115.632 76.6013 115.61 76.2017 115.559 75.8054C115.586 75.4153 115.761 75.0503 116.048 74.7853C116.336 74.5203 116.714 74.3754 117.105 74.3803C116.864 74.8261 116.785 75.342 116.883 75.8394C116.98 76.3369 117.248 76.7848 117.64 77.1063C118.243 77.5733 119.04 77.6775 119.792 77.8081C120.543 77.9387 121.345 78.1449 121.83 78.7336C122.638 79.7142 121.649 80.156 121.495 80.9865C121.306 82.0062 122.157 83.5118 122.485 84.4872L126.993 90.7963C127.329 91.3077 127.725 91.7769 128.172 92.1938C129.656 93.4683 132.101 93.3426 133.524 92.0006C134.214 91.3025 134.662 90.4015 134.803 89.4299C134.943 88.4583 134.768 87.4673 134.304 86.6025C133.425 85.0016 131.682 84.0114 130.823 82.3989C132.255 83.5846 134.013 84.3077 135.864 84.4726C139.14 85.1385 142.253 86.4441 145.024 88.3147C145.154 91.2103 146.264 93.9755 148.173 96.1563C148.516 93.6852 149.668 91.3973 151.449 89.65C152.606 88.5204 154.189 87.6098 155.777 87.9137C157.366 88.2176 158.571 90.2435 157.61 91.545L160.025 91.7247L161.108 94.4184C161.173 94.2297 161.296 94.0666 161.459 93.953C161.623 93.8393 161.819 93.7811 162.018 93.7868C162.772 93.9007 163.3 94.602 164.017 94.8611C165.369 95.3493 166.814 93.9974 166.988 92.5704C167.163 91.1434 166.485 89.7666 165.826 88.4896C167.282 88.7595 168.785 88.5988 170.151 88.0272C171.517 87.4557 172.687 86.4981 173.518 85.2716C174.348 84.0452 174.803 82.6031 174.827 81.1221C174.851 79.641 174.442 78.1852 173.651 76.9328C175.218 75.2868 177.062 73.929 179.098 72.9214C180.983 71.99 183.045 71.3509 184.692 70.0442C186.34 68.7376 187.495 66.4691 186.702 64.5214C186.143 63.1449 184.739 62.2115 184.319 60.7867C183.71 58.7241 185.558 56.5907 187.645 56.0755C189.733 55.5602 191.912 56.1937 193.968 56.822C193.652 54.706 196.105 52.7222 198.107 53.4736L200.624 52.4544C199.653 54.5988 197.545 55.9632 195.995 57.7357C194.446 59.5082 193.523 62.3951 195.142 64.1055L202.101 57.7964L209.38 51.1969L209.033 50.1756C211.332 49.3033 213.804 48.5818 216 47.4987Z" fill="#C7C7C7"/>
<path d="M95.5094 75.8024C95.4158 75.9373 95.366 76.0978 95.3668 76.262C95.3677 76.4262 95.419 76.5862 95.514 76.7201C95.6386 76.826 95.7961 76.8851 95.9596 76.8873C96.1231 76.8896 96.2822 76.8347 96.4096 76.7323C96.6585 76.5194 96.8528 76.2501 96.9763 75.9468C97.0968 76.18 97.2861 76.3704 97.5186 76.4922C97.751 76.614 98.0153 76.6612 98.2756 76.6275C98.7954 76.5492 99.2878 76.3439 99.7093 76.0297C100.044 75.8336 100.339 75.5774 100.58 75.274C100.699 75.1212 100.781 74.9426 100.819 74.7525C100.857 74.5625 100.85 74.3661 100.799 74.1792C100.673 73.8925 100.478 73.6415 100.232 73.4488L98.3905 71.7484L98.1825 71.6861C98.0742 71.5708 97.9438 71.4787 97.7991 71.4151C97.6543 71.3516 97.4982 71.3179 97.3401 71.3162C97.182 71.3145 97.0252 71.3448 96.8791 71.4053C96.7331 71.4657 96.6007 71.5551 96.49 71.668C96.1087 72.0947 96.1071 72.7325 96.1662 73.3017C96.2253 73.871 96.3152 74.4775 96.0618 74.9906C95.9174 75.2842 95.6713 75.5171 95.5094 75.8024Z" fill="#C7C7C7"/>
<path d="M131.124 95.1751C128.738 94.644 126.555 93.4409 124.831 91.708C123.107 89.9752 121.916 87.785 121.397 85.3964C121.171 84.2693 121.068 83.0377 120.318 82.1662C119.592 81.3225 118.406 81.018 117.293 81.018C116.18 81.018 115.083 81.2741 113.974 81.3435C112.031 81.4647 109.975 80.9516 108.586 79.5891C107.929 78.9438 107.431 78.1241 106.663 77.6147C105.631 76.9305 104.262 76.9311 103.087 77.3178C101.777 77.7497 100.728 78.9313 99.2959 78.7686C97.8063 78.5994 96.0799 78.0728 95.4959 80.0347C95.3278 80.5996 95.385 81.2191 95.1721 81.7686C94.844 82.6156 93.9726 83.093 93.2832 83.6849C91.8951 84.8766 91.1574 86.6871 90.9086 88.4998C90.6598 90.3125 90.8524 92.1535 91.0435 93.973C91.1474 94.9543 91.2839 96.0105 91.958 96.7314C92.8976 97.7363 94.474 97.6974 95.8437 97.584L100.62 97.1895C101.478 97.1185 102.457 97.0885 103.068 97.6955C103.434 98.0594 103.589 98.5862 103.911 98.9892C104.2 99.3325 104.597 99.5676 105.037 99.6563C105.477 99.745 105.934 99.6821 106.333 99.4777C106.01 100.055 105.834 100.702 105.821 101.364C105.808 102.025 105.958 102.679 106.258 103.269C106.558 103.858 106.999 104.364 107.541 104.743C108.083 105.121 108.711 105.36 109.367 105.438L109.49 105.515C108.471 107.261 107.412 109.222 107.836 111.2C108.198 112.895 109.602 114.255 109.833 115.973C110.043 117.55 109.22 119.163 109.585 120.712C109.953 122.28 111.537 123.373 113.143 123.49C114.749 123.607 116.327 122.894 117.572 121.871C118.817 120.847 119.778 119.53 120.726 118.227C121.312 117.423 121.912 116.586 122.113 115.611C122.327 114.575 122.079 113.425 122.583 112.495C123.164 111.422 124.544 111.019 125.24 110.017C126.142 108.719 125.611 106.951 125.81 105.383C126.307 101.504 131.236 99.0853 131.124 95.1751Z" fill="#C7C7C7"/>
<path d="M130.411 108.424C130.277 109.029 129.71 109.428 129.17 109.733C128.63 110.038 128.035 110.346 127.76 110.902C127.478 111.472 127.606 112.151 127.754 112.77C128.061 114.056 128.422 115.328 128.839 116.585C129.645 115.061 130.349 113.484 130.947 111.866C131.199 111.264 131.356 110.625 131.409 109.974C131.434 109.648 131.39 109.321 131.28 109.013C131.171 108.705 130.998 108.423 130.773 108.186L130.411 108.424Z" fill="#C7C7C7"/>
<path d="M163.584 101.674L161.552 99.328C161.089 98.793 160.561 98.2214 159.859 98.1326L159.57 98.3172L161.332 102.513C161.54 103.152 161.906 103.728 162.396 104.187C162.921 104.6 163.774 104.679 164.212 104.174C164.354 103.985 164.443 103.762 164.471 103.527C164.499 103.293 164.464 103.055 164.371 102.838C164.18 102.406 163.914 102.012 163.584 101.674L163.584 101.674Z" fill="#C7C7C7"/>
<path d="M170.148 103.172C170.404 103.083 170.638 102.942 170.837 102.757C171.035 102.572 171.192 102.348 171.299 102.099C171.509 101.599 171.648 101.073 171.711 100.535L172.058 98.4343L171.907 98.3955C171.76 98.3249 171.592 98.31 171.435 98.3537C171.278 98.3973 171.141 98.4964 171.052 98.6327C170.881 98.9109 170.752 99.2125 170.669 99.528C170.626 99.6856 170.548 99.8315 170.44 99.9547C170.333 100.078 170.2 100.175 170.05 100.24C169.506 100.404 168.991 99.8276 168.423 99.85C168.194 99.8792 167.982 99.9852 167.82 100.151C167.659 100.316 167.559 100.532 167.535 100.762C167.502 101.226 167.634 101.687 167.907 102.064C168.391 102.815 169.289 103.419 170.148 103.172Z" fill="#C7C7C7"/>
<path d="M173.893 104.5L175.454 100.388C174.822 100.847 174.337 101.48 174.06 102.211C173.782 102.941 173.724 103.737 173.893 104.5Z" fill="#C7C7C7"/>
<path d="M181.859 101.186L181.544 101.2C181.402 101.479 181.327 101.787 181.324 102.099C181.321 102.412 181.39 102.721 181.526 103.003C181.803 103.565 182.206 104.055 182.704 104.435C183.475 105.072 184.355 105.563 185.302 105.886C186.69 106.291 188.125 106.512 189.571 106.544L192.05 106.706C192.443 106.733 192.953 106.681 193.062 106.302C193.152 105.989 192.886 105.695 192.637 105.485C190.45 103.645 187.8 102.441 184.975 102.007C183.903 101.843 182.768 101.776 181.859 101.186Z" fill="#C7C7C7"/>
<path d="M190.68 112.098L188.897 110.369C188.319 109.808 187.453 109.214 186.791 109.672C186.41 109.935 186.293 110.448 185.97 110.78C185.773 110.956 185.536 111.081 185.279 111.142C185.022 111.203 184.755 111.2 184.5 111.131C183.992 110.988 183.512 110.761 183.081 110.458L181.606 109.543L180.079 108.595L178.931 109.712C178.981 109.162 178.248 108.805 177.741 109.022C177.5 109.158 177.293 109.345 177.135 109.572C176.976 109.798 176.871 110.058 176.827 110.33C176.742 110.876 176.595 111.409 176.388 111.921C175.804 113.037 174.389 113.368 173.143 113.555C171.898 113.742 170.487 114.005 169.82 115.074C169.265 115.965 169.431 117.108 169.617 118.14L170.318 122.047C170.351 122.52 170.541 122.969 170.858 123.323C171.475 123.867 172.43 123.536 173.182 123.204C174.756 122.447 176.444 121.958 178.178 121.756C179.927 121.56 181.688 122.012 183.128 123.025C184.02 123.705 184.701 124.645 185.646 125.249C186.298 125.641 187.031 125.88 187.788 125.946C188.546 126.012 189.308 125.904 190.018 125.631C191.44 125.064 192.617 124.014 193.342 122.666C193.986 121.477 194.308 120.141 194.279 118.789C194.25 117.437 193.869 116.116 193.174 114.956C192.465 113.904 191.627 112.944 190.68 112.098Z" fill="#C7C7C7"/>
<path d="M182.805 77.5136C182.218 77.4953 181.567 77.4596 181.112 77.8313C180.962 77.9652 180.831 78.1184 180.721 78.2869L180.561 78.5117C180.321 78.8263 180.111 79.1631 179.935 79.5177C179.843 79.6839 179.788 79.8679 179.774 80.0572C179.759 80.2465 179.785 80.4368 179.85 80.6151C179.888 80.7004 179.944 80.7764 180.014 80.8377C180.084 80.899 180.167 80.9441 180.256 80.9698C180.346 80.9956 180.44 81.0013 180.532 80.9867C180.624 80.972 180.712 80.9373 180.789 80.885C181.04 80.6524 180.981 80.2305 181.171 79.9455C181.255 79.8382 181.362 79.7518 181.485 79.6931C181.608 79.6344 181.742 79.605 181.878 79.6073C182.15 79.6141 182.42 79.6446 182.685 79.6985C183.422 79.7994 184.172 79.6874 184.847 79.3757C185.522 79.064 186.093 78.5656 186.494 77.9394C186.895 77.3132 187.108 76.5854 187.108 75.8419C187.109 75.0984 186.897 74.3703 186.497 73.7436L186.45 73.5992C186.043 73.5836 185.644 73.7112 185.321 73.9598C184.999 74.2084 184.774 74.5621 184.685 74.9595C184.554 75.6443 184.832 76.4394 184.418 76.9995C184.068 77.4707 183.392 77.532 182.805 77.5136Z" fill="#C7C7C7"/>
<path d="M188.064 70.2551L187.974 70.2473C187.449 70.3433 186.944 70.5313 186.484 70.8025C186.333 70.8726 186.213 70.9949 186.145 71.1469C186.125 71.2275 186.125 71.3119 186.146 71.3924C186.166 71.4729 186.207 71.5469 186.263 71.6079C186.377 71.7283 186.511 71.8287 186.658 71.9048C186.878 72.0514 187.12 72.16 187.376 72.226C187.504 72.2577 187.638 72.2571 187.766 72.2241C187.894 72.1911 188.012 72.1269 188.109 72.0371C188.2 71.9121 188.262 71.7689 188.292 71.6172C188.322 71.4656 188.318 71.3093 188.281 71.1593C188.239 70.8514 188.166 70.5484 188.063 70.2551H188.064Z" fill="#C7C7C7"/>
<path d="M179.009 77.688C179.149 77.4629 179.249 77.215 179.304 76.9554L179.468 76.3509L178.883 75.9951C178.603 76.1408 178.345 76.3247 178.116 76.5417C178.002 76.6511 177.912 76.7828 177.852 76.9286C177.792 77.0744 177.762 77.2311 177.765 77.3889C177.773 77.5466 177.834 77.697 177.939 77.8155C178.043 77.934 178.184 78.0137 178.34 78.0415C178.473 78.0456 178.604 78.0151 178.721 77.9532C178.839 77.8913 178.938 77.8 179.01 77.6882L179.009 77.688Z" fill="#C7C7C7"/>
<path d="M115.216 23.2214C114.984 23.3658 115.05 23.7148 115.144 23.9709L115.467 24.8535L115.618 24.2824C115.751 24.0609 115.809 23.8029 115.785 23.5458C115.733 23.2946 115.434 23.0865 115.216 23.2214Z" fill="#C7C7C7"/>
<path d="M187.389 119.046C194.841 119.046 200.882 113.004 200.882 105.551C200.882 98.0972 194.841 92.0552 187.389 92.0552C179.938 92.0552 173.897 98.0972 173.897 105.551C173.897 113.004 179.938 119.046 187.389 119.046Z" fill="#FFF500"/>
<mask id="mask0_8_971" style="mask-type:luminance" maskUnits="userSpaceOnUse" x="173" y="92" width="28" height="28">
<path d="M187.389 119.046C194.841 119.046 200.882 113.004 200.882 105.551C200.882 98.0972 194.841 92.0552 187.389 92.0552C179.938 92.0552 173.897 98.0972 173.897 105.551C173.897 113.004 179.938 119.046 187.389 119.046Z" fill="white"/>
</mask>
<g mask="url(#mask0_8_971)">
<path d="M190.929 104.975C191.109 104.387 191.123 103.759 190.969 103.164C190.814 102.568 190.498 102.026 190.054 101.599C189.611 101.172 189.058 100.877 188.457 100.745C187.855 100.614 187.23 100.652 186.648 100.854C186.067 101.057 185.554 101.417 185.165 101.894C184.776 102.371 184.527 102.947 184.445 103.557C184.364 104.167 184.453 104.788 184.702 105.351C184.952 105.913 185.353 106.395 185.86 106.744L183.828 111.839L193.812 110.993C193.812 110.993 188.753 108.277 188.689 107.192C189.217 107.037 189.697 106.753 190.088 106.366C190.479 105.979 190.768 105.501 190.929 104.975Z" fill="#ED9DA0"/>
<path d="M193.826 110.672L194.677 110.278C194.984 110.337 195.266 110.483 195.491 110.701C195.715 110.918 195.871 111.195 195.94 111.5C196.23 112.598 197.555 118.479 197.555 118.479C197.78 118.718 197.931 119.018 197.989 119.341C198.048 119.664 198.012 119.998 197.886 120.301C197.886 120.301 198.041 121.471 197.555 121.647C197.069 121.823 193.811 124.338 193.811 124.338L193.826 110.672Z" fill="#090814"/>
<path d="M191.261 109.139L189.06 107.799C188.553 110.325 185.934 110.464 185.427 107.938L183.808 109.14L180.391 110.279L180.888 123.527L187.823 123.507V123.527H194.18L194.677 110.279L191.261 109.139Z" fill="#090814"/>
<path d="M181.243 110.672L180.392 110.278C180.086 110.337 179.803 110.483 179.578 110.701C179.354 110.918 179.198 111.195 179.129 111.5C178.839 112.598 179.378 118.945 179.378 118.945C179.153 119.184 179.002 119.484 178.943 119.807C178.884 120.13 178.92 120.464 179.046 120.767C179.046 120.767 178.892 121.937 179.378 122.113C179.864 122.289 181.244 122.367 181.244 122.367L181.243 110.672Z" fill="#090814"/>
<path d="M184.605 102.585L184.352 105.164C184.352 105.164 181.7 100.017 184.997 99.0646C184.997 99.0646 184.676 98.6295 185.142 98.4848C185.608 98.3401 190.028 97.6459 190.38 99.81C190.38 99.81 192.689 101.241 191.99 102.773L191.167 104.573L190.422 104.614C190.422 104.614 190.401 101.186 189.261 101.301C188.122 101.415 184.605 102.585 184.605 102.585Z" fill="#090814"/>
</g>
<path d="M114.666 84.7675C122.192 84.7675 128.293 78.7254 128.293 71.2722C128.293 63.8189 122.192 57.7769 114.666 57.7769C107.14 57.7769 101.039 63.8189 101.039 71.2722C101.039 78.7254 107.14 84.7675 114.666 84.7675Z" fill="#FFF500"/>
<mask id="mask1_8_971" style="mask-type:luminance" maskUnits="userSpaceOnUse" x="101" y="57" width="28" height="28">
<path d="M114.666 84.7675C122.192 84.7675 128.293 78.7254 128.293 71.2722C128.293 63.8189 122.192 57.7769 114.666 57.7769C107.14 57.7769 101.039 63.8189 101.039 71.2722C101.039 78.7254 107.14 84.7675 114.666 84.7675Z" fill="white"/>
</mask>
<g mask="url(#mask1_8_971)">
<path d="M112.922 72.7509L112.787 74.9512L116.895 75.1596L115.623 72.2605L112.922 72.7509Z" fill="#ED9DA0"/>
<path d="M112.682 74.6223C113.783 75.201 115.544 75.0428 117.539 74.6223L117.851 90.9166C117.851 90.9166 111.348 93.024 109.201 90.2958L110.592 76.3543L112.682 74.6237L112.682 74.6223Z" fill="#D6D6E3"/>
<path d="M116.287 73.7749L119.248 75.5293C119.793 75.8521 120.216 76.3474 120.448 76.937C120.681 77.5266 120.71 78.1769 120.532 78.7852L118.244 86.6036C118.244 86.6036 121.97 93.0079 120.76 93.5728C118.038 94.8414 113.977 94.5334 113.977 94.5334L114.885 79.2L116.288 73.7749H116.287Z" fill="#3F3D58"/>
<path d="M112.811 74.5642L109.462 75.8654L108.671 85.5281L106.456 93.3116C110.207 94.6812 109.856 94.0431 109.856 94.0431L110.477 80.6128L112.809 74.5669L112.811 74.5642Z" fill="#3F3D58"/>
<path d="M107.92 93.1459L107.931 93.092L111.354 77.2574C111.394 77.0831 111.399 76.9027 111.37 76.7264C111.34 76.5501 111.276 76.3814 111.181 76.2298C111.086 76.0783 110.962 75.947 110.817 75.8433C110.671 75.7396 110.506 75.6657 110.332 75.6256C110.158 75.5856 109.978 75.5803 109.801 75.61C109.625 75.6397 109.456 75.7038 109.305 75.7987C109.153 75.8936 109.022 76.0174 108.918 76.1631C108.815 76.3087 108.741 76.4734 108.701 76.6476L104.941 92.1073L107.919 93.147L107.92 93.1459Z" fill="#3F3D58"/>
<path d="M114.704 73.3354C116.545 73.3354 118.037 71.843 118.037 70.002C118.037 68.1611 116.545 66.6687 114.704 66.6687C112.864 66.6687 111.372 68.1611 111.372 70.002C111.372 71.843 112.864 73.3354 114.704 73.3354Z" fill="#ED9DA0"/>
<path d="M113.119 65.6832C112.385 65.9412 111.965 66.088 111.581 66.4597C110.931 67.0859 110.824 67.9229 110.724 68.6999C110.575 69.4667 110.637 70.2595 110.902 70.9941C111.023 71.3007 111.613 72.6675 112.742 72.8397C112.963 72.8738 113.484 72.8827 113.334 72.7717C111.946 71.7461 111.353 71.128 111.402 69.5482C111.432 68.5666 112.932 67.5069 113.822 67.3164C114.036 67.2727 114.257 67.2757 114.469 67.3253C114.682 67.3749 114.881 67.4698 115.054 67.6036C115.802 68.2181 115.77 70.759 116.56 71.2902C116.883 71.5088 116.667 69.9709 116.897 70.2203C117.348 70.7123 117.058 71.4654 116.978 71.7528C116.593 73.114 116.19 72.1075 115.815 73.2697C115.41 74.5245 118.966 75.3696 119.087 75.6497C119.297 76.1372 116.29 78.45 117.115 78.8511C118.163 79.3604 118.989 78.6973 119.476 79.2657C119.749 79.5834 119.601 79.9202 120.093 80.9089C120.254 81.2328 120.334 81.3931 120.405 81.3874C120.741 81.3604 121.286 78.6673 120.405 76.1596C120.035 75.107 119.673 74.0762 118.703 73.2697C118.19 72.8433 117.759 72.6899 117.637 72.1922C117.462 71.4808 118.189 71.1774 118.334 70.0554C118.434 69.288 118.504 68.1903 118.233 67.487C117.977 66.8224 117.755 66.2454 117.173 65.7231C117.034 65.5976 115.907 64.7439 114.712 64.7196C114.162 64.7085 113.757 65.4586 113.12 65.6829L113.119 65.6832Z" fill="#090814"/>
<path d="M118.277 75.6283C118.786 75.5564 119.304 75.6807 119.725 75.976C120.146 76.2714 120.439 76.7157 120.545 77.2192C121.312 80.8629 122.687 88.6281 120.527 88.7577C118.667 88.8368 116.805 88.6658 114.991 88.2494L115.669 84.3509L117.872 84.125L116.577 78.0624C116.519 77.79 116.517 77.5086 116.572 77.2356C116.627 76.9626 116.738 76.7039 116.898 76.4755C117.057 76.2472 117.262 76.0542 117.499 75.9084C117.736 75.7627 118.001 75.6673 118.277 75.6283H118.277Z" fill="#3F3D58"/>
</g>
<path d="M39.93 54.0889C42.6028 54.0889 45.2156 54.8816 47.4379 56.3669C49.6602 57.8521 51.3923 59.9632 52.4152 62.4331C53.438 64.903 53.7056 67.6208 53.1842 70.2428C52.6628 72.8648 51.3757 75.2733 49.4857 77.1637C47.5958 79.0541 45.1879 80.3414 42.5664 80.863C39.945 81.3845 37.2278 81.1169 34.7585 80.0938C32.2892 79.0707 30.1786 77.3382 28.6937 75.1154C27.2088 72.8925 26.4162 70.2792 26.4162 67.6058C26.4162 64.0209 27.84 60.5828 30.3743 58.0479C32.9086 55.513 36.3459 54.0889 39.93 54.0889Z" fill="#FFF500"/>
<mask id="mask2_8_971" style="mask-type:luminance" maskUnits="userSpaceOnUse" x="26" y="54" width="28" height="28">
<path d="M39.9033 81.0693C47.352 81.0693 53.3904 75.0295 53.3904 67.5791C53.3904 60.1286 47.352 54.0889 39.9033 54.0889C32.4546 54.0889 26.4162 60.1286 26.4162 67.5791C26.4162 75.0295 32.4546 81.0693 39.9033 81.0693Z" fill="white"/>
</mask>
<g mask="url(#mask2_8_971)">
<path d="M40.7264 65.0036C42.0161 65.0036 43.0616 63.9578 43.0616 62.6678C43.0616 61.3778 42.0161 60.332 40.7264 60.332C39.4366 60.332 38.3911 61.3778 38.3911 62.6678C38.3911 63.9578 39.4366 65.0036 40.7264 65.0036Z" fill="#FFB9B9"/>
<path d="M38.7095 63.1987C38.7095 63.1987 38.6032 66.4902 38.0727 66.9148C37.5422 67.3394 39.9835 69.1445 39.9835 69.1445L41.5755 66.5963V64.2605L38.7095 63.1987Z" fill="#FFB9B9"/>
<path d="M39.7711 67.6585L38.4823 65.7119L37.7538 66.7027L36.6922 69.6758L37.5414 81.2488L42.5306 81.3552L43.1674 68.083L41.5753 66.1718L39.7711 67.6585Z" fill="#F2F2F2"/>
<path d="M45.1847 68.4015L46.0339 68.2954C46.0339 68.2954 46.246 68.4015 46.3523 69.1448C46.4587 69.8881 47.7318 76.4711 47.7318 76.4711L46.0334 84.5414L44.1226 81.9932L45.2908 77.534L44.1229 73.073L45.1847 68.4015Z" fill="#090814"/>
<path d="M34.3572 68.2954H33.7204L32.1283 76.8957L33.6143 83.5851L35.1006 81.143L34.6759 78.4884L34.8877 76.1527L35.6309 74.7724L34.3572 68.2954Z" fill="#090814"/>
<path d="M39.3466 62.6687L39.7714 62.5623C39.7714 62.5623 40.0898 60.7569 40.8329 60.9699C41.5761 61.1829 43.4869 61.3947 43.4869 60.5451C43.4869 59.6954 41.6819 58.9526 40.6209 59.0584C39.5598 59.1642 37.7546 59.4838 37.8606 61.0762C37.9632 62.1577 38.23 63.2172 38.6518 64.2182L38.7076 63.2736L39.3466 62.6687Z" fill="#090814"/>
<path d="M45.9281 68.2955L42.5313 66.9152L41.7353 66.3311L39.3469 76.8958L37.7548 72.1184L38.2324 66.0134L33.8272 68.2963L35.3141 75.5168L35.5264 78.2774L34.8896 80.5071C34.8896 80.5071 32.6604 82.0996 33.4036 83.7986C34.1467 85.4977 34.9957 85.604 34.9957 85.604C34.9957 85.604 38.6048 82.2065 38.8175 81.3571C39.0301 80.5077 39.3483 79.0213 39.3483 79.0213C39.3483 79.0213 41.1533 85.8167 43.2758 85.7104C45.3984 85.6041 45.399 83.3746 45.399 83.3746L44.8682 81.0388L44.0179 78.5938L44.4427 74.5592L45.9281 68.2955Z" fill="#090814"/>
</g>
</g>
<defs>
<clipPath id="clip0_8_971">
<rect width="216" height="117" fill="white"/>
</clipPath>
</defs>
</svg>
