<svg width="39" height="39" viewBox="0 0 39 39" fill="none" xmlns="http://www.w3.org/2000/svg">
<g clip-path="url(#clip0_8_959)">
<path d="M29.25 11.375H26C25.1063 11.375 24.375 12.1063 24.375 13V16.25C24.375 17.1438 25.1063 17.875 26 17.875V21.125H21.125V8.12504H22.75C23.4163 8.12504 23.8063 7.36129 23.4 6.82504L20.15 2.48629C19.825 2.04754 19.175 2.04754 18.85 2.48629L15.6 6.82504C15.1938 7.36129 15.5838 8.12504 16.25 8.12504H17.875V21.125H13V17.7613C14.3488 17.0463 15.2425 15.5513 14.8525 13.8125C14.5763 12.5613 13.6013 11.5375 12.3825 11.1963C9.99375 10.53 7.8 12.3338 7.8 14.625C7.8 16.0063 8.6125 17.16 9.75 17.7613V21.125C9.75 22.9125 11.2125 24.375 13 24.375H17.875V29.3313C16.4775 30.0625 15.6163 31.6388 16.0388 33.3775C16.3313 34.5963 17.3225 35.62 18.5413 35.945C20.9138 36.5788 23.0913 34.8075 23.0913 32.5C23.0913 31.1188 22.295 29.9325 21.1413 29.3313V24.375H26.0163C27.8038 24.375 29.2663 22.9125 29.2663 21.125V17.875C30.16 17.875 30.8913 17.1438 30.8913 16.25V13C30.875 12.1063 30.1438 11.375 29.25 11.375Z" fill="#323232"/>
</g>
<defs>
<clipPath id="clip0_8_959">
<rect width="39" height="39" fill="white"/>
</clipPath>
</defs>
</svg>
