<svg width="236" height="130" viewBox="0 0 236 130" fill="none" xmlns="http://www.w3.org/2000/svg">
<g clip-path="url(#clip0_8_1071)">
<path d="M164.716 102.624C140.437 102.625 119.314 84.5672 116.193 59.9367L116.789 59.8615C119.871 84.1879 140.738 102.023 164.716 102.025C166.754 102.025 168.789 101.897 170.81 101.641C197.256 98.3103 216.054 74.1479 212.713 47.7791L213.309 47.7039C216.692 74.4004 197.66 98.8638 170.885 102.236C168.839 102.494 166.779 102.624 164.716 102.624Z" fill="#3F3D56"/>
<path d="M184.076 24.1668C182.494 19.9972 182.638 15.3719 184.477 11.3082C186.315 7.24462 189.697 4.07561 193.879 2.49836C198.061 0.921102 202.7 1.06481 206.776 2.89785C210.851 4.7309 214.029 8.10313 215.611 12.2727L215.049 12.4849C213.524 8.46404 210.459 5.21208 206.528 3.4444C202.598 1.67673 198.125 1.53813 194.092 3.05911C190.059 4.58009 186.798 7.63605 185.025 11.5547C183.252 15.4734 183.113 19.9338 184.639 23.9546L184.076 24.1668Z" fill="#3F3D56"/>
<path d="M232.911 53.5043H202.353C201.534 53.5034 200.749 53.1786 200.17 52.6012C199.591 52.0238 199.265 51.241 199.264 50.4244V10.0809C199.265 9.26431 199.591 8.48147 200.17 7.90408C200.749 7.32669 201.534 7.0019 202.353 7.00098H232.911C233.73 7.0019 234.515 7.32669 235.094 7.90408C235.673 8.48147 235.999 9.26431 236 10.0809V50.4244C235.999 51.241 235.673 52.0238 235.094 52.6012C234.515 53.1786 233.73 53.5034 232.911 53.5043Z" fill="#E6E6E6"/>
<path d="M220.77 51.087H204.501C203.734 51.0862 202.999 50.782 202.457 50.2413C201.914 49.7005 201.609 48.9674 201.608 48.2026V12.3024C201.609 11.5376 201.914 10.8045 202.457 10.2637C202.999 9.72297 203.734 9.41881 204.501 9.41797H230.763C231.53 9.41882 232.265 9.72298 232.808 10.2637C233.35 10.8045 233.655 11.5376 233.656 12.3024V38.2389C233.652 41.6453 232.293 44.911 229.878 47.3197C227.462 49.7283 224.186 51.0832 220.77 51.087Z" fill="white"/>
<path d="M228.143 27.4214H207.121C206.939 27.4214 206.765 27.3494 206.636 27.2212C206.508 27.093 206.435 26.9191 206.435 26.7378C206.435 26.5565 206.508 26.3826 206.636 26.2544C206.765 26.1262 206.939 26.0542 207.121 26.0542H228.143C228.325 26.0542 228.5 26.1262 228.628 26.2544C228.757 26.3826 228.829 26.5565 228.829 26.7378C228.829 26.9191 228.757 27.093 228.628 27.2212C228.5 27.3494 228.325 27.4214 228.143 27.4214Z" fill="#E4E4E4"/>
<path d="M228.143 30.1226H207.121C206.939 30.1223 206.765 30.0501 206.637 29.9219C206.509 29.7937 206.437 29.6201 206.437 29.439C206.437 29.2579 206.509 29.0843 206.637 28.9561C206.765 28.8279 206.939 28.7558 207.121 28.7554H228.143C228.325 28.7554 228.5 28.8274 228.628 28.9556C228.757 29.0838 228.829 29.2577 228.829 29.439C228.829 29.6203 228.757 29.7942 228.628 29.9224C228.5 30.0506 228.325 30.1226 228.143 30.1226Z" fill="#E4E4E4"/>
<path d="M216.234 32.8238H207.121C206.939 32.8238 206.765 32.7518 206.636 32.6236C206.508 32.4954 206.435 32.3215 206.435 32.1402C206.435 31.9589 206.508 31.785 206.636 31.6568C206.765 31.5286 206.939 31.4565 207.121 31.4565H216.234C216.416 31.4565 216.59 31.5286 216.719 31.6568C216.847 31.785 216.919 31.9589 216.919 32.1402C216.919 32.3215 216.847 32.4954 216.719 32.6236C216.59 32.7518 216.416 32.8238 216.234 32.8238Z" fill="#E4E4E4"/>
<path d="M228.143 16.3901H207.121C206.939 16.3901 206.765 16.3181 206.636 16.1899C206.508 16.0617 206.435 15.8878 206.435 15.7065C206.435 15.5252 206.508 15.3514 206.636 15.2232C206.765 15.095 206.939 15.0229 207.121 15.0229H228.143C228.325 15.0229 228.5 15.095 228.628 15.2232C228.757 15.3514 228.829 15.5252 228.829 15.7065C228.829 15.8878 228.757 16.0617 228.628 16.1899C228.5 16.3181 228.325 16.3901 228.143 16.3901Z" fill="#E4E4E4"/>
<path d="M228.143 19.0914H207.121C206.939 19.0914 206.765 19.0194 206.636 18.8912C206.508 18.7629 206.435 18.5891 206.435 18.4078C206.435 18.2264 206.508 18.0526 206.636 17.9244C206.765 17.7961 206.939 17.7241 207.121 17.7241H228.143C228.325 17.7241 228.5 17.7961 228.628 17.9244C228.757 18.0526 228.829 18.2264 228.829 18.4078C228.829 18.5891 228.757 18.7629 228.628 18.8912C228.5 19.0194 228.325 19.0914 228.143 19.0914Z" fill="#E4E4E4"/>
<path d="M216.234 21.7928H207.121C206.939 21.7924 206.765 21.7202 206.637 21.5921C206.509 21.4639 206.437 21.2902 206.437 21.1092C206.437 20.9281 206.509 20.7544 206.637 20.6263C206.765 20.4981 206.939 20.4259 207.121 20.4255H216.234C216.415 20.4259 216.589 20.4981 216.718 20.6263C216.846 20.7544 216.918 20.9281 216.918 21.1092C216.918 21.2902 216.846 21.4639 216.718 21.5921C216.589 21.7202 216.415 21.7924 216.234 21.7928Z" fill="#E4E4E4"/>
<path d="M228.143 38.8384H207.121C206.939 38.8384 206.765 38.7664 206.636 38.6382C206.508 38.51 206.435 38.3361 206.435 38.1548C206.435 37.9735 206.508 37.7996 206.636 37.6714C206.765 37.5432 206.939 37.4712 207.121 37.4712H228.143C228.325 37.4712 228.5 37.5432 228.628 37.6714C228.757 37.7996 228.829 37.9735 228.829 38.1548C228.829 38.3361 228.757 38.51 228.628 38.6382C228.5 38.7664 228.325 38.8384 228.143 38.8384Z" fill="#FFDB00"/>
<path d="M210.409 41.5396H207.121C206.939 41.5392 206.765 41.4671 206.637 41.3389C206.509 41.2107 206.437 41.0371 206.437 40.856C206.437 40.6749 206.509 40.5013 206.637 40.3731C206.765 40.2449 206.939 40.1727 207.121 40.1724H210.409C210.591 40.1724 210.766 40.2444 210.894 40.3726C211.023 40.5008 211.095 40.6747 211.095 40.856C211.095 41.0373 211.023 41.2112 210.894 41.3394C210.766 41.4676 210.591 41.5396 210.409 41.5396Z" fill="#FFDB00"/>
<path d="M216.234 44.241H207.121C206.939 44.241 206.765 44.169 206.636 44.0408C206.508 43.9126 206.435 43.7387 206.435 43.5574C206.435 43.3761 206.508 43.2022 206.636 43.074C206.765 42.9458 206.939 42.8738 207.121 42.8738H216.234C216.416 42.8738 216.59 42.9458 216.719 43.074C216.847 43.2022 216.919 43.3761 216.919 43.5574C216.919 43.7387 216.847 43.9126 216.719 44.0408C216.59 44.169 216.416 44.241 216.234 44.241Z" fill="#FFDB00"/>
<path d="M116.649 52.1518C114.001 45.1622 114.245 37.4102 117.328 30.6001C120.411 23.7901 126.08 18.4795 133.089 15.836C140.098 13.1924 147.872 13.4324 154.704 16.503C161.535 19.5737 166.864 25.2237 169.519 32.2108L168.956 32.423C167.672 29.034 165.731 25.9305 163.243 23.2898C160.756 20.6491 157.771 18.5228 154.459 17.0325C151.147 15.5423 147.573 14.7171 143.942 14.6043C140.31 14.4915 136.692 15.0931 133.293 16.3749C129.895 17.6567 126.783 19.5935 124.135 22.0746C121.488 24.5558 119.356 27.5327 117.863 30.8354C116.369 34.1381 115.543 37.7017 115.431 41.3228C115.319 44.9439 115.924 48.5516 117.211 51.9396L116.649 52.1518Z" fill="#3F3D56"/>
<path d="M169.195 6.19978C170.78 6.19978 172.064 4.91893 172.064 3.33891C172.064 1.75889 170.78 0.478027 169.195 0.478027C167.61 0.478027 166.326 1.75889 166.326 3.33891C166.326 4.91893 167.61 6.19978 169.195 6.19978Z" fill="#E6E6E6"/>
<path d="M173.102 88.6153C174.687 88.6153 175.972 87.3345 175.972 85.7544C175.972 84.1744 174.687 82.8936 173.102 82.8936C171.518 82.8936 170.233 84.1744 170.233 85.7544C170.233 87.3345 171.518 88.6153 173.102 88.6153Z" fill="#E6E6E6"/>
<path d="M99.4618 20.585C101.046 20.585 102.331 19.3042 102.331 17.7242C102.331 16.1441 101.046 14.8633 99.4618 14.8633C97.8771 14.8633 96.5925 16.1441 96.5925 17.7242C96.5925 19.3042 97.8771 20.585 99.4618 20.585Z" fill="#E6E6E6"/>
<path d="M139.075 135.278H73.3901C71.6298 135.276 69.9421 134.578 68.6973 133.337C67.4526 132.096 66.7524 130.413 66.7504 128.658V41.9377C66.7524 40.1825 67.4526 38.4998 68.6974 37.2586C69.9421 36.0175 71.6298 35.3194 73.3902 35.3174H139.075C140.836 35.3194 142.523 36.0175 143.768 37.2586C145.013 38.4997 145.713 40.1825 145.715 41.9377V128.658C145.713 130.413 145.013 132.096 143.768 133.337C142.523 134.578 140.836 135.276 139.075 135.278Z" fill="#E6E6E6"/>
<path d="M114.005 129.91H78.0073C76.4044 129.908 74.8677 129.273 73.7344 128.142C72.601 127.012 71.9634 125.48 71.9616 123.882V46.713C71.9634 45.1149 72.601 43.5827 73.7344 42.4526C74.8678 41.3225 76.4044 40.6869 78.0073 40.6851H134.458C136.061 40.6869 137.598 41.3225 138.731 42.4526C139.864 43.5827 140.502 45.1149 140.504 46.713V103.489C140.496 110.494 137.702 117.21 132.734 122.163C127.766 127.116 121.031 129.902 114.005 129.91Z" fill="white"/>
<path d="M128.827 55.5001H83.6387C83.445 55.5004 83.2531 55.4626 83.0741 55.3889C82.895 55.3151 82.7323 55.2069 82.5952 55.0705C82.4582 54.934 82.3494 54.7719 82.2752 54.5935C82.201 54.4151 82.1628 54.2238 82.1628 54.0307C82.1628 53.8376 82.201 53.6463 82.2752 53.4679C82.3494 53.2895 82.4582 53.1274 82.5952 52.9909C82.7323 52.8544 82.895 52.7462 83.0741 52.6725C83.2531 52.5988 83.445 52.561 83.6387 52.5613H128.827C129.021 52.561 129.212 52.5988 129.391 52.6725C129.57 52.7462 129.733 52.8544 129.87 52.9909C130.007 53.1274 130.116 53.2895 130.19 53.4679C130.264 53.6463 130.303 53.8376 130.303 54.0307C130.303 54.2238 130.264 54.4151 130.19 54.5935C130.116 54.7719 130.007 54.934 129.87 55.0705C129.733 55.2069 129.57 55.3151 129.391 55.3889C129.212 55.4626 129.021 55.5004 128.827 55.5001Z" fill="#FFDB00"/>
<path d="M128.827 61.3067H83.6387C83.2478 61.3067 82.8729 61.1518 82.5965 60.8763C82.3201 60.6007 82.1649 60.2269 82.1649 59.8372C82.1649 59.4474 82.3201 59.0737 82.5965 58.7981C82.8729 58.5225 83.2478 58.3677 83.6387 58.3677H128.827C129.218 58.3677 129.593 58.5225 129.869 58.7981C130.145 59.0737 130.301 59.4474 130.301 59.8372C130.301 60.2269 130.145 60.6007 129.869 60.8763C129.593 61.1518 129.218 61.3067 128.827 61.3067Z" fill="#FFDB00"/>
<path d="M103.227 67.1131H83.6387C83.2478 67.1131 82.8729 66.9582 82.5965 66.6827C82.3201 66.4071 82.1649 66.0333 82.1649 65.6436C82.1649 65.2538 82.3201 64.8801 82.5965 64.6045C82.8729 64.3289 83.2478 64.1741 83.6387 64.1741H103.227C103.618 64.1741 103.992 64.3289 104.269 64.6045C104.545 64.8801 104.7 65.2538 104.7 65.6436C104.7 66.0333 104.545 66.4071 104.269 66.6827C103.992 66.9582 103.618 67.1131 103.227 67.1131Z" fill="#FFDB00"/>
<path d="M128.827 79.2738H83.6387C83.445 79.2741 83.2531 79.2363 83.0741 79.1625C82.895 79.0888 82.7323 78.9806 82.5952 78.8442C82.4582 78.7077 82.3494 78.5456 82.2752 78.3672C82.201 78.1888 82.1628 77.9975 82.1628 77.8044C82.1628 77.6112 82.201 77.42 82.2752 77.2416C82.3494 77.0632 82.4582 76.9011 82.5952 76.7646C82.7323 76.6281 82.895 76.5199 83.0741 76.4462C83.2531 76.3725 83.445 76.3347 83.6387 76.335H128.827C129.021 76.3347 129.212 76.3725 129.391 76.4462C129.57 76.5199 129.733 76.6281 129.87 76.7646C130.007 76.9011 130.116 77.0632 130.19 77.2416C130.264 77.42 130.303 77.6112 130.303 77.8044C130.303 77.9975 130.264 78.1888 130.19 78.3672C130.116 78.5456 130.007 78.7077 129.87 78.8442C129.733 78.9806 129.57 79.0888 129.391 79.1625C129.212 79.2363 129.021 79.2741 128.827 79.2738Z" fill="#E4E4E4"/>
<path d="M128.827 85.0801H83.6387C83.2478 85.0801 82.8729 84.9253 82.5965 84.6497C82.3201 84.3741 82.1649 84.0003 82.1649 83.6106C82.1649 83.2209 82.3201 82.8471 82.5965 82.5715C82.8729 82.2959 83.2478 82.1411 83.6387 82.1411H128.827C129.218 82.1411 129.593 82.2959 129.869 82.5715C130.145 82.8471 130.301 83.2209 130.301 83.6106C130.301 84.0003 130.145 84.3741 129.869 84.6497C129.593 84.9253 129.218 85.0801 128.827 85.0801Z" fill="#E4E4E4"/>
<path d="M103.227 90.8865H83.6387C83.2478 90.8865 82.8729 90.7317 82.5965 90.4561C82.3201 90.1805 82.1649 89.8067 82.1649 89.417C82.1649 89.0273 82.3201 88.6535 82.5965 88.3779C82.8729 88.1023 83.2478 87.9475 83.6387 87.9475H103.227C103.618 87.9475 103.992 88.1023 104.269 88.3779C104.545 88.6535 104.7 89.0273 104.7 89.417C104.7 89.8067 104.545 90.1805 104.269 90.4561C103.992 90.7317 103.618 90.8865 103.227 90.8865Z" fill="#E4E4E4"/>
<path d="M128.827 103.047H83.6387C83.445 103.048 83.2531 103.01 83.0741 102.936C82.895 102.863 82.7323 102.754 82.5952 102.618C82.4582 102.481 82.3494 102.319 82.2752 102.141C82.201 101.962 82.1628 101.771 82.1628 101.578C82.1628 101.385 82.201 101.194 82.2752 101.015C82.3494 100.837 82.4582 100.675 82.5952 100.538C82.7323 100.402 82.895 100.294 83.0741 100.22C83.2531 100.146 83.445 100.108 83.6387 100.109H128.827C129.021 100.108 129.212 100.146 129.391 100.22C129.57 100.294 129.733 100.402 129.87 100.538C130.007 100.675 130.116 100.837 130.19 101.015C130.264 101.194 130.303 101.385 130.303 101.578C130.303 101.771 130.264 101.962 130.19 102.141C130.116 102.319 130.007 102.481 129.87 102.618C129.733 102.754 129.57 102.863 129.391 102.936C129.212 103.01 129.021 103.048 128.827 103.047Z" fill="#E4E4E4"/>
<path d="M128.827 108.854H83.6387C83.2478 108.854 82.8729 108.699 82.5965 108.423C82.3201 108.148 82.1649 107.774 82.1649 107.384C82.1649 106.995 82.3201 106.621 82.5965 106.345C82.8729 106.07 83.2478 105.915 83.6387 105.915H128.827C129.218 105.915 129.593 106.07 129.869 106.345C130.145 106.621 130.301 106.995 130.301 107.384C130.301 107.774 130.145 108.148 129.869 108.423C129.593 108.699 129.218 108.854 128.827 108.854Z" fill="#E4E4E4"/>
<path d="M103.227 114.66H83.6387C83.2482 114.66 82.8738 114.505 82.5979 114.229C82.322 113.954 82.167 113.58 82.167 113.191C82.167 112.801 82.322 112.428 82.5979 112.152C82.8738 111.877 83.2482 111.722 83.6387 111.721H103.227C103.617 111.722 103.991 111.877 104.267 112.152C104.543 112.428 104.698 112.801 104.698 113.191C104.698 113.58 104.543 113.954 104.267 114.229C103.991 114.505 103.617 114.66 103.227 114.66Z" fill="#E4E4E4"/>
<path d="M189.685 70.8864H156.42C155.529 70.8854 154.674 70.5318 154.044 69.9033C153.413 69.2748 153.059 68.4226 153.058 67.5337V23.6168C153.059 22.728 153.413 21.8758 154.044 21.2472C154.674 20.6187 155.529 20.2652 156.42 20.2642H189.685C190.576 20.2652 191.431 20.6187 192.061 21.2472C192.691 21.8758 193.046 22.728 193.047 23.6168V67.5337C193.046 68.4226 192.691 69.2747 192.061 69.9033C191.431 70.5318 190.576 70.8854 189.685 70.8864Z" fill="#E6E6E6"/>
<path d="M177.353 68.2417H158.758C157.927 68.2408 157.13 67.9111 156.542 67.3249C155.954 66.7388 155.624 65.9441 155.623 65.1152V26.0352C155.624 25.2062 155.954 24.4115 156.542 23.8253C157.13 23.2391 157.927 22.9094 158.758 22.9084H187.346C188.178 22.9094 188.975 23.2391 189.563 23.8253C190.151 24.4114 190.481 25.2062 190.482 26.0352V55.1514C190.478 58.622 189.094 61.9493 186.632 64.4034C184.171 66.8574 180.834 68.2378 177.353 68.2417Z" fill="white"/>
<path d="M184.494 30.4851H161.61C161.412 30.4851 161.222 30.4067 161.082 30.2672C160.943 30.1276 160.864 29.9383 160.864 29.741C160.864 29.5436 160.943 29.3543 161.082 29.2148C161.222 29.0752 161.412 28.9968 161.61 28.9968H184.494C184.692 28.9968 184.882 29.0752 185.022 29.2148C185.162 29.3543 185.241 29.5436 185.241 29.741C185.241 29.9383 185.162 30.1276 185.022 30.2672C184.882 30.4067 184.692 30.4851 184.494 30.4851Z" fill="#E4E4E4"/>
<path d="M184.494 33.4256H161.61C161.413 33.4252 161.223 33.3466 161.083 33.2071C160.944 33.0676 160.865 32.8786 160.865 32.6814C160.865 32.4843 160.944 32.2953 161.083 32.1558C161.223 32.0162 161.413 31.9377 161.61 31.9373H184.494C184.692 31.9377 184.882 32.0162 185.021 32.1558C185.161 32.2953 185.239 32.4843 185.239 32.6814C185.239 32.8786 185.161 33.0676 185.021 33.2071C184.882 33.3466 184.692 33.4252 184.494 33.4256Z" fill="#E4E4E4"/>
<path d="M171.53 36.3663H161.61C161.413 36.3659 161.223 36.2873 161.083 36.1478C160.944 36.0083 160.865 35.8192 160.865 35.6221C160.865 35.425 160.944 35.2359 161.083 35.0964C161.223 34.9569 161.413 34.8783 161.61 34.8779H171.53C171.728 34.8783 171.917 34.9569 172.057 35.0964C172.196 35.2359 172.275 35.425 172.275 35.6221C172.275 35.8192 172.196 36.0083 172.057 36.1478C171.917 36.2873 171.728 36.3659 171.53 36.3663Z" fill="#E4E4E4"/>
<path d="M184.494 42.5247H161.61C161.412 42.5247 161.222 42.4463 161.082 42.3067C160.943 42.1671 160.864 41.9779 160.864 41.7805C160.864 41.5832 160.943 41.3939 161.082 41.2543C161.222 41.1148 161.412 41.0364 161.61 41.0364H184.494C184.692 41.0364 184.882 41.1148 185.022 41.2543C185.162 41.3939 185.241 41.5832 185.241 41.7805C185.241 41.9779 185.162 42.1671 185.022 42.3067C184.882 42.4463 184.692 42.5247 184.494 42.5247Z" fill="#FFDB00"/>
<path d="M178.483 45.4652H161.61C161.412 45.4652 161.222 45.3868 161.082 45.2472C160.943 45.1076 160.864 44.9184 160.864 44.721C160.864 44.5236 160.943 44.3343 161.082 44.1948C161.222 44.0552 161.412 43.9768 161.61 43.9768H178.483C178.681 43.9768 178.871 44.0552 179.011 44.1948C179.151 44.3343 179.229 44.5236 179.229 44.721C179.229 44.9184 179.151 45.1076 179.011 45.2472C178.871 45.3868 178.681 45.4652 178.483 45.4652Z" fill="#FFDB00"/>
<path d="M171.53 48.4056H161.61C161.413 48.4052 161.223 48.3266 161.083 48.1871C160.944 48.0476 160.865 47.8585 160.865 47.6614C160.865 47.4643 160.944 47.2753 161.083 47.1357C161.223 46.9962 161.413 46.9176 161.61 46.9172H171.53C171.728 46.9176 171.917 46.9962 172.057 47.1357C172.196 47.2753 172.275 47.4643 172.275 47.6614C172.275 47.8585 172.196 48.0476 172.057 48.1871C171.917 48.3266 171.728 48.4052 171.53 48.4056Z" fill="#FFDB00"/>
<path d="M184.494 54.5642H161.61C161.412 54.5642 161.222 54.4858 161.082 54.3462C160.943 54.2067 160.864 54.0174 160.864 53.8201C160.864 53.6227 160.943 53.4334 161.082 53.2939C161.222 53.1543 161.412 53.0759 161.61 53.0759H184.494C184.692 53.0759 184.882 53.1543 185.022 53.2939C185.162 53.4334 185.241 53.6227 185.241 53.8201C185.241 54.0174 185.162 54.2067 185.022 54.3462C184.882 54.4858 184.692 54.5642 184.494 54.5642Z" fill="#E4E4E4"/>
<path d="M184.495 57.5047H161.61C161.412 57.5047 161.222 57.4263 161.082 57.2868C160.943 57.1472 160.864 56.9579 160.864 56.7605C160.864 56.5632 160.943 56.3739 161.082 56.2343C161.222 56.0948 161.412 56.0164 161.61 56.0164H184.495C184.692 56.0164 184.882 56.0948 185.022 56.2343C185.162 56.3739 185.241 56.5632 185.241 56.7605C185.241 56.9579 185.162 57.1472 185.022 57.2868C184.882 57.4263 184.692 57.5047 184.495 57.5047Z" fill="#E4E4E4"/>
<path d="M171.53 60.4451H161.61C161.413 60.4448 161.223 60.3662 161.083 60.2267C160.944 60.0871 160.865 59.8981 160.865 59.701C160.865 59.5039 160.944 59.3148 161.083 59.1753C161.223 59.0358 161.413 58.9572 161.61 58.9568H171.53C171.728 58.9572 171.917 59.0358 172.057 59.1753C172.196 59.3148 172.275 59.5039 172.275 59.701C172.275 59.8981 172.196 60.0871 172.057 60.2267C171.917 60.3662 171.728 60.4448 171.53 60.4451Z" fill="#E4E4E4"/>
<path d="M38.8928 85.9747C39.1476 85.6983 39.3384 85.3697 39.452 85.0119C39.5655 84.654 39.599 84.2757 39.55 83.9036C39.5011 83.5315 39.3709 83.1746 39.1686 82.858C38.9664 82.5415 38.697 82.273 38.3794 82.0715L40.4895 73.1943L36.0235 74.8212L34.7043 83.0017C34.4002 83.5561 34.3106 84.2025 34.4525 84.8183C34.5944 85.4341 34.9579 85.9767 35.4742 86.3432C35.9905 86.7096 36.6237 86.8745 37.2537 86.8066C37.8838 86.7387 38.467 86.4427 38.8928 85.9747Z" fill="#FFB8B8"/>
<path d="M49.6327 48.7744L47.8403 53.3698C47.8403 53.3698 48.6085 57.9653 47.3282 58.9865C46.048 60.0077 46.5601 60.0077 46.5601 60.7736C46.516 61.3229 46.3564 61.8569 46.0917 62.3407C45.827 62.8246 45.4631 63.2475 45.0238 63.5819C43.9996 64.3478 39.3907 79.9211 39.3907 79.9211H34.7817C34.9306 78.7343 34.9306 77.5337 34.7817 76.3469C34.5257 74.5598 35.5499 69.9644 36.062 69.1985C36.5741 68.4326 36.062 67.4114 36.062 65.8796C36.062 64.3478 37.0862 63.5819 37.0862 61.0289C37.0862 58.4758 40.1588 38.5624 39.9027 36.2647C39.6467 33.967 42.4633 31.9246 42.4633 31.9246H45.0238L49.6327 48.7744Z" fill="#FFDB00"/>
<path d="M60.4772 58.5214L64.7372 77.477L37.4382 75.7838L44.8615 57.1677L60.4772 58.5214Z" fill="#FFB8B8"/>
<path d="M0.972267 129.765C1.78491 132.695 3.05375 135.479 4.73244 138.016C8.48359 143.671 13.8518 147.996 19.7521 151.457C20.1609 151.7 20.5757 151.937 20.9905 152.17H25.1293L25.2736 151.841V151.838L25.4419 151.457L25.463 151.412L25.472 151.457L25.6373 152.17H27.6692C27.8375 151.934 28.0028 151.697 28.1651 151.457C28.4026 151.107 28.631 150.753 28.8474 150.393C29.2294 149.764 29.5707 149.112 29.8693 148.439C29.9054 148.364 29.9355 148.289 29.9655 148.215L29.8303 148.068L30.3923 145.616L29.2622 145.43L30.5006 141.621C30.4555 141.48 30.4043 141.34 30.3503 141.199C29.6559 139.445 28.3514 138.136 26.8035 137.036C25.2105 135.9 23.3559 134.989 21.6517 134.042C20.8521 133.595 20.0647 133.125 19.2982 132.627V132.624C18.3183 131.992 17.3675 131.316 16.4457 130.596C16.43 130.586 16.415 130.575 16.4007 130.563C16.3879 130.553 16.3759 130.543 16.3646 130.533C12.2323 127.314 8.7354 123.358 6.05191 118.866L6.05075 118.865L6.04976 118.865L6.04911 118.864L6.0489 118.863C5.95875 118.719 5.87461 118.575 5.79044 118.428V118.425C4.6915 116.54 3.74568 114.571 2.96205 112.536V112.533C2.90191 112.383 2.84783 112.233 2.79072 112.083C2.71257 112.215 2.63743 112.347 2.56529 112.479L2.56413 112.479L2.56315 112.48L2.5625 112.481L2.56228 112.482C-0.353274 117.682 -0.629813 123.945 0.972267 129.765Z" fill="#F0F0F0"/>
<path d="M2.56231 112.482C2.53311 115.257 2.82253 118.026 3.42491 120.736C3.69562 121.976 4.03276 123.2 4.43488 124.404C5.21547 126.759 6.2357 129.029 7.47965 131.177C7.54878 131.294 7.61493 131.408 7.68706 131.522V131.525C8.2187 132.418 8.79554 133.285 9.41536 134.12C10.3534 135.451 11.5122 136.612 12.8419 137.554C13.928 138.27 15.1563 138.743 16.4428 138.942C16.6832 138.987 16.9297 139.02 17.1792 139.05C18.1741 139.167 19.202 139.212 20.1879 139.422C20.6873 139.52 21.1735 139.676 21.6367 139.886C23.2237 140.62 24.1164 142.158 24.5072 143.8C24.5763 144.088 24.6304 144.378 24.6725 144.669C25.0001 146.902 24.6394 149.222 24.8258 151.457C24.8468 151.694 24.8738 151.934 24.9069 152.17H25.1293L25.2736 151.841V151.838C25.2586 151.712 25.2466 151.586 25.2345 151.457C25.1624 150.359 25.1534 149.257 25.2075 148.158C25.2195 147.663 25.2285 147.166 25.2225 146.668C25.2165 146.27 25.2015 145.871 25.1714 145.475V145.472C25.1504 145.227 25.1263 144.984 25.0933 144.741C24.9978 143.998 24.8142 143.268 24.5462 142.568C24.2847 141.847 23.8732 141.189 23.3386 140.637C22.804 140.086 22.1584 139.653 21.4443 139.368C21.0081 139.205 20.5585 139.079 20.1007 138.993C19.0938 138.801 18.0538 138.753 17.0409 138.627C16.9327 138.615 16.8245 138.6 16.7193 138.582C16.584 138.561 16.4518 138.537 16.3196 138.513C14.9942 138.279 13.7424 137.738 12.6645 136.934C11.3836 135.923 10.2699 134.717 9.36424 133.362C8.87133 132.657 8.40241 131.938 7.9666 131.198C7.96661 131.198 7.96654 131.197 7.96639 131.197C7.96624 131.196 7.96602 131.196 7.96574 131.196C7.96546 131.196 7.96512 131.195 7.96476 131.195C7.96439 131.195 7.96399 131.195 7.9636 131.195C7.94253 131.159 7.92152 131.126 7.90048 131.09L7.89747 131.084C6.02804 127.899 4.66337 124.444 3.85173 120.844C3.82467 120.712 3.7946 120.58 3.76459 120.448C3.20671 117.848 2.93758 115.195 2.96205 112.536V112.533C2.96205 112.407 2.96503 112.284 2.96804 112.158C2.97405 111.901 2.5743 111.844 2.56832 112.101C2.56532 112.227 2.56231 112.353 2.56532 112.479C2.56492 112.479 2.56452 112.479 2.56415 112.479C2.56378 112.479 2.56345 112.48 2.56317 112.48C2.56289 112.48 2.56266 112.481 2.56252 112.481C2.56237 112.481 2.5623 112.482 2.56231 112.482Z" fill="white"/>
<path d="M7.85865 131.44C6.71331 132.02 5.39847 132.176 4.14894 131.878C2.89941 131.581 1.79657 130.851 1.03735 129.817C0.884452 129.608 1.20392 129.361 1.35702 129.571C2.06222 130.534 3.0896 131.215 4.25372 131.489C5.41785 131.764 6.64204 131.614 7.70535 131.068C7.93656 130.949 8.08854 131.323 7.85865 131.44Z" fill="white"/>
<path d="M3.64845 120.485C4.13851 120.352 4.58793 120.101 4.95634 119.752C5.32476 119.404 5.60063 118.97 5.75919 118.489C5.83974 118.242 6.21193 118.399 6.1319 118.645C5.95424 119.175 5.64898 119.654 5.24279 120.04C4.83661 120.426 4.34185 120.706 3.80176 120.857C3.75205 120.876 3.69714 120.875 3.64819 120.854C3.59924 120.834 3.55992 120.796 3.53822 120.748C3.51817 120.698 3.5185 120.643 3.53915 120.594C3.55979 120.544 3.59906 120.505 3.64845 120.485Z" fill="white"/>
<path d="M19.2982 132.625V132.628C19.3914 134.768 19.6598 136.897 20.1007 138.993V138.996C20.1248 139.14 20.1579 139.281 20.1879 139.422C20.9134 142.664 21.9304 145.835 23.2267 148.895C23.5844 149.758 23.9591 150.612 24.3509 151.457C24.459 151.697 24.5703 151.934 24.6845 152.171H25.1293L25.2736 151.841V151.838L25.4419 151.457L25.463 151.412L25.472 151.457L25.6373 152.171H29.9355L30.7711 151.457L31.9884 150.417L30.2872 148.565L30.0076 148.26L29.9656 148.215L29.8303 148.068L30.3923 145.616L29.2622 145.43L30.5006 141.621L31.0867 139.82L31.234 139.368L32.0906 136.733L34.6755 137.216L35.0964 135.747C34.3216 133.957 33.6767 132.113 33.1667 130.23C33.1637 130.215 33.1577 130.203 33.1547 130.188C31.789 125.117 31.3793 119.837 31.9464 114.616V114.613C31.9644 114.445 31.9854 114.274 32.0095 114.11V114.104C32.2671 111.94 32.7014 109.801 33.308 107.708C33.3501 107.549 33.3981 107.393 33.4433 107.238C33.305 107.297 33.1697 107.354 33.0314 107.414L33.0284 107.417H33.0224C32.803 107.513 32.5836 107.615 32.3702 107.723C27.2424 110.207 23.4702 114.871 21.3271 120.247C21.3211 120.262 21.3151 120.274 21.3091 120.289C20.1908 123.108 19.5244 126.084 19.3343 129.109C19.2623 130.28 19.2502 131.453 19.2982 132.625Z" fill="#F0F0F0"/>
<path d="M33.543 107.405C33.4648 107.504 33.3837 107.606 33.3085 107.708C32.7224 108.466 32.1683 109.248 31.6463 110.054C30.7167 111.477 29.891 112.964 29.1756 114.505C29.1185 114.625 29.0614 114.747 29.0073 114.87C27.4765 118.237 26.4788 121.82 26.0497 125.491C26.0437 125.527 26.0407 125.56 26.0376 125.596C25.9385 126.453 25.8744 127.314 25.8453 128.177C25.7494 129.802 25.9107 131.432 26.3232 133.008C26.3833 133.215 26.4494 133.418 26.5216 133.616C26.7024 134.101 26.9288 134.568 27.1979 135.01C27.3912 135.332 27.6061 135.642 27.8411 135.936C27.9824 136.116 28.1296 136.292 28.2859 136.463C28.3761 136.562 28.4693 136.661 28.5625 136.76C28.6406 136.835 28.7158 136.913 28.7939 136.988C29.6055 137.773 30.5012 138.501 31.2346 139.367L31.0873 139.82C30.3809 138.927 29.4702 138.186 28.6496 137.407C28.1345 136.924 27.6656 136.395 27.249 135.825C27.1949 135.747 27.1377 135.669 27.0866 135.588C26.8082 135.182 26.5677 134.752 26.3683 134.302C26.2661 134.078 26.1729 133.847 26.0888 133.607C25.5977 132.058 25.3741 130.436 25.4275 128.812C25.4372 127.772 25.4994 126.732 25.6139 125.698C25.6259 125.563 25.6409 125.432 25.6589 125.297C25.9637 122.835 26.5197 120.411 27.3181 118.062C28.3286 115.082 29.7186 112.244 31.454 109.617C31.9499 108.864 32.4759 108.13 33.032 107.414C33.1041 107.315 33.1793 107.219 33.2574 107.12C33.4167 106.916 33.7023 107.201 33.543 107.405Z" fill="white"/>
<path d="M25.802 125.736C24.5373 125.512 23.3937 124.846 22.5756 123.859C21.7574 122.871 21.318 121.626 21.3357 120.345C21.3369 120.293 21.3584 120.243 21.3956 120.207C21.4328 120.17 21.4829 120.149 21.5353 120.148C21.5877 120.148 21.6383 120.167 21.6764 120.203C21.7146 120.239 21.7372 120.288 21.7397 120.34C21.721 121.533 22.1305 122.693 22.8942 123.611C23.658 124.529 24.7257 125.145 25.9046 125.347C26.1608 125.391 26.0567 125.78 25.802 125.736Z" fill="white"/>
<path d="M29.0558 114.461C29.527 114.65 30.0378 114.719 30.5423 114.662C31.0468 114.605 31.5292 114.424 31.9462 114.135C32.1596 113.986 32.362 114.335 32.15 114.483C31.6878 114.8 31.1547 114.999 30.5975 115.063C30.0402 115.127 29.4757 115.054 28.9532 114.851C28.9023 114.836 28.8591 114.802 28.8324 114.756C28.8056 114.711 28.7973 114.656 28.8092 114.605C28.823 114.553 28.8567 114.509 28.9029 114.482C28.9491 114.456 29.004 114.448 29.0558 114.461Z" fill="white"/>
<path d="M65.4342 93.3278C63.2821 105.121 62.744 110.212 62.744 110.212C62.744 110.212 64.3581 112.089 63.2821 113.161C62.206 114.234 63.2821 116.377 63.2821 116.377L60.4652 138.806L59.864 142.102L54.2228 141.309L55.0548 138.206L53.6066 116.647C53.6066 116.647 52.5305 114.501 53.0686 113.965C53.6066 113.428 52.5306 110.212 52.5306 110.212L51.187 84.7506L42.8521 112.625C42.8521 112.625 43.6606 113.698 42.8521 114.501C42.0466 115.304 40.4355 119.326 40.4355 119.326L34.3153 135.509L33.113 137.907L32.4733 137.604L29.6599 137.077L29.1429 136.981L28.2232 136.807L27.631 136.696L27.4297 136.66L26.4558 136.478L26.7504 135.174L28.9049 131.913L31.0966 115.919L31.1928 115.49L31.295 115.038C31.295 115.038 30.757 113.698 31.5625 112.892C31.7982 112.646 31.9703 112.347 32.064 112.02C32.1578 111.693 32.1703 111.348 32.1005 111.016C32.0742 110.988 32.05 110.958 32.0284 110.926C31.9333 110.796 31.8676 110.646 31.836 110.488C31.7639 110.153 31.827 109.682 32.371 109.14C32.5243 108.977 32.6529 108.794 32.7528 108.594C33.5703 107.051 33.9821 103.781 33.9821 103.781C33.9821 103.781 34.7095 77.8846 37.0901 73.9286C37.2163 73.7218 39.7435 69.752 39.8757 69.671C42.5628 68.0647 63.5349 69.9837 63.5349 69.9837C63.5349 69.9837 64.8029 73.3802 64.86 73.7338C65.1697 75.7208 67.2586 83.324 65.4342 93.3278Z" fill="#2F2E41"/>
<path d="M87.197 35.7532C87.1498 36.1255 87.0213 36.483 86.8206 36.8005C86.6198 37.118 86.3517 37.3877 86.0351 37.5907C85.7184 37.7937 85.361 37.9249 84.988 37.9753C84.615 38.0257 84.2355 37.9939 83.8761 37.8821L78.4394 45.2202L76.802 40.7693L82.2158 34.4833C82.4441 33.8938 82.8813 33.4083 83.4446 33.1188C84.0078 32.8292 84.6581 32.7557 85.2721 32.9122C85.8861 33.0688 86.4212 33.4444 86.7759 33.968C87.1307 34.4916 87.2805 35.1268 87.197 35.7532Z" fill="#FFB8B8"/>
<path d="M37.5897 66.8359C37.0913 66.8359 36.8082 66.7384 36.6986 66.5294C36.5377 66.2227 36.8169 65.8221 37.1401 65.3579C37.3798 65.0548 37.569 64.7152 37.7001 64.352C37.8934 63.5811 39.198 44.1086 38.4176 40.2179C38.2371 39.3176 38.3925 38.1636 38.8794 36.7881C40.2092 33.0314 42.0244 31.8768 45.6405 29.577C45.934 29.3903 46.2397 29.1953 46.5575 28.992C46.9686 28.7286 46.9457 27.8552 46.9215 26.9304C46.8946 25.9026 46.8667 24.8396 47.3717 24.1752L47.4046 24.1319L47.4576 24.1196C48.6791 23.8381 52.7875 23.3154 55.2205 24.1234L55.2541 24.1348L55.2792 24.1597C55.8572 24.736 55.9099 25.8522 55.9608 26.9316C56.0025 27.8178 56.042 28.6545 56.369 29.018C58.8688 31.7963 61.704 31.7422 61.7328 31.7416L61.8732 31.7375L61.8872 31.8768C62.9745 42.9049 64.7275 59.5499 65.1 60.2049C65.1195 60.2348 65.1303 60.2696 65.1314 60.3053C65.1325 60.341 65.1238 60.3763 65.1061 60.4074C64.5593 61.4262 39.4683 66.8359 37.5897 66.8359Z" fill="#FFDB00"/>
<path d="M53.918 20.9979C58.0128 20.9979 61.3323 17.6881 61.3323 13.6053C61.3323 9.52245 58.0128 6.21265 53.918 6.21265C49.8231 6.21265 46.5036 9.52245 46.5036 13.6053C46.5036 17.6881 49.8231 20.9979 53.918 20.9979Z" fill="#FFB8B8"/>
<path d="M58.8717 27.1187C58.5202 26.6183 56.7376 20.5053 55.9566 18.6289C55.8766 19.0321 54.9809 20.5956 54.96 21.0117L54.9522 21.1658L54.7987 21.1856C54.5678 21.215 49.1147 21.8749 46.2767 18.6664C44.5953 16.7658 44.214 13.9151 45.1419 10.1917C44.9731 10.1587 44.8114 10.0966 44.664 10.0082C44.4186 9.83885 44.2132 9.61816 44.0622 9.36152C43.9111 9.10488 43.818 8.81847 43.7893 8.52227L43.6322 8.56427C42.832 8.77951 41.9295 9.06433 41.3464 9.72176C40.6974 10.4529 40.5818 11.4464 40.4593 12.498C40.4116 13.0001 40.3322 13.4987 40.2215 13.9908C39.8261 15.5813 38.713 17.071 36.913 18.4187C35.1008 19.7756 33.2533 20.5518 31.4215 20.7254C29.2579 20.9312 27.1713 20.2224 25.8418 18.831C24.3591 17.2796 23.9713 14.8927 24.9194 13.1556L25.0719 12.8759L25.2395 13.147C26.0835 14.5127 27.9276 15.2503 29.7245 14.9403C31.2653 14.6746 32.7926 13.6991 34.0253 12.1937C35.1506 10.8196 35.9267 9.19663 36.6774 7.62705C37.4409 6.03115 38.2302 4.38082 39.3673 2.98051C40.6498 1.40102 42.2504 0.369531 43.8743 0.0756994C45.0569 -0.137383 46.1122 0.104174 46.7699 0.739803C47.2347 1.21743 47.5099 1.84689 47.5447 2.51146C47.9491 2.42134 48.3708 2.4455 48.7623 2.58122C49.1399 2.73438 49.4688 2.98654 49.7143 3.31098C49.9598 3.63542 50.1127 4.02004 50.1568 4.42408C52.5395 3.17448 55.6929 3.37782 57.3239 4.31538C58.0068 4.708 58.3989 5.20247 58.4685 5.75409C60.3949 5.86134 62.4668 7.73233 62.4668 10.3831V10.5677H62.2817C60.757 10.5677 59.3651 11.442 58.5582 12.9063C58.0844 13.7597 57.85 14.7246 57.8794 15.6995C57.9089 16.6744 58.2012 17.6234 58.7256 18.4468C59.2964 19.3202 59.6861 20.2986 59.8717 21.3244C60.0574 22.3502 60.0353 23.4028 59.8068 24.4199L59.1111 27.4594L58.8717 27.1187Z" fill="#2F2E41"/>
<path d="M67.3829 54.7665L62.4955 52.0253C53.9729 46.1353 51.8736 41.4579 51.6112 38.5698C51.3311 35.4883 52.9777 33.8029 53.048 33.7329L53.086 33.7051L57.4917 31.4606C58.0513 31.1755 58.6653 31.0123 59.293 30.9818C59.9207 30.9513 60.5477 31.0542 61.1325 31.2836C61.7173 31.513 62.2465 31.8637 62.6851 32.3125C63.1236 32.7614 63.4615 33.298 63.6762 33.8868L67.7514 45.0618L72.2696 41.7392L74.1964 40.982L75.7512 38.9091L80.0215 36.4258L83.1938 39.2725L79.2043 47.2279L76.9879 47.7907L76.5178 48.9979L76.4759 49.0246L67.3829 54.7665Z" fill="#FFDB00"/>
</g>
<defs>
<clipPath id="clip0_8_1071">
<rect width="236" height="130" fill="white"/>
</clipPath>
</defs>
</svg>
