<svg width="295" height="155" viewBox="0 0 295 155" fill="none" xmlns="http://www.w3.org/2000/svg">
<g clip-path="url(#clip0_8_893)">
<path d="M159.297 46.7104C160.177 47.1633 160.908 47.8132 161.42 48.5958C161.931 49.3784 162.205 50.2665 162.213 51.1723C162.221 52.078 161.964 52.97 161.467 53.7599C160.97 54.5497 160.25 55.2101 159.379 55.6757C158.507 56.1412 157.515 56.3958 156.499 56.4141C155.484 56.4325 154.481 56.214 153.589 55.7803C152.698 55.3466 151.948 54.7128 151.416 53.9415C150.883 53.1703 150.586 52.2883 150.553 51.383L150.55 51.2144L150.553 51.0458C150.585 50.1476 150.878 49.2723 151.403 48.5052C151.928 47.7381 152.667 47.1054 153.548 46.6688C154.428 46.2321 155.421 46.0064 156.429 46.0137C157.436 46.021 158.425 46.261 159.297 46.7104ZM158.248 52.4019C158.193 52.354 158.128 52.3163 158.057 52.2908C157.986 52.2653 157.91 52.2525 157.834 52.2532C157.757 52.2539 157.681 52.268 157.611 52.2947C157.54 52.3215 157.477 52.3603 157.423 52.4091C157.287 52.5327 157.125 52.631 156.946 52.698C156.768 52.7651 156.575 52.7996 156.381 52.7996C156.187 52.7996 155.995 52.7651 155.816 52.698C155.638 52.631 155.476 52.5327 155.34 52.4091C155.232 52.3106 155.084 52.2545 154.929 52.2532C154.775 52.2518 154.626 52.3053 154.515 52.4019C154.405 52.4984 154.342 52.6301 154.341 52.768C154.339 52.9059 154.399 53.0387 154.507 53.1372C154.752 53.3595 155.043 53.5361 155.365 53.6567C155.687 53.7773 156.032 53.8394 156.381 53.8394C156.73 53.8394 157.076 53.7773 157.398 53.6567C157.72 53.5361 158.011 53.3595 158.256 53.1372C158.309 53.0884 158.352 53.0307 158.38 52.9674C158.409 52.904 158.423 52.8363 158.422 52.768C158.422 52.6997 158.406 52.6322 158.376 52.5694C158.346 52.5066 158.302 52.4497 158.248 52.4019ZM154.638 49.6526L154.564 49.6562C154.416 49.6712 154.28 49.7362 154.184 49.838C154.087 49.9398 154.039 50.0706 154.048 50.2034C154.056 50.3362 154.122 50.461 154.231 50.5521C154.339 50.6431 154.483 50.6935 154.632 50.6928L154.706 50.6892C154.854 50.6743 154.991 50.6092 155.087 50.5074C155.183 50.4056 155.232 50.2749 155.223 50.142C155.214 50.0092 155.149 49.8844 155.04 49.7934C154.931 49.7023 154.787 49.6519 154.638 49.6526ZM158.137 49.6526L158.063 49.6562C157.915 49.6712 157.778 49.7362 157.682 49.838C157.586 49.9398 157.538 50.0706 157.546 50.2034C157.555 50.3362 157.621 50.461 157.729 50.5521C157.838 50.6431 157.982 50.6935 158.131 50.6928L158.205 50.6892C158.353 50.6743 158.489 50.6092 158.586 50.5074C158.682 50.4056 158.73 50.2749 158.722 50.142C158.713 50.0092 158.647 49.8844 158.539 49.7934C158.43 49.7023 158.286 49.6519 158.137 49.6526Z" fill="#6C63FF"/>
<path d="M221.274 149.73L221.175 149.725H216.264C216.115 149.726 215.971 149.678 215.859 149.59C215.747 149.502 215.675 149.381 215.656 149.249L215.651 149.185V144.02C215.652 143.925 215.681 143.831 215.735 143.749C215.789 143.667 215.866 143.599 215.959 143.552C216.22 143.42 216.44 143.232 216.6 143.006C216.759 142.78 216.854 142.522 216.874 142.255L216.879 142.146V141.603C216.881 141.388 216.929 141.176 217.022 140.979C217.115 140.781 217.252 140.602 217.422 140.451C217.593 140.3 217.796 140.181 218.018 140.1C218.241 140.019 218.48 139.978 218.72 139.979C219.187 139.977 219.638 140.134 219.98 140.418C220.321 140.703 220.528 141.093 220.558 141.509L220.561 141.602V143.769H221.789C222.238 143.768 222.672 143.913 223.01 144.178C223.347 144.443 223.563 144.808 223.618 145.206L223.628 145.3L223.63 145.394L223.618 145.5L223.001 148.226C222.77 149.099 222.088 149.73 221.296 149.73L221.274 149.73ZM213.922 149.725C213.614 149.727 213.317 149.625 213.09 149.44C212.863 149.254 212.723 148.999 212.699 148.725L212.694 148.645V144.853C212.696 144.578 212.813 144.314 213.024 144.113C213.235 143.913 213.523 143.79 213.83 143.771L213.922 143.769H214.537C214.687 143.769 214.831 143.817 214.943 143.906C215.055 143.994 215.127 144.116 215.145 144.248L215.15 144.311V149.184C215.15 149.318 215.094 149.446 214.994 149.545C214.894 149.644 214.756 149.707 214.608 149.722L214.537 149.724L213.922 149.725Z" fill="#6C63FF"/>
<path d="M198.323 147.492C181.677 147.492 163.588 145.285 145.621 141.043C123.402 135.797 103.03 127.879 86.7062 118.145L87.1896 117.5C103.436 127.187 123.716 135.069 145.844 140.293C165.84 145.015 185.985 147.202 204.096 146.625L204.127 147.4C202.214 147.462 200.28 147.492 198.323 147.492Z" fill="#090814"/>
<path d="M195.83 46.7328C190.424 45.163 184.864 43.7013 179.303 42.3884C147.303 34.8332 115.847 32.1508 88.3342 34.6326L88.2466 33.8608C115.862 31.371 147.426 34.0583 179.525 41.6386C185.101 42.9558 190.678 44.4211 196.1 45.9955L195.83 46.7328Z" fill="#090814"/>
<path d="M49.1969 107.09C35.8596 95.3806 30.2262 83.1646 33.3348 72.6928C37.3225 59.2544 55.0455 49.9628 81.9561 47.2007L82.0554 47.9716C55.5189 50.6951 38.0683 59.778 34.1774 72.8913C31.1523 83.0826 36.7036 95.0316 49.8087 106.538L49.1969 107.09Z" fill="#090814"/>
<path d="M230.081 142.679L229.802 141.944C244.69 137.455 254.001 130.224 256.73 121.031C260.199 109.345 252.663 95.7837 235.51 82.8462C218.27 69.8428 193.408 59.0529 165.504 52.4651L165.726 51.715C193.75 58.3317 218.733 69.1773 236.07 82.2538C253.494 95.3958 261.129 109.238 257.57 121.229C254.764 130.686 245.258 138.103 230.081 142.679Z" fill="#090814"/>
<path d="M82.0388 144.855C49.3306 131.917 24.1262 115.133 11.0691 97.5925L11.7939 97.1644C24.7605 114.584 49.8323 131.268 82.3907 144.147L82.0388 144.855Z" fill="#090814"/>
<path d="M211.965 111.123C213.887 111.123 215.445 109.734 215.445 108.02C215.445 106.306 213.887 104.917 211.965 104.917C210.043 104.917 208.486 106.306 208.486 108.02C208.486 109.734 210.043 111.123 211.965 111.123Z" fill="#E6E6E6"/>
<path d="M147.221 25.0496C149.143 25.0496 150.7 23.6603 150.7 21.9464C150.7 20.2325 149.143 18.8431 147.221 18.8431C145.299 18.8431 143.741 20.2325 143.741 21.9464C143.741 23.6603 145.299 25.0496 147.221 25.0496Z" fill="#E6E6E6"/>
<path d="M74.3068 140.98C74.3068 141.771 74.3359 142.561 74.398 143.344C74.4637 144.28 74.5767 145.21 74.7303 146.133C75.2447 149.241 76.228 152.273 77.6535 155.147L77.872 155.575L77.9828 155.789C78.0197 155.861 78.0592 155.932 78.0958 156.001C78.1467 156.095 78.1944 156.186 78.2435 156.277C78.3055 156.391 78.3675 156.505 78.4329 156.618C78.4403 156.631 78.4473 156.647 78.4584 156.664C78.513 156.762 78.564 156.855 78.6223 156.953C78.6332 156.974 78.6455 156.995 78.6592 157.015C78.7213 157.126 78.7866 157.239 78.8523 157.35C78.9262 157.467 78.9945 157.587 79.0672 157.704C79.2423 157.994 79.4243 158.279 79.6104 158.566C79.665 158.65 79.7211 158.735 79.778 158.819C79.829 158.897 79.8799 158.975 79.9346 159.053C79.9715 159.105 80.0084 159.161 80.0453 159.213C80.1037 159.301 80.162 159.385 80.224 159.473C80.3588 159.664 80.4973 159.856 80.6324 160.048H80.6361C80.6981 160.136 80.7638 160.224 80.8292 160.308V160.312C81.0223 160.572 81.2228 160.831 81.4233 161.088C81.4243 161.088 81.4252 161.089 81.4259 161.089C81.4266 161.09 81.427 161.091 81.427 161.092C81.5872 161.3 81.7549 161.501 81.9192 161.703V161.706C82.0299 161.833 82.1341 161.963 82.2437 162.09C82.3312 162.194 82.4224 162.301 82.5133 162.405C82.5314 162.428 82.5535 162.447 82.5716 162.471V162.474C82.5971 162.504 82.6226 162.53 82.648 162.559C83.0345 163.001 83.433 163.433 83.8436 163.856L83.9093 163.924C83.9311 163.947 83.9566 163.97 83.9787 163.996C84.0157 164.032 84.0481 164.067 84.0843 164.103C84.1205 164.139 84.1537 164.174 84.1899 164.21C86.3307 166.361 88.758 168.27 91.418 169.896C91.7717 170.114 92.1324 170.324 92.4932 170.53C92.5844 170.582 92.6756 170.634 92.7664 170.683C92.7919 170.699 92.8211 170.715 92.8465 170.731C92.8975 170.757 92.9451 170.783 92.9942 170.813C93.0433 170.842 93.0891 170.865 93.1401 170.891C93.3332 170.998 93.53 171.102 93.7268 171.206C93.774 171.232 93.8254 171.258 93.8745 171.284C93.9236 171.31 93.973 171.333 94.0222 171.359C94.0222 171.362 94.0222 171.362 94.0259 171.362H94.0295V171.365H94.0332C94.2774 171.492 94.5253 171.616 94.7769 171.736C94.9116 171.802 95.0501 171.868 95.1889 171.931C95.5024 172.084 95.8196 172.23 96.1367 172.37C96.2497 172.419 96.3664 172.469 96.4794 172.519C96.5743 172.558 96.6688 172.601 96.7637 172.64C96.7929 172.652 96.8183 172.662 96.8438 172.675C96.9239 172.708 97.0004 172.741 97.0809 172.774C97.1684 172.81 97.2559 172.846 97.3393 172.882C97.4379 172.92 97.5324 172.96 97.631 172.995C97.9954 173.141 98.3636 173.281 98.7317 173.414C100.051 173.897 101.399 174.313 102.77 174.663C102.832 174.679 102.898 174.696 102.963 174.711C103.55 174.858 104.141 174.991 104.736 175.111C105.774 175.326 106.823 175.501 107.881 175.638H107.889L108.268 175.687C108.279 175.687 108.29 175.69 108.305 175.69C108.305 175.693 108.305 175.693 108.308 175.69L108.727 175.739C108.737 175.741 108.747 175.742 108.757 175.742C108.888 175.758 109.023 175.771 109.154 175.784L109.58 175.823L109.908 175.852C109.918 175.855 109.928 175.856 109.937 175.856C110.036 175.862 110.134 175.872 110.233 175.878H110.248L110.503 175.898C111.52 175.969 112.54 176.002 113.575 176.002C114.695 176.002 115.806 175.963 116.903 175.878H116.914L117.618 175.82C117.68 175.813 117.738 175.81 117.8 175.804C117.811 175.804 117.826 175.8 117.837 175.8C117.855 175.797 117.874 175.797 117.895 175.794C117.905 175.794 117.915 175.793 117.925 175.791C118.005 175.784 118.085 175.774 118.169 175.768L118.442 175.738C118.533 175.729 118.624 175.716 118.715 175.706C118.737 175.702 118.755 175.702 118.777 175.699C118.843 175.692 118.908 175.683 118.974 175.673L119.069 175.663C119.135 175.653 119.197 175.647 119.262 175.637H119.266C121.266 175.381 123.24 174.984 125.17 174.452C125.272 174.422 125.375 174.396 125.476 174.367C125.48 174.367 125.484 174.364 125.488 174.364C125.517 174.354 125.55 174.348 125.579 174.338C125.852 174.26 126.122 174.178 126.391 174.094C126.763 173.983 127.13 173.864 127.499 173.74C127.597 173.704 127.696 173.672 127.794 173.636C127.995 173.567 128.191 173.496 128.388 173.424C128.723 173.304 129.059 173.177 129.391 173.047C129.7 172.924 130.007 172.8 130.314 172.67C130.321 172.667 130.332 172.667 130.339 172.66C130.409 172.631 130.478 172.602 130.543 172.572H130.547C132.226 171.854 133.845 171.029 135.391 170.105C135.887 169.809 136.376 169.504 136.857 169.188C137.243 168.931 137.622 168.671 138.001 168.405C139.871 167.078 141.602 165.603 143.173 163.997V163.994C143.286 163.883 143.392 163.769 143.501 163.655C143.519 163.639 143.534 163.623 143.548 163.61C143.618 163.535 143.683 163.464 143.753 163.392V163.389C143.844 163.295 143.935 163.197 144.022 163.1C144.044 163.077 144.062 163.057 144.08 163.038V163.034C144.154 162.956 144.223 162.878 144.295 162.797C144.332 162.758 144.365 162.719 144.401 162.68V162.677C144.616 162.436 144.824 162.196 145.032 161.949C145.086 161.883 145.142 161.817 145.199 161.747C145.462 161.432 145.716 161.11 145.965 160.788V160.785C146.06 160.665 146.149 160.541 146.245 160.421L146.519 160.05C146.61 159.92 146.703 159.794 146.795 159.663L146.807 159.644C146.898 159.521 146.989 159.39 147.076 159.264C147.145 159.16 147.215 159.059 147.284 158.958C147.328 158.89 147.375 158.821 147.419 158.75C147.436 158.728 147.452 158.705 147.466 158.682L147.772 158.204C147.892 158.019 148.009 157.83 148.126 157.642C148.169 157.564 148.217 157.486 148.264 157.407C148.282 157.381 148.297 157.355 148.312 157.329C148.366 157.239 148.422 157.144 148.472 157.05C148.521 156.956 148.583 156.864 148.636 156.77C148.689 156.676 148.741 156.585 148.792 156.491C148.833 156.419 148.869 156.348 148.909 156.276C148.912 156.271 148.916 156.265 148.92 156.26C148.938 156.224 148.957 156.192 148.971 156.159C148.975 156.155 148.979 156.149 148.982 156.143C149.022 156.072 149.058 155.997 149.099 155.926C149.15 155.832 149.197 155.734 149.246 155.64C149.279 155.574 149.316 155.508 149.348 155.438C149.396 155.344 149.447 155.249 149.49 155.152C149.541 155.053 149.589 154.957 149.636 154.855C149.65 154.831 149.662 154.806 149.673 154.781C149.699 154.735 149.717 154.69 149.739 154.644C149.797 154.524 149.856 154.4 149.91 154.28C149.976 154.143 150.038 154.004 150.095 153.867C150.153 153.74 150.208 153.61 150.263 153.48L150.284 153.435C151.134 151.44 151.778 149.38 152.209 147.281V147.278C152.452 146.079 152.626 144.87 152.73 143.656C152.734 143.587 152.741 143.524 152.744 143.458C152.81 142.635 152.839 141.812 152.839 140.981C152.839 140.614 152.832 140.25 152.821 139.886C152.567 132.271 149.522 124.941 144.154 119.016C144.037 118.886 143.92 118.756 143.8 118.626C143.68 118.496 143.556 118.369 143.435 118.242C139.44 114.069 134.4 110.792 128.724 108.674C123.047 106.557 116.892 105.658 110.755 106.051C104.617 106.445 98.6696 108.118 93.3906 110.938C88.1117 113.757 83.6494 117.643 80.3636 122.283C80.1849 122.537 80.0066 122.793 79.8352 123.05C79.6639 123.307 79.4926 123.57 79.325 123.834C76.0245 129.069 74.296 134.975 74.3068 140.98Z" fill="#F2F2F2"/>
<path d="M98.1239 121.765C98.0951 121.761 98.0663 121.757 98.0379 121.753C98.1585 121.686 98.2721 121.61 98.3772 121.525L98.1239 121.765Z" fill="white"/>
<path d="M109.031 152.077H117.437L117.959 160.683L108.02 159.994L109.031 152.077Z" fill="#FFB9B9"/>
<path d="M111.023 154.723C117.978 154.723 123.616 149.695 123.616 143.492C123.616 137.289 117.978 132.261 111.023 132.261C104.068 132.261 98.4304 137.289 98.4304 143.492C98.4304 149.695 104.068 154.723 111.023 154.723Z" fill="#FFB9B9"/>
<path d="M103.174 153.174C101.831 152.356 100.46 150.784 99.5447 149.606C98.3315 148.057 97.4967 146.298 97.0944 144.443C96.6922 142.588 96.7315 140.679 97.2097 138.838C97.3622 138.102 97.737 137.417 98.2938 136.857C98.8868 136.334 99.8556 136.086 100.58 136.456C100.382 135.984 100.295 135.481 100.324 134.978C100.353 134.475 100.497 133.983 100.748 133.532C101.257 132.63 101.994 131.847 102.901 131.244C104.636 130.053 106.7 129.302 108.875 129.073C111.05 128.843 113.254 129.143 115.253 129.94C116.039 130.265 114.747 127.755 115.57 127.997C116.388 128.28 117.298 128.266 118.104 127.958C118.879 127.61 121.445 129.676 121.148 128.949C121.735 129.187 122.246 129.554 122.632 130.015C123.018 130.476 123.267 131.017 123.355 131.587C123.443 132.158 123.369 132.738 123.138 133.276C122.907 133.813 122.527 134.29 122.034 134.661C121.384 135.15 120.572 135.432 119.861 135.846C118.614 136.629 117.732 137.791 117.38 139.114C117.029 140.437 117.232 141.829 117.953 143.027C117.204 142.598 116.382 142.28 115.52 142.084C115.087 141.99 114.635 141.989 114.202 142.082C113.769 142.175 113.367 142.359 113.03 142.618C112.748 142.906 112.535 143.242 112.404 143.606C112.274 143.97 112.227 144.353 112.269 144.734C112.297 145.496 112.5 146.247 112.523 147.009C112.59 149.245 113.933 153.498 111.989 154.687C110.453 155.626 105.007 154.291 103.174 153.174Z" fill="#2F2E41"/>
<path d="M292.843 64.2646C292.843 65.0549 292.813 65.8452 292.751 66.6279C292.686 67.5641 292.573 68.4937 292.419 69.417C291.905 72.5255 290.921 75.5576 289.496 78.4311L289.277 78.8591L289.167 79.0738C289.13 79.1453 289.09 79.2168 289.054 79.2852C289.003 79.3794 288.955 79.4706 288.906 79.5615C288.844 79.6755 288.782 79.7891 288.716 79.903C288.709 79.9158 288.702 79.9323 288.691 79.9484C288.636 80.0472 288.585 80.1401 288.527 80.2379C288.516 80.2592 288.504 80.2799 288.49 80.2998C288.428 80.4104 288.362 80.524 288.297 80.6347C288.223 80.7516 288.155 80.8721 288.082 80.989C287.907 81.2784 287.725 81.5643 287.539 81.8504C287.484 81.935 287.428 82.0193 287.371 82.104C287.32 82.182 287.269 82.2601 287.215 82.3381C287.178 82.3901 287.141 82.4455 287.104 82.4975C287.046 82.5854 286.987 82.6697 286.925 82.7576C286.791 82.9493 286.652 83.1412 286.517 83.3329H286.513C286.451 83.4208 286.385 83.5084 286.32 83.593V83.5963C286.127 83.8565 285.927 84.1163 285.726 84.3731C285.725 84.3731 285.724 84.3735 285.723 84.3741C285.723 84.3747 285.722 84.3755 285.722 84.3764C285.562 84.5845 285.394 84.7861 285.23 84.9876V84.9909C285.119 85.1176 285.015 85.2477 284.906 85.3745C284.818 85.4786 284.727 85.5859 284.636 85.69C284.618 85.7127 284.595 85.7321 284.577 85.7558V85.7591C284.552 85.7884 284.526 85.8144 284.501 85.8437C284.114 86.2859 283.716 86.7182 283.305 87.1408L283.24 87.209C283.218 87.2317 283.192 87.2544 283.17 87.2804C283.133 87.3163 283.101 87.3519 283.065 87.3878C283.028 87.4237 282.995 87.4592 282.959 87.4951C280.818 89.6457 278.391 91.5551 275.731 93.1807C275.378 93.3983 275.017 93.6087 274.656 93.8146C274.565 93.8666 274.473 93.9186 274.383 93.9674C274.357 93.9835 274.328 94.0003 274.302 94.0161C274.251 94.0421 274.204 94.0681 274.155 94.0974C274.106 94.1267 274.06 94.1495 274.009 94.1755C273.816 94.2828 273.619 94.3869 273.422 94.4909C273.375 94.5169 273.324 94.543 273.274 94.569C273.225 94.595 273.176 94.6177 273.127 94.6437C273.127 94.647 273.127 94.647 273.123 94.647H273.119V94.6503H273.116C272.872 94.777 272.624 94.9005 272.372 95.0208C272.237 95.0866 272.099 95.1525 271.96 95.2157C271.647 95.3685 271.329 95.5147 271.012 95.6546C270.899 95.7034 270.783 95.7534 270.67 95.8041C270.575 95.843 270.48 95.8855 270.385 95.9243C270.356 95.9372 270.331 95.9471 270.305 95.9602C270.225 95.9932 270.149 96.0261 270.068 96.059C269.981 96.0949 269.893 96.1305 269.81 96.1664C269.711 96.2052 269.617 96.2444 269.518 96.28C269.154 96.4262 268.785 96.5661 268.417 96.6991C267.098 97.1815 265.75 97.5982 264.379 97.9475C264.317 97.9636 264.251 97.9804 264.186 97.9962C263.599 98.1424 263.008 98.2757 262.413 98.396C261.374 98.6105 260.326 98.7861 259.268 98.9229H259.26L258.881 98.9716C258.87 98.9716 258.859 98.9749 258.844 98.9749C258.844 98.9782 258.844 98.9782 258.841 98.9749L258.421 99.0236C258.412 99.0261 258.402 99.0272 258.392 99.0269C258.261 99.043 258.126 99.0562 257.995 99.0691L257.569 99.1079L257.241 99.1372C257.231 99.1401 257.221 99.1412 257.212 99.1405C257.113 99.1471 257.015 99.1567 256.916 99.1632H256.902L256.647 99.1827C255.63 99.2541 254.609 99.2867 253.574 99.2867C252.455 99.2867 251.343 99.2479 250.246 99.1632H250.235L249.532 99.1046C249.47 99.098 249.411 99.0947 249.349 99.0885C249.338 99.0885 249.324 99.0852 249.312 99.0852C249.294 99.0819 249.275 99.0819 249.254 99.0786C249.244 99.0789 249.234 99.0778 249.225 99.0753C249.145 99.0687 249.064 99.0592 248.981 99.0526L248.707 99.0233C248.616 99.0134 248.525 99.0006 248.434 98.9904C248.412 98.9871 248.394 98.9871 248.372 98.9838C248.306 98.9772 248.241 98.9676 248.175 98.9578L248.08 98.9479C248.015 98.938 247.953 98.9317 247.887 98.9219H247.884C245.884 98.6654 243.909 98.269 241.979 97.7364C241.877 97.7071 241.775 97.6811 241.673 97.6518C241.669 97.6518 241.665 97.6485 241.662 97.6485C241.633 97.6386 241.6 97.6324 241.571 97.6225C241.297 97.5444 241.027 97.4631 240.758 97.3788C240.386 97.2682 240.02 97.1483 239.651 97.0245C239.552 96.9886 239.454 96.9563 239.355 96.9204C239.155 96.8523 238.958 96.7808 238.761 96.709C238.426 96.5888 238.091 96.4621 237.759 96.332C237.449 96.2085 237.143 96.085 236.836 95.955C236.828 95.9517 236.817 95.9517 236.81 95.9451C236.741 95.9158 236.672 95.8865 236.606 95.8572H236.602C234.924 95.1387 233.305 94.3141 231.758 93.3898C231.262 93.0941 230.774 92.7885 230.292 92.473C229.906 92.2162 229.527 91.956 229.148 91.6896C227.278 90.363 225.547 88.8876 223.976 87.2818V87.2785C223.863 87.1678 223.757 87.0542 223.648 86.9403C223.63 86.9241 223.615 86.9073 223.601 86.8948C223.531 86.8201 223.466 86.7486 223.396 86.6772V86.6739C223.305 86.5797 223.214 86.4822 223.126 86.3844C223.105 86.3617 223.086 86.3423 223.068 86.3225V86.3192C222.994 86.2412 222.926 86.1631 222.853 86.0818C222.816 86.043 222.784 86.0038 222.748 85.9649V85.9616C222.533 85.7212 222.325 85.4805 222.117 85.2336C222.062 85.1677 222.006 85.1018 221.949 85.032C221.687 84.7166 221.432 84.3949 221.184 84.0731V84.0698C221.089 83.9497 220.999 83.8262 220.903 83.7056L220.63 83.3352C220.539 83.2051 220.445 83.0784 220.353 82.9483L220.342 82.9289C220.251 82.8054 220.16 82.6753 220.072 82.5485C220.003 82.4445 219.934 82.3437 219.864 82.2429C219.821 82.1748 219.773 82.1063 219.729 82.0348C219.712 82.0128 219.697 81.9901 219.682 81.9667L219.376 81.4889C219.256 81.3035 219.139 81.1151 219.022 80.9264C218.979 80.8484 218.931 80.7703 218.884 80.6923C218.866 80.6663 218.851 80.6403 218.837 80.6143C218.782 80.5234 218.726 80.4289 218.676 80.3347C218.627 80.2405 218.566 80.1493 218.513 80.0551C218.459 79.9609 218.407 79.8697 218.356 79.7756C218.316 79.7041 218.28 79.6326 218.239 79.5609C218.236 79.5551 218.233 79.5496 218.228 79.5447C218.21 79.5088 218.191 79.4766 218.177 79.444C218.173 79.439 218.169 79.4336 218.166 79.4278C218.126 79.3564 218.09 79.2816 218.049 79.2102C217.999 79.116 217.951 79.0185 217.902 78.924C217.869 78.8582 217.832 78.7923 217.8 78.7225C217.753 78.6283 217.701 78.5338 217.658 78.4363C217.607 78.3375 217.559 78.2414 217.512 78.14C217.498 78.1157 217.486 78.0907 217.475 78.0652C217.45 78.0198 217.431 77.9743 217.409 77.9286C217.351 77.8084 217.293 77.6849 217.238 77.5644C217.172 77.4277 217.111 77.2881 217.053 77.1514C216.995 77.0247 216.94 76.8946 216.886 76.7645L216.864 76.7191C216.015 74.7242 215.371 72.6645 214.939 70.5656V70.5623C214.696 69.3637 214.522 68.1547 214.418 66.9401C214.414 66.8719 214.407 66.8084 214.404 66.7425C214.338 65.9193 214.309 65.0961 214.309 64.2656C214.309 63.8981 214.316 63.5343 214.327 63.1701C214.581 55.5559 217.626 48.2257 222.995 42.3009C223.111 42.1708 223.228 42.0408 223.348 41.9107C223.469 41.7806 223.592 41.6538 223.713 41.5271C227.708 37.3539 232.748 34.0764 238.424 31.9589C244.101 29.8413 250.256 28.9429 256.393 29.3361C262.531 29.7293 268.479 31.4031 273.758 34.2225C279.036 37.042 283.499 40.9281 286.785 45.5678C286.963 45.8214 287.142 46.0782 287.313 46.3351C287.485 46.5919 287.656 46.855 287.824 47.1184C291.125 52.3532 292.855 58.2598 292.845 64.2659L292.843 64.2646Z" fill="#F2F2F2"/>
<path d="M269.026 45.0494C269.055 45.0448 269.083 45.0412 269.112 45.0366C268.991 44.97 268.878 44.8937 268.772 44.8087L269.026 45.0494Z" fill="white"/>
<path d="M247.024 78.5203L256.981 77.5449L259.35 85.3231L249.921 87.2969L247.024 78.5203Z" fill="#ED9DA0"/>
<path d="M249.509 80.8888C256.023 80.8888 261.304 76.0745 261.304 70.1358C261.304 64.1971 256.023 59.3828 249.509 59.3828C242.995 59.3828 237.715 64.1971 237.715 70.1358C237.715 76.0745 242.995 80.8888 249.509 80.8888Z" fill="#ED9DA0"/>
<path d="M274.679 94.8484C274.337 95.0151 273.991 95.1744 273.645 95.3266C273.522 95.3796 273.394 95.4329 273.271 95.4896C273.168 95.532 273.065 95.5781 272.962 95.6213C272.93 95.6354 272.902 95.646 272.874 95.6601C272.787 95.6957 272.703 95.7309 272.616 95.7665C272.52 95.8053 272.425 95.8445 272.334 95.8834C272.226 95.9259 272.123 95.9683 272.016 96.0072C271.618 96.1666 271.217 96.319 270.816 96.4643C269.378 96.9899 267.909 97.444 266.414 97.8246C266.347 97.8423 266.275 97.8601 266.204 97.8776C265.564 98.037 264.92 98.1822 264.273 98.3132C263.141 98.547 261.998 98.7383 260.845 98.8872H260.837L260.424 98.9402C260.412 98.9402 260.4 98.9438 260.384 98.9438C260.384 98.9474 260.384 98.9474 260.38 98.9438L259.923 98.9968C259.913 98.9996 259.902 99.0008 259.892 99.0005C259.749 99.0183 259.602 99.0334 259.459 99.0466L258.994 99.089L258.636 99.122C258.626 99.1251 258.615 99.1264 258.604 99.1256C258.497 99.1325 258.39 99.1434 258.283 99.1503H258.267L257.989 99.1717C256.881 99.2497 255.768 99.285 254.64 99.285C253.422 99.285 252.209 99.2425 251.013 99.1503H251.004L250.237 99.0864C250.169 99.0792 250.106 99.0759 250.038 99.0686C250.027 99.0686 250.011 99.065 249.998 99.065C249.979 99.0614 249.959 99.0614 249.935 99.0578C249.924 99.0581 249.914 99.0569 249.903 99.0541C249.816 99.0472 249.729 99.0363 249.637 99.0294L249.339 98.9965C249.24 98.986 249.14 98.9718 249.041 98.9609C249.017 98.9573 248.998 98.9573 248.974 98.954C248.902 98.9468 248.831 98.9362 248.759 98.9257L248.656 98.9152C248.584 98.9046 248.516 98.8974 248.445 98.8869H248.441C246.261 98.607 244.11 98.1746 242.006 97.5937C241.895 97.5608 241.784 97.5335 241.673 97.5015C242.186 95.3683 243.242 93.3687 244.759 91.6572C246.277 89.9458 248.215 88.5684 250.424 87.6314C249.878 87.1671 249.5 86.5673 249.34 85.9095C249.237 85.4855 249.228 85.0475 249.316 84.6207C249.403 84.1938 249.584 83.7866 249.848 83.4224C250.364 82.7165 251.172 82.2222 252.096 82.0479L257.982 80.9497C258.93 80.7849 259.912 80.9604 260.715 81.438C261.519 81.9156 262.078 82.6568 262.272 83.5004C262.332 83.759 262.359 84.0228 262.352 84.2867C268.021 87.6531 272.101 91.1426 274.679 94.8484Z" fill="#6C63FF"/>
<path d="M281.07 65.4721C279.065 63.387 278.112 60.6206 276.509 58.253C274.906 55.8854 272.117 53.7661 269.171 54.3173C267.14 54.6973 265.57 56.2957 264.777 58.0775C263.984 59.8593 263.834 61.8248 263.694 63.7499C263.743 59.7934 260.821 55.9579 256.795 54.6944C252.768 53.4309 247.95 54.8402 245.422 58.0202C244.318 57.1077 242.877 56.5881 241.372 56.5599C239.867 56.5317 238.403 56.997 237.257 57.8674C234.994 59.6713 234.493 63.1031 236.158 65.4049C237.822 67.7066 241.426 68.5628 244.071 67.2868L245.005 68.0537C244.479 69.6952 245.5 71.6344 247.215 72.2525C248.607 72.7537 250.57 72.6704 251.092 73.9724C251.456 74.8822 250.776 75.8533 250.053 76.5524C249.329 77.2515 248.471 77.9733 248.384 78.9407C248.253 80.4005 249.944 81.4229 251.482 81.7308C255.189 82.4734 259.303 80.9422 261.439 78.0243C261.481 77.9681 261.525 77.9118 261.574 77.8554C262.773 76.4881 263.646 74.9172 264.142 73.2386C264.637 71.56 264.743 69.809 264.454 68.0926C264.333 67.4182 264.454 66.9167 264.976 66.757C267.229 66.0655 273.542 67.5143 275.454 68.8249C277.366 70.1355 278.896 71.8672 280.734 73.2615C282.573 74.6557 284.92 75.7311 287.258 75.3511C289.129 75.0472 290.722 73.8364 291.792 72.3734C292.863 70.9103 293.48 69.2079 294.032 67.5143C289.89 69.6465 284.226 68.7538 281.07 65.4721Z" fill="#2F2E41"/>
<path d="M38.5863 42.4849C38.5863 43.2752 38.6155 44.0655 38.6775 44.8482C38.7432 45.7844 38.8562 46.714 39.0098 47.6373C39.5243 50.7457 40.5076 53.7778 41.933 56.6513L42.1516 57.0794L42.2624 57.2941C42.2993 57.3656 42.3388 57.437 42.3754 57.5055C42.4263 57.5997 42.4739 57.6909 42.523 57.7818C42.5851 57.8957 42.6471 58.0093 42.7125 58.1232C42.7198 58.1361 42.7269 58.1525 42.7379 58.1687C42.7926 58.2675 42.8435 58.3603 42.9019 58.4581C42.9127 58.4794 42.9251 58.5001 42.9388 58.52C43.0008 58.6307 43.0666 58.7443 43.1319 58.8549C43.2058 58.9718 43.2741 59.0923 43.3468 59.2092C43.5218 59.4987 43.7039 59.7845 43.8899 60.0707C43.9446 60.1553 44.0007 60.2396 44.0576 60.3242C44.1085 60.4023 44.1595 60.4803 44.2141 60.5584C44.251 60.6104 44.288 60.6657 44.3249 60.7177C44.3832 60.8057 44.4416 60.8899 44.5036 60.9779C44.6384 61.1695 44.7768 61.3615 44.912 61.5531H44.9157C44.9777 61.6411 45.043 61.7287 45.1088 61.8133V61.8166C45.3019 62.0767 45.5024 62.3365 45.7029 62.5934C45.7037 62.5931 45.7046 62.5931 45.7054 62.5934C45.7058 62.5941 45.7058 62.5949 45.7054 62.5957C45.8657 62.8038 46.0333 63.0053 46.1976 63.2068V63.2101C46.3084 63.3369 46.4125 63.467 46.5222 63.5938C46.6097 63.6978 46.7009 63.8052 46.7917 63.9092C46.8098 63.9319 46.832 63.9514 46.8501 63.9751V63.9784C46.8755 64.0077 46.901 64.0337 46.9265 64.063C47.3129 64.5051 47.7115 64.9375 48.122 65.3601L48.1878 65.4282C48.2096 65.451 48.235 65.4737 48.2572 65.4997C48.2941 65.5356 48.3266 65.5712 48.3628 65.607C48.399 65.6429 48.4322 65.6785 48.4684 65.7144C50.6091 67.865 53.0365 69.7743 55.6964 71.3999C56.0502 71.6176 56.4109 71.828 56.7716 72.0338C56.8628 72.0859 56.954 72.1379 57.0449 72.1866C57.0703 72.2028 57.0995 72.2195 57.125 72.2354C57.1759 72.2614 57.2236 72.2874 57.2727 72.3167C57.3218 72.346 57.3676 72.3687 57.4185 72.3947C57.6116 72.5021 57.8084 72.6061 58.0052 72.7102C58.0525 72.7362 58.1038 72.7622 58.1529 72.7882C58.202 72.8142 58.2515 72.837 58.3006 72.863C58.3006 72.8663 58.3006 72.8663 58.3043 72.8663H58.308V72.8696H58.3117C58.5559 72.9962 58.8038 73.1197 59.0553 73.24C59.1901 73.3059 59.3286 73.3717 59.4674 73.435C59.7809 73.5878 60.098 73.7339 60.4152 73.8739C60.5282 73.9226 60.6449 73.9727 60.7578 74.0234C60.8527 74.0623 60.9473 74.1047 61.0421 74.1436C61.0713 74.1564 61.0968 74.1663 61.1223 74.1795C61.2024 74.2124 61.2788 74.2453 61.3593 74.2783C61.4468 74.3142 61.5343 74.3497 61.6178 74.3856C61.7164 74.4245 61.8109 74.4637 61.9095 74.4996C62.2739 74.6458 62.642 74.7857 63.0101 74.9187C64.3295 75.4011 65.6777 75.8178 67.0488 76.1671C67.1108 76.1832 67.1762 76.2 67.2419 76.2158C67.8287 76.362 68.4195 76.4953 69.0142 76.6156C70.053 76.8301 71.1014 77.0057 72.1597 77.1424H72.167L72.5462 77.1912C72.5573 77.1912 72.568 77.1945 72.5832 77.1945C72.5832 77.1978 72.5832 77.1978 72.5869 77.1945L73.0059 77.2432C73.0154 77.2457 73.0252 77.2468 73.0351 77.2465C73.1662 77.2626 73.3013 77.2758 73.4324 77.2887L73.8589 77.3275L74.1867 77.3568C74.1961 77.3597 74.206 77.3608 74.2159 77.3601C74.3145 77.3667 74.4127 77.3762 74.5113 77.3828H74.5257L74.7808 77.4023C75.7977 77.4737 76.8182 77.5063 77.8536 77.5063C78.9727 77.5063 80.0841 77.4675 81.1814 77.3828H81.1925L81.8959 77.3242C81.9579 77.3176 82.0163 77.3143 82.0783 77.3081C82.0894 77.3081 82.1038 77.3048 82.1152 77.3048C82.1333 77.3015 82.1521 77.3015 82.1735 77.2982C82.1834 77.2985 82.1933 77.2974 82.2027 77.2949C82.2828 77.2883 82.363 77.2788 82.4468 77.2722L82.72 77.2429C82.8112 77.233 82.9024 77.2202 82.9932 77.21C83.015 77.2067 83.0335 77.2067 83.0553 77.2034C83.121 77.1968 83.1863 77.1872 83.2521 77.1774L83.347 77.1675C83.4127 77.1576 83.4743 77.1513 83.5401 77.1415H83.5438C85.5438 76.885 87.5181 76.4886 89.4485 75.956C89.5504 75.9267 89.6527 75.9007 89.7546 75.8714C89.7583 75.8714 89.762 75.8681 89.7656 75.8681C89.7948 75.8582 89.8277 75.852 89.8568 75.8421C90.1301 75.764 90.4 75.6827 90.6692 75.5984C91.041 75.4878 91.4076 75.3679 91.7768 75.2441C91.8754 75.2082 91.9736 75.1759 92.0722 75.14C92.2727 75.0719 92.4695 75.0004 92.6663 74.9286C93.0016 74.8084 93.3368 74.6817 93.6688 74.5516C93.9786 74.4281 94.2847 74.3046 94.5919 74.1746C94.5992 74.1713 94.6099 74.1713 94.6173 74.1647C94.6867 74.1354 94.7558 74.1061 94.8215 74.0768H94.8252C96.5038 73.3583 98.1227 72.5337 99.6695 71.6094C100.165 71.3137 100.654 71.0081 101.135 70.6926C101.521 70.4358 101.9 70.1756 102.279 69.9092C104.149 68.5826 105.881 67.1072 107.451 65.5013V65.4981C107.564 65.3874 107.67 65.2738 107.779 65.1599C107.797 65.1437 107.812 65.1269 107.827 65.1144C107.896 65.0397 107.961 64.9682 108.031 64.8968V64.8935C108.122 64.7993 108.213 64.7018 108.3 64.604C108.322 64.5813 108.34 64.5619 108.359 64.5421V64.5388C108.432 64.4608 108.501 64.3827 108.573 64.3014C108.61 64.2626 108.643 64.2234 108.679 64.1845V64.1812C108.894 63.9408 109.102 63.7001 109.31 63.4532C109.364 63.3873 109.421 63.3214 109.477 63.2516C109.74 62.9362 109.994 62.6144 110.243 62.2927V62.2894C110.338 62.1692 110.427 62.0458 110.523 61.9252L110.797 61.5548C110.888 61.4247 110.981 61.2979 111.074 61.1679L111.085 61.1484C111.176 61.025 111.267 60.8949 111.354 60.7681C111.424 60.6641 111.493 60.5633 111.562 60.4625C111.606 60.3944 111.653 60.3259 111.697 60.2544C111.714 60.2324 111.73 60.2097 111.744 60.1863L112.05 59.7085C112.171 59.5231 112.287 59.3347 112.404 59.146C112.447 59.068 112.495 58.9899 112.542 58.9119C112.56 58.8859 112.575 58.8599 112.59 58.8339C112.644 58.743 112.7 58.6485 112.75 58.5543C112.799 58.4601 112.861 58.3689 112.914 58.2747C112.967 58.1805 113.019 58.0893 113.07 57.9952C113.111 57.9237 113.147 57.8522 113.187 57.7805C113.19 57.7747 113.194 57.7692 113.198 57.7643C113.216 57.7284 113.235 57.6962 113.249 57.6636C113.254 57.6586 113.257 57.6532 113.26 57.6474C113.3 57.576 113.337 57.5012 113.377 57.4298C113.428 57.3356 113.475 57.2381 113.524 57.1436C113.557 57.0778 113.594 57.0119 113.626 56.9421C113.674 56.8479 113.725 56.7534 113.769 56.6559C113.819 56.5571 113.867 56.461 113.914 56.3596C113.928 56.3353 113.941 56.3103 113.951 56.2848C113.977 56.2394 113.995 56.1939 114.017 56.1482C114.075 56.028 114.134 55.9045 114.188 55.784C114.254 55.6473 114.316 55.5077 114.373 55.371C114.431 55.2443 114.486 55.1142 114.541 54.9841L114.562 54.9387C115.412 52.9438 116.056 50.8841 116.487 48.7852V48.7819C116.73 47.5833 116.904 46.3743 117.008 45.1597C117.012 45.0915 117.019 45.028 117.023 44.9621C117.089 44.1389 117.118 43.3157 117.118 42.4852C117.118 42.1177 117.11 41.7539 117.1 41.3897C116.845 33.7755 113.801 26.4453 108.432 20.5205C108.315 20.3904 108.199 20.2604 108.078 20.1303C107.958 20.0002 107.834 19.8734 107.714 19.7467C103.718 15.5735 98.6789 12.296 93.0023 10.1785C87.3257 8.06093 81.1706 7.16254 75.0333 7.55573C68.8959 7.94892 62.948 9.6227 57.6691 12.4421C52.3902 15.2616 47.9279 19.1477 44.6421 23.7874C44.4634 24.041 44.285 24.2978 44.1137 24.5546C43.9424 24.8115 43.771 25.0746 43.6034 25.338C40.3018 30.5727 38.5721 36.4792 38.5819 42.4852L38.5863 42.4849Z" fill="#F2F2F2"/>
<path d="M62.4035 23.2698C62.3747 23.2652 62.3459 23.2615 62.3175 23.2569C62.4381 23.1903 62.5517 23.114 62.6568 23.0291L62.4035 23.2698Z" fill="white"/>
<path d="M75.7859 51.8647H84.9428L84.5529 62.4419L74.1886 61.7181L75.7859 51.8647Z" fill="#9E616A"/>
<path d="M59.4718 73.1466C59.8292 73.3225 60.1903 73.4907 60.5518 73.6517C60.6807 73.7077 60.8136 73.764 60.9424 73.824C61.0506 73.8688 61.1585 73.9175 61.2666 73.9623C61.2999 73.9771 61.329 73.9886 61.3578 74.0034C61.4494 74.041 61.5365 74.0782 61.6277 74.1157C61.7274 74.1569 61.8271 74.198 61.9231 74.2392C62.0339 74.284 62.1447 74.3291 62.2554 74.3709C62.6708 74.5392 63.0906 74.7002 63.5108 74.8533C65.0139 75.4082 66.5506 75.8877 68.1136 76.2897C68.1842 76.3085 68.2591 76.3272 68.3352 76.3457C69.004 76.5141 69.677 76.6677 70.3541 76.8067C71.5381 77.0537 72.7332 77.2556 73.9393 77.4126H73.9475L74.3795 77.4686C74.392 77.4686 74.4046 77.4722 74.4212 77.4722C74.4212 77.4758 74.4212 77.4758 74.4253 77.4722L74.903 77.5282C74.9138 77.531 74.925 77.5322 74.9363 77.5318C75.0858 77.5506 75.2394 77.5647 75.3889 77.5805L75.8748 77.6253L76.2489 77.6582C76.2595 77.6615 76.2709 77.6628 76.2821 77.6619C76.3929 77.6694 76.5066 77.6806 76.6185 77.6882H76.6351L76.926 77.7106C78.0851 77.7929 79.2481 77.8301 80.4282 77.8301C81.7035 77.8301 82.9707 77.7853 84.2209 77.6879H84.2335L85.0351 77.622C85.1056 77.6144 85.1721 77.6108 85.243 77.6032C85.2555 77.6032 85.2721 77.5996 85.2847 77.5996C85.3053 77.596 85.3264 77.596 85.3511 77.592C85.3624 77.5925 85.3736 77.5912 85.3844 77.5884C85.4759 77.5809 85.569 77.5697 85.6628 77.5624L85.9744 77.5295C86.0781 77.5183 86.1823 77.5031 86.286 77.4919C86.3111 77.4883 86.3318 77.4883 86.3566 77.4844C86.4304 77.4768 86.5042 77.4656 86.581 77.4544L86.6892 77.4432C86.7631 77.432 86.8347 77.4244 86.9108 77.4132H86.9148C89.1943 77.1166 91.4438 76.6592 93.6422 76.0454C93.7585 76.0124 93.8748 75.9818 93.9911 75.9466C93.4609 73.701 92.3601 71.5938 90.7734 69.7871C89.1868 67.9804 87.1566 66.5224 84.839 65.5252C85.4116 65.0334 85.8065 64.4003 85.9733 63.7072C86.1912 62.8036 86.0001 61.8599 85.4416 61.0814C85.1762 60.7133 84.8318 60.3956 84.4283 60.1466C84.0248 59.8975 83.5701 59.7221 83.0903 59.6302L76.9338 58.4708C75.9386 58.2995 74.9079 58.4867 74.0671 58.9914C73.2263 59.4961 72.6439 60.2773 72.4473 61.164C72.3845 61.4372 72.3566 61.7158 72.3642 61.9945C66.4344 65.5482 62.1679 69.234 59.4718 73.1466Z" fill="#6C63FF"/>
<path d="M78.5211 57.8792C85.7827 57.8792 91.6694 52.6293 91.6694 46.1532C91.6694 39.6771 85.7827 34.4271 78.5211 34.4271C71.2595 34.4271 65.3729 39.6771 65.3729 46.1532C65.3729 52.6293 71.2595 57.8792 78.5211 57.8792Z" fill="#9E616A"/>
<path d="M76.6532 57.2527C73.3615 58.0456 69.7323 56.9915 67.164 54.9917C64.5956 52.992 62.9884 50.1591 62.0623 47.2323C61.3841 45.089 61.0628 42.7098 62.1329 40.6975C63.2029 38.6852 66.0836 37.3279 68.3049 38.3441C66.9343 36.9199 67.6189 34.5642 69.2199 33.3461C70.8208 32.1281 73.0189 31.7784 75.1124 31.5874C78.1508 31.3101 81.2892 31.2792 84.1807 32.157C87.0721 33.0349 89.6988 34.954 90.6053 37.5574C91.5295 37.9412 92.5702 38.0407 93.5646 37.8405C94.559 37.6403 95.4509 37.1516 96.1005 36.451C96.2684 37.2557 96.134 38.0874 95.7182 38.8171C95.3024 39.5468 94.6284 40.1339 93.8006 40.4875L98.2314 39.2065C98.9931 40.6449 97.6583 42.4247 95.951 42.8854C94.2437 43.346 92.4012 42.8426 90.7818 42.1771C89.1623 41.5116 87.592 40.6705 85.8323 40.4111C84.0725 40.1516 82.0055 40.6557 81.1918 42.071C80.7653 42.8123 80.7432 43.6806 80.4958 44.4837C80.2484 45.2869 79.6214 46.12 78.6899 46.1858C78.1017 46.2273 77.5253 45.9478 76.9386 46.0051C76.5787 46.0684 76.2473 46.224 75.985 46.4527C75.7227 46.6815 75.5408 46.9734 75.4617 47.2929C75.3158 47.9338 75.314 48.5942 75.4565 49.2357L76.5819 56.9082L76.6532 57.2527Z" fill="#2F2E41"/>
<path d="M3.88019 86.2075C4.39613 86.1291 4.92522 86.155 5.42846 86.2832C5.9317 86.4114 6.39626 86.6388 6.78787 86.9484L6.80929 86.9656L6.82923 86.9501C7.20284 86.6573 7.64218 86.4389 8.11793 86.3096C8.59367 86.1802 9.09489 86.1428 9.58811 86.2L9.73138 86.2187C10.353 86.3144 10.934 86.5582 11.4129 86.9243C11.8918 87.2905 12.2507 87.7653 12.4517 88.2986C12.6527 88.8318 12.6882 89.4036 12.5546 89.9534C12.4209 90.5031 12.123 91.0104 11.6924 91.4215L11.5875 91.5177L11.5594 91.5391L7.21507 95.3766C7.11482 95.4651 6.98203 95.5181 6.8413 95.5259C6.70057 95.5337 6.56143 95.4958 6.44966 95.4191L6.39501 95.3766L2.02887 91.518C1.56608 91.1165 1.23695 90.6086 1.07791 90.0506C0.918882 89.4925 0.936163 88.9061 1.12784 88.3563C1.31952 87.8064 1.67812 87.3147 2.16391 86.9354C2.6497 86.5561 3.24373 86.3042 3.88019 86.2075Z" fill="#6C63FF"/>
<path d="M202.053 52.9289C201.606 52.929 201.177 52.7771 200.852 52.5038C200.527 52.2305 200.332 51.8565 200.306 51.459L200.302 51.3667V46.4466L205.81 49.7218L205.877 49.7546C205.957 49.7904 206.045 49.809 206.134 49.809C206.223 49.809 206.311 49.7904 206.391 49.7546L206.457 49.7218L211.966 46.4466V51.3667C211.966 51.7649 211.796 52.148 211.489 52.4375C211.183 52.7271 210.764 52.901 210.318 52.9238L210.215 52.9289H202.053ZM200.562 45.3504C200.708 45.1383 200.909 44.9605 201.148 44.832C201.387 44.7035 201.657 44.6281 201.935 44.612L202.053 44.6075H210.214C210.513 44.6075 210.807 44.6759 211.068 44.806C211.329 44.936 211.548 45.1233 211.705 45.3504L206.132 48.6619L200.562 45.3504Z" fill="#6C63FF"/>
<path d="M62.1968 107.09C62.8155 107.09 63.4088 107.309 63.8463 107.7C64.2838 108.09 64.5296 108.619 64.5296 109.171V113.332C64.5296 113.883 64.2838 114.413 63.8463 114.803C63.4088 115.193 62.8155 115.412 62.1968 115.412H59.4416L56.6646 116.898C56.581 116.943 56.4861 116.968 56.3886 116.972C56.2911 116.976 56.1941 116.957 56.1066 116.919C56.0191 116.88 55.9438 116.823 55.8876 116.752C55.8314 116.681 55.7962 116.598 55.7851 116.512L55.7818 116.452V115.412H55.1984C54.6 115.412 54.0245 115.207 53.5909 114.839C53.1573 114.472 52.8987 113.969 52.8686 113.436L52.8656 113.332V109.171C52.8656 108.619 53.1114 108.09 53.5489 107.7C53.9863 107.309 54.5797 107.09 55.1984 107.09H62.1968ZM59.864 111.771H56.3648C56.2101 111.771 56.0618 111.826 55.9524 111.923C55.843 112.021 55.7816 112.153 55.7816 112.291C55.7816 112.429 55.843 112.561 55.9524 112.659C56.0618 112.757 56.2101 112.811 56.3648 112.811H59.864C60.0187 112.811 60.167 112.757 60.2764 112.659C60.3857 112.561 60.4472 112.429 60.4472 112.291C60.4472 112.153 60.3857 112.021 60.2764 111.923C60.167 111.826 60.0187 111.771 59.864 111.771ZM61.0304 109.692H56.3648C56.2101 109.692 56.0618 109.746 55.9524 109.844C55.843 109.941 55.7816 110.074 55.7816 110.212C55.7816 110.35 55.843 110.482 55.9524 110.58C56.0618 110.677 56.2101 110.732 56.3648 110.732H61.0304C61.1851 110.732 61.3334 110.677 61.4428 110.58C61.5521 110.482 61.6136 110.35 61.6136 110.212C61.6136 110.074 61.5521 109.941 61.4428 109.844C61.3334 109.746 61.1851 109.692 61.0304 109.692Z" fill="#6C63FF"/>
<path d="M56.3452 90.8453C58.267 90.8453 59.8248 89.4559 59.8248 87.742C59.8248 86.0282 58.267 84.6388 56.3452 84.6388C54.4235 84.6388 52.8656 86.0282 52.8656 87.742C52.8656 89.4559 54.4235 90.8453 56.3452 90.8453Z" fill="#E6E6E6"/>
</g>
<defs>
<clipPath id="clip0_8_893">
<rect width="295" height="155" fill="white"/>
</clipPath>
</defs>
</svg>
