<svg width="39" height="39" viewBox="0 0 39 39" fill="none" xmlns="http://www.w3.org/2000/svg">
<g clip-path="url(#clip0_8_883)">
<path d="M34.125 19.8575C34.125 10.9363 27.2025 4.875 19.5 4.875C11.8787 4.875 4.875 10.8062 4.875 19.955C3.9 20.5075 3.25 21.5475 3.25 22.75V26C3.25 27.7875 4.7125 29.25 6.5 29.25C7.39375 29.25 8.125 28.5187 8.125 27.625V19.8087C8.125 13.585 12.9187 8.14125 19.1425 7.9625C25.5775 7.7675 30.875 12.935 30.875 19.3375V30.875H19.5C18.6062 30.875 17.875 31.6063 17.875 32.5C17.875 33.3937 18.6062 34.125 19.5 34.125H30.875C32.6625 34.125 34.125 32.6625 34.125 30.875V28.8925C35.0837 28.3888 35.75 27.3975 35.75 26.2275V22.49C35.75 21.3525 35.0837 20.3613 34.125 19.8575Z" fill="#323232"/>
<path d="M14.625 22.75C15.5225 22.75 16.25 22.0225 16.25 21.125C16.25 20.2275 15.5225 19.5 14.625 19.5C13.7275 19.5 13 20.2275 13 21.125C13 22.0225 13.7275 22.75 14.625 22.75Z" fill="#323232"/>
<path d="M24.375 22.75C25.2725 22.75 26 22.0225 26 21.125C26 20.2275 25.2725 19.5 24.375 19.5C23.4775 19.5 22.75 20.2275 22.75 21.125C22.75 22.0225 23.4775 22.75 24.375 22.75Z" fill="#323232"/>
<path d="M29.25 17.9237C28.47 13.2925 24.44 9.75 19.5813 9.75C14.6575 9.75 9.36001 13.8287 9.78251 20.2312C13.7963 18.59 16.8188 15.015 17.68 10.66C19.8088 14.9338 24.18 17.875 29.25 17.9237Z" fill="#323232"/>
</g>
<defs>
<clipPath id="clip0_8_883">
<rect width="39" height="39" fill="white"/>
</clipPath>
</defs>
</svg>
